<svg id="Layer_1" data-name="Layer 1" xmlns="http://www.w3.org/2000/svg" viewBox="0 0 1286.23 870.43"><path d="M74.47,289.37q7.92,0,12-1.54a10.87,10.87,0,0,0,6-5.16,22.83,22.83,0,0,0,2.23-9.11q.34-5.51.35-13.41V88.23q0-7.91-.35-13.41a21.46,21.46,0,0,0-2.23-8.94,11.79,11.79,0,0,0-6-5.16Q82.39,59,74.47,59V53.84h98V59q-7.56,0-11.86,1.72a11.69,11.69,0,0,0-6.19,5.16,21.3,21.3,0,0,0-2.24,8.94q-.35,5.5-.34,13.41v197.7h73.93q8.25,0,12.89-4.12a23.26,23.26,0,0,0,6.7-10.66,57.32,57.32,0,0,0,2.41-15q.34-8.41.35-16.67h10.31v55h-184Z"/><path d="M291.43,251.55q0-17.53,10-27.68A61.84,61.84,0,0,1,326,208.74a124.41,124.41,0,0,1,31.12-6.19q16.5-1.2,29.57-1.2h7.74q3.6,0,7-.34V191q0-20.28-2.58-33.18t-7.39-20.45a25.88,25.88,0,0,0-11.86-10.49,41.4,41.4,0,0,0-16-2.92,39.58,39.58,0,0,0-12.38,1.71,50.45,50.45,0,0,1,5.68,14.45,60.49,60.49,0,0,1,1.54,12.37q0,13.41-7.56,20.81a25.55,25.55,0,0,1-18.57,7.39q-11.34,0-18.39-7.05t-7-18a30,30,0,0,1,3.61-14.1,35,35,0,0,1,11.17-12.21q7.56-5.32,19.43-8.59t28.37-3.27q21,0,37.13,5.5A80.14,80.14,0,0,1,434,138.25a63.66,63.66,0,0,1,16.85,23.21A75.19,75.19,0,0,1,456.48,191V259.8q0,6.54,2.41,10.32a7.4,7.4,0,0,0,6.53,3.78c2.52,0,5.55-1.08,9.11-3.27a59.31,59.31,0,0,0,10.83-8.76,25.93,25.93,0,0,1-3.44,12.72,38.48,38.48,0,0,1-9.28,11,49.06,49.06,0,0,1-13.24,7.74,41.43,41.43,0,0,1-15.3,2.92,36.47,36.47,0,0,1-23.38-7.91,42.55,42.55,0,0,1-14.1-19.94,59.81,59.81,0,0,1-20.46,22.86,52.49,52.49,0,0,1-29.4,8.43q-32.31,0-48.82-13.24T291.43,251.55ZM369.83,287a22.07,22.07,0,0,0,10.83-2.75,37.56,37.56,0,0,0,8.94-6.88,55.28,55.28,0,0,0,6.88-8.77c1.94-3.09,3.61-6,5-8.77V210q-7.9,0-15.13.34t-9.62.69q-12.37,1.72-19.6,14.09T349.89,256q0,18.23,6.19,24.59T369.83,287Z"/><path d="M508.73,208.57q0-22.69,5.51-39.71t15.3-28.37a64,64,0,0,1,23.38-17.19,74.34,74.34,0,0,1,29.74-5.85,68.67,68.67,0,0,1,17.88,2.06,62.29,62.29,0,0,1,12.72,4.82,51.58,51.58,0,0,1,5.33,3.09c1.72,1.15,3.49,2.41,5.33,3.79V86.51q0-6.54-2.41-9.11a7.68,7.68,0,0,0-5.84-2.58q-4.47,0-10,3.26a57.13,57.13,0,0,0-11,8.77,24.92,24.92,0,0,1,3.62-12.72A41.93,41.93,0,0,1,607.93,63a46.68,46.68,0,0,1,14.1-7.9,49.59,49.59,0,0,1,17-2.93,52.18,52.18,0,0,1,14.44,2.07,38.62,38.62,0,0,1,12.9,6.36,31.48,31.48,0,0,1,12.55,26V260.15q0,6.53,2.57,10a7.72,7.72,0,0,0,6.36,3.44q3.78,0,9.29-3.27a57,57,0,0,0,11-8.77,25.88,25.88,0,0,1-3.44,12.72,41.9,41.9,0,0,1-9.11,11.18,45,45,0,0,1-12.89,7.91,39.29,39.29,0,0,1-14.79,2.92,32.73,32.73,0,0,1-13.41-2.75,45.32,45.32,0,0,1-19.08-15.82,51.29,51.29,0,0,1-5-8.94,1,1,0,0,1-.34-.68,1,1,0,0,0-.34-.69Q622.2,282.84,609,291.26t-31.11,8.43a63.06,63.06,0,0,1-27-5.85A61.42,61.42,0,0,1,529,276.65q-9.28-11.34-14.78-28.37T508.73,208.57Zm58.46-1.38q0,25.11,2.4,40.75t6.19,24.41q3.78,8.77,8.6,11.87a18.21,18.21,0,0,0,10,3.09,19.6,19.6,0,0,0,10-2.58,33.51,33.51,0,0,0,8.08-6.53,52.65,52.65,0,0,0,6.54-8.94c1.94-3.32,3.61-6.48,5-9.46V142.55a101,101,0,0,0-12-9.62,26.77,26.77,0,0,0-15.48-4.48,21.94,21.94,0,0,0-11.17,3.1q-5.34,3.09-9.28,11.69t-6.37,23.9Q567.19,182.44,567.19,207.19Z"/><path d="M741.86,143.58q-4.47,0-10,3.27a56.75,56.75,0,0,0-11,8.77,24.92,24.92,0,0,1,3.62-12.72,41.93,41.93,0,0,1,9.62-11.18,46.91,46.91,0,0,1,14.1-7.91,49.82,49.82,0,0,1,17-2.92A52.54,52.54,0,0,1,779.68,123a39,39,0,0,1,12.9,6.36,31.51,31.51,0,0,1,12.55,26V260.15q0,7.56.34,13.23a21.71,21.71,0,0,0,2.23,9.12,11.63,11.63,0,0,0,6.19,5.15q4.3,1.73,11.87,1.72v5.16H729.48v-5.16q7.9,0,12-1.72a11.69,11.69,0,0,0,6-5.15,21.7,21.7,0,0,0,2.24-9.12q.33-5.67.34-13.23V155.28q0-6.54-2.41-9.12A7.68,7.68,0,0,0,741.86,143.58Zm6.53-62.23a26.81,26.81,0,0,1,2.41-11.18,30.65,30.65,0,0,1,15.64-15.64,27.11,27.11,0,0,1,22.35,0,30.62,30.62,0,0,1,15.65,15.64,27.22,27.22,0,0,1,0,22.35,30.59,30.59,0,0,1-15.65,15.65,27.11,27.11,0,0,1-22.35,0A30.62,30.62,0,0,1,750.8,92.52,26.73,26.73,0,0,1,748.39,81.35Z"/><path d="M942.32,299.69q-23,0-41.09-6.88a85.19,85.19,0,0,1-30.43-19.25A81,81,0,0,1,852.06,244a108,108,0,0,1-6.36-37.83q0-20.62,6.19-37a73.5,73.5,0,0,1,18.39-27.85,82.68,82.68,0,0,1,29.92-17.71q17.7-6.19,40.4-6.19A115.57,115.57,0,0,1,963.29,120a92.59,92.59,0,0,1,24.07,8.42,58.57,58.57,0,0,1,19.08,15.48q7.74,9.63,7.74,23.72,0,11.7-5.67,20.12a45.91,45.91,0,0,1-15,13.92,82,82,0,0,1-21,8.6,184.16,184.16,0,0,1-23.9,4.64q-12.21,1.55-23.9,1.89t-20.63.35a327.87,327.87,0,0,0,2.24,37q1.88,14.26,6,22t11,10.49a44.25,44.25,0,0,0,16.5,2.75,108.83,108.83,0,0,0,37-6.87,87.93,87.93,0,0,0,32.84-20.63,24.4,24.4,0,0,1-4.3,13.23,42.07,42.07,0,0,1-12.72,12.21,74,74,0,0,1-21,8.94Q959.15,299.69,942.32,299.69Zm-38.17-91.12q10.32-.69,19.94-2.23a47.1,47.1,0,0,0,17-6A32.66,32.66,0,0,0,953,187.6q4.46-8.26,4.47-22a77.6,77.6,0,0,0-1.38-14.44,45,45,0,0,0-4.3-12.72,27.1,27.1,0,0,0-7.39-8.94,17,17,0,0,0-10.66-3.44,19,19,0,0,0-11.52,4q-5.33,4-9.28,13.58T906.56,169Q904.15,184.84,904.15,208.57Z"/><path d="M1097.05,245.36q0,10-5.85,20.63c-.46.92-.92,1.89-1.38,2.92a8.84,8.84,0,0,0-.68,3.61,10.29,10.29,0,0,0,3.09,7.57,22.73,22.73,0,0,0,7.91,5,48,48,0,0,0,10.32,2.76,67.18,67.18,0,0,0,10.31.85q12,0,20.63-5.15t8.6-18.23a26.48,26.48,0,0,0-1.89-10.31,25.56,25.56,0,0,0-6.36-8.6,70,70,0,0,0-11.35-8.25q-6.89-4.12-16.85-9.28a343.9,343.9,0,0,1-30.43-17.19,120.49,120.49,0,0,1-19.43-15.13,48,48,0,0,1-10.31-14.27,36.84,36.84,0,0,1-3.1-15,40.16,40.16,0,0,1,5.16-20.12,48.36,48.36,0,0,1,14.79-15.81,73.08,73.08,0,0,1,23.21-10.32,118.72,118.72,0,0,1,30.42-3.61,133.15,133.15,0,0,1,29.06,3.1,83.09,83.09,0,0,1,24.41,9.28,51.38,51.38,0,0,1,16.68,15.3,36.13,36.13,0,0,1,6.19,20.8q0,12.39-6.88,20.12t-18.22,7.74a26.56,26.56,0,0,1-18.57-6.88Q1149,180,1149,168a33.56,33.56,0,0,1,2.23-12.72,56.72,56.72,0,0,1,4-8.26c1.84-3.66,2.76-6,2.76-6.87q0-3.43-6.88-8.6t-17.54-5.16a27.63,27.63,0,0,0-18.74,6.71,21.55,21.55,0,0,0-7.73,17,23.69,23.69,0,0,0,3.44,12.55,43.29,43.29,0,0,0,8.25,10,61.54,61.54,0,0,0,10.14,7.39q5.33,3.09,9.11,5.16a349.52,349.52,0,0,1,33.7,19.43,157,157,0,0,1,20.63,16q7.56,7.23,10.49,13.76a32.65,32.65,0,0,1,2.92,13.41,36.61,36.61,0,0,1-6.53,21,56.76,56.76,0,0,1-17.88,16.51,95.61,95.61,0,0,1-26.48,10.66,133,133,0,0,1-32.32,3.78,141.06,141.06,0,0,1-27.33-2.75,94.2,94.2,0,0,1-25.45-8.77A53.67,53.67,0,0,1,1051,272.35q-7.21-9.8-7.22-23.89,0-13.76,7.22-22.18t20.29-8.43q13.07,0,19.42,7.91T1097.05,245.36Z"/><path d="M254.82,357.47a145.34,145.34,0,0,1,26.82,2.58,79.38,79.38,0,0,1,25.1,9.11,55.72,55.72,0,0,1,18.56,17.19q7.23,10.66,7.23,27.17a29.82,29.82,0,0,1-9.46,22q-9.46,9.28-24.58,9.29T274.76,434q-8.6-10.83-8.6-33.18a47,47,0,0,1,.86-8.43c.57-3.09,1.21-6,1.89-8.77a70.82,70.82,0,0,1,2.24-7.39q1.2-3.25,1.89-4.64a2.33,2.33,0,0,0,.69-1.72c0-1.37-1.44-2.35-4.3-2.92a44.89,44.89,0,0,0-8.77-.86,42.71,42.71,0,0,0-21.14,5.67q-10.16,5.67-18.06,19.26t-12.55,35.93q-4.64,22.35-4.64,56,0,33.36,4.82,55.88T222.15,575q8.25,13.59,19.43,19.26a51.36,51.36,0,0,0,23.55,5.67,61.45,61.45,0,0,0,25.1-5.16A99.68,99.68,0,0,0,311,582.52a91.41,91.41,0,0,0,15.12-14.45q6-7.38,8.08-11.51a38.49,38.49,0,0,1-5.15,18.91,55.22,55.22,0,0,1-14.62,16.67,75,75,0,0,1-23,11.87A97.35,97.35,0,0,1,261,608.48q-27.16,0-48.83-8.26A97.7,97.7,0,0,1,175.39,576q-15.13-16-23.21-39.37T144.1,483q0-30.24,7.91-53.64T174.53,390a95.19,95.19,0,0,1,35.07-24.24Q230.06,357.47,254.82,357.47Z"/><path d="M361.74,560.34q0-17.54,10-27.68a61.84,61.84,0,0,1,24.58-15.13,124.32,124.32,0,0,1,31.12-6.19q16.5-1.2,29.57-1.2h7.73a70.51,70.51,0,0,0,7-.35v-10q0-20.28-2.58-33.18t-7.39-20.46a25.91,25.91,0,0,0-11.86-10.48,41.4,41.4,0,0,0-16-2.93,39.56,39.56,0,0,0-12.38,1.72,50.8,50.8,0,0,1,5.68,14.44,60.58,60.58,0,0,1,1.54,12.38q0,13.41-7.56,20.8a25.53,25.53,0,0,1-18.57,7.4q-11.34,0-18.39-7.05t-7-18a30,30,0,0,1,3.61-14.1A35,35,0,0,1,392,438.1q7.56-5.33,19.43-8.59t28.37-3.27q21,0,37.13,5.5A80.14,80.14,0,0,1,504.27,447a63.51,63.51,0,0,1,16.84,23.21,75,75,0,0,1,5.68,29.57v68.77q0,6.54,2.4,10.32a7.42,7.42,0,0,0,6.54,3.78q3.78,0,9.11-3.27a59.4,59.4,0,0,0,10.83-8.77,25.94,25.94,0,0,1-3.44,12.73,38.48,38.48,0,0,1-9.28,11,48.78,48.78,0,0,1-13.24,7.73,41.24,41.24,0,0,1-15.3,2.93A36.45,36.45,0,0,1,491,597.13a42.55,42.55,0,0,1-14.1-19.94,59.88,59.88,0,0,1-20.46,22.86,52.49,52.49,0,0,1-29.4,8.43q-32.32,0-48.82-13.24T361.74,560.34Zm78.4,35.41A22,22,0,0,0,451,593a37.26,37.26,0,0,0,8.94-6.87,55.74,55.74,0,0,0,6.88-8.77c1.94-3.1,3.61-6,5-8.77V518.73q-7.9,0-15.13.35t-9.62.69q-12.39,1.72-19.6,14.09t-7.22,30.95q0,18.23,6.19,24.58T440.14,595.75Z"/><path d="M557.05,395.64a24.91,24.91,0,0,1,3.61-12.72,42,42,0,0,1,9.63-11.18,46.86,46.86,0,0,1,14.09-7.91,49.86,49.86,0,0,1,17-2.92A52.61,52.61,0,0,1,615.85,363a38.78,38.78,0,0,1,12.89,6.37,31.47,31.47,0,0,1,12.55,26V514.61L702.15,450c2.52-2.76,3.78-5.27,3.78-7.57q0-4.12-6-5a84.18,84.18,0,0,0-11.86-.86V431.4h55v5.16q-10,0-16.34,3.78A54.39,54.39,0,0,0,714.87,450L679.8,487.79,732.06,570q7.56,11.34,14.44,11.34a14.49,14.49,0,0,0,8.43-3.09,71.49,71.49,0,0,0,8.77-7.57,26.17,26.17,0,0,1-3.79,13.59,37,37,0,0,1-10.14,11A49.53,49.53,0,0,1,735,602.46,60.16,60.16,0,0,1,717.28,605q-15.13,0-25.45-7.57t-20.28-23.38L641.29,526.3v42.63q0,7.58.34,13.24a21.65,21.65,0,0,0,2.24,9.11,11.6,11.6,0,0,0,6.19,5.16q4.29,1.72,11.86,1.72v5.16H565.64v-5.16q7.9,0,12-1.72a11.7,11.7,0,0,0,6-5.16,21.81,21.81,0,0,0,2.23-9.11q.35-5.67.34-13.24V395.29q0-6.53-2.4-9.11A7.72,7.72,0,0,0,578,383.6q-4.47,0-10,3.27A56.41,56.41,0,0,0,557.05,395.64Z"/><path d="M873,608.48q-23,0-41.09-6.88a85.07,85.07,0,0,1-30.43-19.26,80.75,80.75,0,0,1-18.74-29.57A108,108,0,0,1,776.42,515q0-20.63,6.19-37A73.42,73.42,0,0,1,801,450.14a82.6,82.6,0,0,1,29.92-17.71q17.7-6.19,40.4-6.19A115.57,115.57,0,0,1,894,428.82a92.72,92.72,0,0,1,24.07,8.42,58.65,58.65,0,0,1,19.08,15.48q7.74,9.63,7.74,23.72,0,11.7-5.67,20.12a45.91,45.91,0,0,1-15,13.92,82.43,82.43,0,0,1-21,8.6,183.69,183.69,0,0,1-23.89,4.64q-12.21,1.54-23.9,1.89t-20.63.34a328.26,328.26,0,0,0,2.23,37q1.89,14.26,6,22t11,10.49a44.34,44.34,0,0,0,16.51,2.75,108.61,108.61,0,0,0,37-6.88,87.76,87.76,0,0,0,32.84-20.63,24.49,24.49,0,0,1-4.3,13.24,42.19,42.19,0,0,1-12.72,12.21,74,74,0,0,1-21,8.94Q889.88,608.48,873,608.48Zm-38.17-91.12q10.32-.69,19.94-2.24a46.91,46.91,0,0,0,17-6,32.76,32.76,0,0,0,11.87-12.73q4.45-8.25,4.46-22a77.5,77.5,0,0,0-1.37-14.44,45,45,0,0,0-4.3-12.73,27.28,27.28,0,0,0-7.39-8.93,17,17,0,0,0-10.66-3.44,19,19,0,0,0-11.52,4q-5.34,4-9.28,13.58t-6.36,25.45Q834.87,493.63,834.87,517.36Z"/><path d="M1027.76,554.15q0,10-5.84,20.63c-.46.92-.92,1.89-1.38,2.92a8.81,8.81,0,0,0-.68,3.61,10.32,10.32,0,0,0,3.09,7.57,22.64,22.64,0,0,0,7.91,5,47.88,47.88,0,0,0,10.31,2.75,66.24,66.24,0,0,0,10.32.86q12,0,20.63-5.15t8.6-18.23a26.3,26.3,0,0,0-1.9-10.31,25.3,25.3,0,0,0-6.36-8.6,69.49,69.49,0,0,0-11.34-8.25q-6.88-4.12-16.85-9.29a338.9,338.9,0,0,1-30.43-17.19,119.38,119.38,0,0,1-19.43-15.13,47.89,47.89,0,0,1-10.31-14.27A36.63,36.63,0,0,1,981,476.1,40.13,40.13,0,0,1,986.16,456a48.33,48.33,0,0,1,14.78-15.81,73.28,73.28,0,0,1,23.21-10.32,118.42,118.42,0,0,1,30.43-3.61,133.83,133.83,0,0,1,29.06,3.09,83.37,83.37,0,0,1,24.41,9.29,51.27,51.27,0,0,1,16.68,15.3,36.21,36.21,0,0,1,6.19,20.8q0,12.38-6.88,20.12t-18.22,7.73a26.6,26.6,0,0,1-18.57-6.87q-7.57-6.88-7.57-18.92a33.62,33.62,0,0,1,2.24-12.72,57,57,0,0,1,3.95-8.25c1.84-3.66,2.75-6,2.75-6.88q0-3.44-6.87-8.59t-17.54-5.16a27.63,27.63,0,0,0-18.74,6.71,21.51,21.51,0,0,0-7.73,17,23.79,23.79,0,0,0,3.43,12.55,43.33,43.33,0,0,0,8.26,10,60.71,60.71,0,0,0,10.14,7.39q5.33,3.09,9.11,5.16a354.33,354.33,0,0,1,33.7,19.42,158.53,158.53,0,0,1,20.63,16q7.56,7.23,10.49,13.76a32.61,32.61,0,0,1,2.92,13.41,36.55,36.55,0,0,1-6.54,21A56.47,56.47,0,0,1,1112,594a95.43,95.43,0,0,1-26.48,10.66,133,133,0,0,1-32.32,3.79,141.24,141.24,0,0,1-27.34-2.75,94.24,94.24,0,0,1-25.44-8.77,53.77,53.77,0,0,1-18.74-15.82q-7.22-9.79-7.22-23.9,0-13.74,7.22-22.17t20.29-8.43q13,0,19.42,7.91T1027.76,554.15Z"/><path d="M236.26,755.81H225.07V780.1h-7.59V721.92h18.78c13.69,0,20.12,7.51,20.12,17C256.38,747.8,250.7,755.81,236.26,755.81Zm0-6.26c8.68,0,12.35-4.09,12.35-10.6,0-6.76-3.67-10.77-12.35-10.77H225.07v21.37Z"/><path d="M308.54,767.16H283.16l-4.67,12.94h-8l21-57.84h8.77l21,57.84h-8ZM295.85,731.6,285.33,761h21Z"/><path d="M357.2,780.69c-11.69,0-19.95-6.52-20.12-16.11h8.1c.5,4.84,3.92,9.68,12,9.68,7.34,0,11.68-4.18,11.68-9.68,0-15.7-31.47-5.68-31.47-27.3,0-9.6,7.77-16.11,19.29-16.11,11.1,0,18.36,6.09,19.28,14.94h-8.35c-.5-3.92-4.17-8.35-11.27-8.43-6.26-.17-11.18,3.09-11.18,9.35,0,15,31.38,5.68,31.38,27.21C376.56,772.51,369.8,780.69,357.2,780.69Z"/><path d="M392.5,721.92h39.4v6.18H416v52h-7.6v-52H392.5Z"/><path d="M468.37,721.92c13.69,0,20.2,7.6,20.2,17.11,0,7.43-4.09,14.53-13.86,16.7l14.61,24.37h-9.1l-13.85-23.79h-9.19V780.1h-7.59V721.92Zm0,6.26H457.18v22h11.19c8.6,0,12.35-4.68,12.35-11.19S477.05,728.18,468.37,728.18Z"/><path d="M503.84,721.92h8.43l14.36,29.47L541,721.92h8.43l-18.94,36.23v22h-7.6v-22Z"/><path d="M618.1,780.1H596.4V721.92h20.87c12.27,0,18.45,6.68,18.45,14.78,0,7.34-4.6,11.6-10.19,13.43,6.35,1.09,11.52,7.18,11.52,14.36C637.05,773.26,630.12,780.1,618.1,780.1Zm-1.5-51.92H604v18.87h12.77c7.09,0,11.18-3.51,11.18-9.44C628,731.85,624,728.18,616.6,728.18Zm.58,25.13H604v20.53h13.44c7.51,0,12-3.76,12-10.1S624.61,753.31,617.18,753.31Z"/><path d="M682.29,780.69c-16.36,0-29.22-12.27-29.22-29.72s12.86-29.72,29.22-29.72S711.5,733.52,711.5,751,698.73,780.69,682.29,780.69Zm0-6.6c12.27,0,21.45-8.93,21.45-23.12s-9.18-23.12-21.45-23.12S660.83,736.7,660.83,751,670,774.09,682.29,774.09Z"/><path d="M729.69,721.92h7.6v36.81c0,10.69,5.76,15.28,14.35,15.28s14.28-4.59,14.28-15.28V721.92h7.59v36.73c0,15.11-9.93,22-22,22s-21.87-6.93-21.87-22Z"/><path d="M791,721.92h39.4v6.18H814.49v52H806.9v-52H791Z"/><path d="M848,721.92h7.6V780.1H848Z"/><path d="M918.74,776.51l14.69,14.61h-9.85L912,779.52a33.12,33.12,0,0,1-8.68,1.17c-16.36,0-29.22-12.27-29.22-29.72s12.86-29.72,29.22-29.72,29.21,12.27,29.21,29.72C932.51,762.32,927.08,771.5,918.74,776.51Zm-15.44-2.42c12.27,0,21.45-8.93,21.45-23.12s-9.18-23.12-21.45-23.12S881.84,736.7,881.84,751,891,774.09,903.3,774.09Z"/><path d="M950.87,721.92h7.59v36.81c0,10.69,5.76,15.28,14.36,15.28s14.27-4.59,14.27-15.28V721.92h7.6v36.73c0,15.11-9.93,22-22,22s-21.87-6.93-21.87-22Z"/><path d="M1047,728.1h-23.71v19.45h21.21v6.26h-21.21v20H1047v6.26h-31.3V721.84H1047Z"/></svg>