<svg id="Capa_1" data-name="Capa 1" xmlns="http://www.w3.org/2000/svg" viewBox="0 0 2392.74 514.84"><defs><style>.cls-1{fill:#e06a71;}.cls-2{fill:#010101;}</style></defs><path class="cls-1" d="M70.17,299.15q7.9,0,12-1.55a10.76,10.76,0,0,0,6-5.16,22.62,22.62,0,0,0,2.23-9.11q.35-5.49.35-13.41V98q0-7.91-.35-13.41a21.35,21.35,0,0,0-2.23-8.94,11.75,11.75,0,0,0-6-5.16q-4.12-1.71-12-1.72V63.62h98v5.15q-7.56,0-11.86,1.72a11.69,11.69,0,0,0-6.19,5.16,21.2,21.2,0,0,0-2.23,8.94q-.36,5.5-.35,13.41V295.71h73.93q8.25,0,12.89-4.13a23.28,23.28,0,0,0,6.71-10.66,57.68,57.68,0,0,0,2.4-14.95q.34-8.43.35-16.68h10.31v55H70.17Z"/><path class="cls-1" d="M287.13,256.17q0-17.54,10-27.68a61.8,61.8,0,0,1,24.58-15.13,124.41,124.41,0,0,1,31.12-6.19q16.5-1.2,29.57-1.2h7.74q3.6,0,7.05-.35v-10q0-20.28-2.58-33.18T387.19,142q-4.83-7.56-11.87-10.48a41.4,41.4,0,0,0-16-2.93A39.45,39.45,0,0,0,347,130.32a50.36,50.36,0,0,1,5.67,14.44,60.67,60.67,0,0,1,1.55,12.38q0,13.41-7.57,20.8a25.5,25.5,0,0,1-18.57,7.4q-11.34,0-18.39-7.05t-7-18.06a30,30,0,0,1,3.61-14.09,35.08,35.08,0,0,1,11.18-12.21q7.55-5.33,19.42-8.59t28.37-3.27q21,0,37.13,5.5a80,80,0,0,1,27.34,15.3,63.34,63.34,0,0,1,16.85,23.21,75.19,75.19,0,0,1,5.67,29.57v68.77q0,6.54,2.41,10.31a7.39,7.39,0,0,0,6.53,3.79q3.78,0,9.11-3.27a59.82,59.82,0,0,0,10.83-8.77,26,26,0,0,1-3.43,12.72,38.42,38.42,0,0,1-9.29,11,48.78,48.78,0,0,1-13.24,7.73,41.24,41.24,0,0,1-15.3,2.93A36.53,36.53,0,0,1,416.41,293,42.53,42.53,0,0,1,402.31,273a59.89,59.89,0,0,1-20.45,22.87,52.61,52.61,0,0,1-29.4,8.42q-32.32,0-48.83-13.23T287.13,256.17Zm78.39,35.41a22,22,0,0,0,10.83-2.75,37.06,37.06,0,0,0,8.94-6.87,55.61,55.61,0,0,0,6.88-8.77q2.93-4.65,5-8.77V214.56q-7.92,0-15.13.35t-9.63.68q-12.37,1.72-19.6,14.1t-7.22,30.95q0,18.23,6.19,24.58T365.52,291.58Z"/><path class="cls-1" d="M504.43,213.19q0-22.69,5.5-39.72t15.3-28.36a64,64,0,0,1,23.38-17.2,74.55,74.55,0,0,1,29.74-5.84,68.67,68.67,0,0,1,17.88,2.06A61.82,61.82,0,0,1,609,129a49.69,49.69,0,0,1,5.32,3.09q2.58,1.72,5.33,3.78V91.12q0-6.53-2.4-9.11a7.72,7.72,0,0,0-5.85-2.58q-4.47,0-10,3.27a56.41,56.41,0,0,0-11,8.77A25,25,0,0,1,594,78.74a41.91,41.91,0,0,1,9.63-11.17,46.74,46.74,0,0,1,14.09-7.91,49.86,49.86,0,0,1,17-2.92,52.49,52.49,0,0,1,14.44,2.06,38.91,38.91,0,0,1,12.9,6.36,31.48,31.48,0,0,1,12.55,26V264.76q0,6.54,2.58,10a7.68,7.68,0,0,0,6.36,3.44q3.78,0,9.28-3.26a57,57,0,0,0,11-8.77,26,26,0,0,1-3.44,12.72A42.25,42.25,0,0,1,691.31,290a44.93,44.93,0,0,1-12.9,7.9,39,39,0,0,1-14.78,2.93,32.74,32.74,0,0,1-13.42-2.75,45.32,45.32,0,0,1-19.08-15.82,50.89,50.89,0,0,1-5-8.94,1,1,0,0,1-.35-.69,1.07,1.07,0,0,0-.34-.69q-7.58,15.48-20.8,23.9t-31.12,8.42a63.2,63.2,0,0,1-27-5.84,61.73,61.73,0,0,1-21.84-17.19q-9.29-11.36-14.78-28.37T504.43,213.19Zm58.45-1.38q0,25.11,2.41,40.75T571.48,277q3.78,8.76,8.59,11.86a18.16,18.16,0,0,0,10,3.1,19.57,19.57,0,0,0,10-2.58,33.79,33.79,0,0,0,8.09-6.54,52.75,52.75,0,0,0,6.53-8.94c1.94-3.32,3.61-6.47,5-9.45V147.17a101.08,101.08,0,0,0-12-9.63,26.83,26.83,0,0,0-15.47-4.47,21.87,21.87,0,0,0-11.18,3.1q-5.32,3.09-9.28,11.69t-6.36,23.89Q562.88,187.07,562.88,211.81Z"/><path class="cls-1" d="M737.55,153.36q-4.47,0-10,3.27a56.71,56.71,0,0,0-11,8.76,24.93,24.93,0,0,1,3.61-12.72,41.74,41.74,0,0,1,9.62-11.17,46.91,46.91,0,0,1,14.1-7.91,49.62,49.62,0,0,1,17-2.92,52.11,52.11,0,0,1,14.44,2.06,38.72,38.72,0,0,1,12.9,6.36,31.48,31.48,0,0,1,12.55,26V269.92q0,7.57.34,13.24a21.54,21.54,0,0,0,2.24,9.11,11.65,11.65,0,0,0,6.19,5.16q4.29,1.72,11.86,1.72v5.15H725.17v-5.15q7.91,0,12-1.72a11.72,11.72,0,0,0,6-5.16,21.69,21.69,0,0,0,2.24-9.11q.35-5.67.34-13.24V165.05q0-6.53-2.4-9.11A7.72,7.72,0,0,0,737.55,153.36Zm6.53-62.24A26.76,26.76,0,0,1,746.49,80,30.59,30.59,0,0,1,762.14,64.3a27.22,27.22,0,0,1,22.35,0A30.62,30.62,0,0,1,800.13,80a27.11,27.11,0,0,1,0,22.35,30.65,30.65,0,0,1-15.64,15.64,27.11,27.11,0,0,1-22.35,0,30.62,30.62,0,0,1-15.65-15.64A26.77,26.77,0,0,1,744.08,91.12Z"/><path class="cls-1" d="M938,304.3q-23,0-41.09-6.87a85.44,85.44,0,0,1-30.43-19.26,80.88,80.88,0,0,1-18.74-29.57,108.25,108.25,0,0,1-6.36-37.82q0-20.62,6.19-37A73.65,73.65,0,0,1,866,146a82.54,82.54,0,0,1,29.92-17.71q17.7-6.19,40.4-6.19A115.49,115.49,0,0,1,959,124.65a92.59,92.59,0,0,1,24.07,8.42,58.69,58.69,0,0,1,19.09,15.47q7.73,9.63,7.73,23.73,0,11.7-5.67,20.11a45.84,45.84,0,0,1-15,13.93,82.35,82.35,0,0,1-21,8.6,184.16,184.16,0,0,1-23.9,4.64q-12.21,1.55-23.9,1.89t-20.63.34a330.3,330.3,0,0,0,2.24,37q1.89,14.26,6,22t11,10.49A44.25,44.25,0,0,0,935.6,294a108.71,108.71,0,0,0,37-6.88,87.85,87.85,0,0,0,32.83-20.63,24.4,24.4,0,0,1-4.3,13.24,42,42,0,0,1-12.72,12.21,74,74,0,0,1-21,8.94Q954.86,304.31,938,304.3Zm-38.17-91.11q10.32-.69,19.95-2.24a46.86,46.86,0,0,0,17-6,32.64,32.64,0,0,0,11.86-12.72q4.46-8.25,4.47-22a76.68,76.68,0,0,0-1.38-14.44A45.27,45.27,0,0,0,947.47,143a27.33,27.33,0,0,0-7.4-8.94,17,17,0,0,0-10.66-3.43,19,19,0,0,0-11.51,4q-5.34,4-9.29,13.58t-6.36,25.44Q899.84,189.47,899.84,213.19Z"/><path class="cls-1" d="M1092.74,250q0,10-5.85,20.63c-.46.92-.92,1.89-1.37,2.92a8.81,8.81,0,0,0-.69,3.61,10.32,10.32,0,0,0,3.09,7.57,22.87,22.87,0,0,0,7.91,5,48.55,48.55,0,0,0,10.32,2.75,66,66,0,0,0,10.31.86q12,0,20.63-5.16t8.6-18.22a26.3,26.3,0,0,0-1.89-10.31,25.43,25.43,0,0,0-6.36-8.6,69.61,69.61,0,0,0-11.35-8.25q-6.88-4.12-16.85-9.29a342.81,342.81,0,0,1-30.43-17.19,118.81,118.81,0,0,1-19.42-15.13,47.76,47.76,0,0,1-10.32-14.27,36.79,36.79,0,0,1-3.09-14.95,40.23,40.23,0,0,1,5.15-20.12A48.39,48.39,0,0,1,1065.92,136a73.29,73.29,0,0,1,23.21-10.31,118.31,118.31,0,0,1,30.43-3.61,133.74,133.74,0,0,1,29,3.09,83.44,83.44,0,0,1,24.42,9.29,51.13,51.13,0,0,1,16.67,15.3,36.11,36.11,0,0,1,6.19,20.8q0,12.38-6.88,20.12t-18.22,7.73a26.56,26.56,0,0,1-18.57-6.88q-7.56-6.87-7.56-18.91a33.63,33.63,0,0,1,2.23-12.72,56.88,56.88,0,0,1,4-8.25c1.83-3.66,2.75-6,2.75-6.88q0-3.44-6.88-8.59T1129.19,131a27.61,27.61,0,0,0-18.74,6.7,21.54,21.54,0,0,0-7.74,17,23.66,23.66,0,0,0,3.44,12.55,43.39,43.39,0,0,0,8.25,10,62.72,62.72,0,0,0,10.14,7.39q5.32,3.09,9.12,5.16a350.62,350.62,0,0,1,33.69,19.42,157.85,157.85,0,0,1,20.63,16q7.56,7.22,10.49,13.75a32.68,32.68,0,0,1,2.92,13.41,36.64,36.64,0,0,1-6.53,21,56.61,56.61,0,0,1-17.88,16.5,95.3,95.3,0,0,1-26.48,10.66,133,133,0,0,1-32.32,3.78,140.28,140.28,0,0,1-27.33-2.75,93.84,93.84,0,0,1-25.45-8.76A53.86,53.86,0,0,1,1046.66,277q-7.22-9.8-7.22-23.9,0-13.74,7.22-22.18t20.29-8.42q13.07,0,19.43,7.91T1092.74,250Z"/><path class="cls-1" d="M1441,53.3a145.51,145.51,0,0,1,26.82,2.58A79.38,79.38,0,0,1,1492.9,65a55.72,55.72,0,0,1,18.56,17.19q7.23,10.66,7.22,27.17a29.81,29.81,0,0,1-9.45,22q-9.46,9.28-24.59,9.29t-23.72-10.83q-8.6-10.84-8.6-33.18a47,47,0,0,1,.86-8.43c.57-3.09,1.2-6,1.89-8.77a70.82,70.82,0,0,1,2.24-7.39c.8-2.18,1.43-3.72,1.89-4.64a2.33,2.33,0,0,0,.69-1.72c0-1.38-1.44-2.35-4.3-2.92a44.89,44.89,0,0,0-8.77-.86,42.75,42.75,0,0,0-21.15,5.67q-10.14,5.67-18.05,19.26t-12.55,35.93q-4.63,22.35-4.64,56,0,33.36,4.81,55.88t13.07,36.1q8.25,13.59,19.43,19.26a51.33,51.33,0,0,0,23.55,5.67,61.45,61.45,0,0,0,25.1-5.16,99.34,99.34,0,0,0,20.8-12.2,91.5,91.5,0,0,0,15.13-14.45q6-7.38,8.08-11.52a38.54,38.54,0,0,1-5.16,18.92A55.18,55.18,0,0,1,1500.63,288a75.23,75.23,0,0,1-23,11.87,97.31,97.31,0,0,1-30.43,4.46q-27.17,0-48.82-8.25a97.7,97.7,0,0,1-36.79-24.24q-15.13-16-23.21-39.37t-8.08-53.64q0-30.26,7.91-53.64t22.52-39.37a95.08,95.08,0,0,1,35.07-24.24Q1416.22,53.3,1441,53.3Z"/><path class="cls-1" d="M1547.9,256.17q0-17.54,10-27.68a61.84,61.84,0,0,1,24.59-15.13,124.32,124.32,0,0,1,31.12-6.19q16.5-1.2,29.57-1.2h7.73a70.51,70.51,0,0,0,7-.35v-10q0-20.28-2.58-33.18T1648,142a25.85,25.85,0,0,0-11.86-10.48,41.4,41.4,0,0,0-16-2.93,39.52,39.52,0,0,0-12.38,1.72,50.36,50.36,0,0,1,5.67,14.44,60,60,0,0,1,1.55,12.38q0,13.41-7.56,20.8a25.53,25.53,0,0,1-18.57,7.4q-11.35,0-18.4-7.05t-7.05-18.06a30,30,0,0,1,3.62-14.09,35,35,0,0,1,11.17-12.21q7.56-5.33,19.43-8.59t28.36-3.27q21,0,37.14,5.5a80.09,80.09,0,0,1,27.33,15.3,63.34,63.34,0,0,1,16.85,23.21,75.19,75.19,0,0,1,5.68,29.57v68.77q0,6.54,2.4,10.31a7.4,7.4,0,0,0,6.54,3.79q3.78,0,9.11-3.27a59.82,59.82,0,0,0,10.83-8.77,25.88,25.88,0,0,1-3.44,12.72,38.38,38.38,0,0,1-9.28,11,48.93,48.93,0,0,1-13.24,7.73,41.24,41.24,0,0,1-15.3,2.93,36.51,36.51,0,0,1-23.38-7.91,42.53,42.53,0,0,1-14.1-19.95,59.92,59.92,0,0,1-20.46,22.87,52.61,52.61,0,0,1-29.4,8.42q-32.32,0-48.82-13.23T1547.9,256.17Zm78.4,35.41a22,22,0,0,0,10.83-2.75,37.26,37.26,0,0,0,8.94-6.87,56.2,56.2,0,0,0,6.88-8.77c1.94-3.1,3.61-6,5-8.77V214.56q-7.9,0-15.13.35t-9.63.68q-12.37,1.72-19.59,14.1t-7.22,30.95q0,18.23,6.18,24.58T1626.3,291.58Z"/><path class="cls-1" d="M1743.21,94.91a24.94,24.94,0,0,1,3.61-12.73A41.89,41.89,0,0,1,1756.44,71a46.91,46.91,0,0,1,14.1-7.91,49.58,49.58,0,0,1,17-2.92A52.49,52.49,0,0,1,1802,62.24a38.91,38.91,0,0,1,12.9,6.36A32.4,32.4,0,0,1,1824,79.43a32.06,32.06,0,0,1,3.44,15.13V213.87l60.86-64.64q3.78-4.12,3.78-7.56,0-4.12-6-5a84.29,84.29,0,0,0-11.86-.86v-5.15h55v5.15q-10,0-16.33,3.78a55,55,0,0,0-11.86,9.63L1866,187.06l52.26,82.17q7.56,11.36,14.44,11.35a14.49,14.49,0,0,0,8.43-3.09,73.21,73.21,0,0,0,8.76-7.57,26.15,26.15,0,0,1-3.78,13.58,36.91,36.91,0,0,1-10.14,11,49.59,49.59,0,0,1-14.79,7.22,60.14,60.14,0,0,1-17.7,2.57q-15.14,0-25.45-7.56t-20.28-23.38l-30.26-47.79V268.2q0,7.57.34,13.24a21.54,21.54,0,0,0,2.24,9.11,11.65,11.65,0,0,0,6.19,5.16q4.29,1.73,11.86,1.72v5.16H1751.8v-5.16q7.9,0,12-1.72a11.72,11.72,0,0,0,6-5.16,21.69,21.69,0,0,0,2.24-9.11q.33-5.67.34-13.24V94.56q0-6.53-2.4-9.11a7.72,7.72,0,0,0-5.85-2.58q-4.47,0-10,3.27A56.41,56.41,0,0,0,1743.21,94.91Z"/><path class="cls-1" d="M2059.19,304.3q-23,0-41.09-6.87a85.52,85.52,0,0,1-30.43-19.26,80.88,80.88,0,0,1-18.74-29.57,108.25,108.25,0,0,1-6.36-37.82q0-20.62,6.19-37a73.56,73.56,0,0,1,18.4-27.85,82.42,82.42,0,0,1,29.91-17.71q17.72-6.19,40.4-6.19a115.67,115.67,0,0,1,22.7,2.58,92.72,92.72,0,0,1,24.07,8.42,58.75,58.75,0,0,1,19.08,15.47q7.74,9.63,7.74,23.73,0,11.7-5.68,20.11a45.9,45.9,0,0,1-15,13.93,82.43,82.43,0,0,1-21,8.6,183.69,183.69,0,0,1-23.89,4.64q-12.21,1.55-23.9,1.89t-20.63.34a328.26,328.26,0,0,0,2.23,37q1.89,14.26,6,22t11,10.49a44.3,44.3,0,0,0,16.51,2.75,108.66,108.66,0,0,0,37-6.88,87.89,87.89,0,0,0,32.84-20.63,24.49,24.49,0,0,1-4.3,13.24,42.19,42.19,0,0,1-12.72,12.21,74,74,0,0,1-21,8.94Q2076,304.31,2059.19,304.3ZM2021,213.19q10.31-.69,19.94-2.24a46.8,46.8,0,0,0,17-6,32.57,32.57,0,0,0,11.86-12.72q4.47-8.25,4.47-22a77.5,77.5,0,0,0-1.37-14.44,45.27,45.27,0,0,0-4.3-12.73,27.43,27.43,0,0,0-7.39-8.94,17.05,17.05,0,0,0-10.66-3.43,19,19,0,0,0-11.52,4q-5.34,4-9.29,13.58t-6.36,25.44Q2021,189.47,2021,213.19Z"/><path class="cls-1" d="M2213.92,250q0,10-5.84,20.63c-.47.92-.92,1.89-1.38,2.92a8.81,8.81,0,0,0-.69,3.61,10.29,10.29,0,0,0,3.1,7.57,22.69,22.69,0,0,0,7.91,5,48.3,48.3,0,0,0,10.31,2.75,66.14,66.14,0,0,0,10.32.86q12,0,20.63-5.16t8.59-18.22a26.3,26.3,0,0,0-1.89-10.31,25.3,25.3,0,0,0-6.36-8.6,69.49,69.49,0,0,0-11.34-8.25q-6.89-4.12-16.85-9.29A340,340,0,0,1,2200,216.28a118.94,118.94,0,0,1-19.43-15.13,48.11,48.11,0,0,1-10.32-14.27,36.79,36.79,0,0,1-3.09-14.95,40.13,40.13,0,0,1,5.16-20.12A48.35,48.35,0,0,1,2187.1,136a73.4,73.4,0,0,1,23.21-10.31,118.36,118.36,0,0,1,30.43-3.61,133.83,133.83,0,0,1,29.06,3.09,83.48,83.48,0,0,1,24.41,9.29,51.13,51.13,0,0,1,16.67,15.3,36.11,36.11,0,0,1,6.19,20.8q0,12.38-6.87,20.12T2292,198.4a26.54,26.54,0,0,1-18.56-6.88q-7.57-6.87-7.57-18.91a33.43,33.43,0,0,1,2.24-12.72,56,56,0,0,1,4-8.25c1.83-3.66,2.75-6,2.75-6.88q0-3.44-6.87-8.59T2250.37,131a27.63,27.63,0,0,0-18.74,6.7,21.54,21.54,0,0,0-7.74,17,23.75,23.75,0,0,0,3.44,12.55,43.39,43.39,0,0,0,8.25,10,62.36,62.36,0,0,0,10.15,7.39q5.33,3.09,9.11,5.16a352.18,352.18,0,0,1,33.7,19.42,159.22,159.22,0,0,1,20.63,16q7.56,7.22,10.48,13.75a32.54,32.54,0,0,1,2.93,13.41,36.65,36.65,0,0,1-6.54,21,56.4,56.4,0,0,1-17.88,16.5,95.23,95.23,0,0,1-26.47,10.66,133,133,0,0,1-32.32,3.78,140.38,140.38,0,0,1-27.34-2.75,93.77,93.77,0,0,1-25.44-8.76A53.68,53.68,0,0,1,2167.85,277q-7.23-9.8-7.22-23.9,0-13.74,7.22-22.18t20.28-8.42q13.07,0,19.43,7.91T2213.92,250Z"/><path class="cls-2" d="M800.38,426.23H789.2v24.29h-7.6V392.34h18.78c13.69,0,20.12,7.51,20.12,17C820.5,418.21,814.82,426.23,800.38,426.23Zm0-6.26c8.68,0,12.36-4.09,12.36-10.6,0-6.77-3.68-10.77-12.36-10.77H789.2V420Z"/><path class="cls-2" d="M872.66,437.58H847.29l-4.68,12.94h-8l21-57.85h8.77l21,57.85h-8ZM860,402,849.46,431.4h21Z"/><path class="cls-2" d="M921.32,451.1c-11.69,0-20-6.51-20.12-16.11h8.1c.5,4.84,3.92,9.68,12,9.68,7.35,0,11.69-4.17,11.69-9.68,0-15.69-31.47-5.67-31.47-27.29,0-9.6,7.76-16.11,19.28-16.11,11.1,0,18.36,6.09,19.28,14.94h-8.35c-.5-3.93-4.17-8.35-11.26-8.43-6.26-.17-11.19,3.09-11.19,9.35,0,15,31.39,5.67,31.39,27.21C940.69,442.92,933.92,451.1,921.32,451.1Z"/><path class="cls-2" d="M956.62,392.34H996v6.17H980.16v52h-7.59v-52h-16Z"/><path class="cls-2" d="M1032.49,392.34c13.69,0,20.2,7.59,20.2,17.11,0,7.43-4.09,14.52-13.85,16.69l14.6,24.38h-9.09l-13.86-23.79h-9.18v23.79h-7.6V392.34Zm0,6.26h-11.18v22h11.18c8.6,0,12.36-4.67,12.36-11.18S1041.17,398.6,1032.49,398.6Z"/><path class="cls-2" d="M1068,392.34h8.43l14.36,29.46,14.36-29.46h8.43l-19,36.22v22H1087v-22Z"/><path class="cls-2" d="M1182.23,450.52h-21.71V392.34h20.87c12.27,0,18.45,6.67,18.45,14.77,0,7.35-4.59,11.61-10.19,13.44,6.35,1.09,11.52,7.18,11.52,14.36C1201.17,443.67,1194.25,450.52,1182.23,450.52Zm-1.51-51.92h-12.6v18.86h12.77c7.09,0,11.19-3.5,11.19-9.43C1192.08,402.27,1188.15,398.6,1180.72,398.6Zm.59,25.12h-13.19v20.54h13.44c7.51,0,12-3.76,12-10.1S1188.74,423.72,1181.31,423.72Z"/><path class="cls-2" d="M1246.41,451.1c-16.36,0-29.22-12.27-29.22-29.71s12.86-29.72,29.22-29.72,29.21,12.27,29.21,29.72S1262.85,451.1,1246.41,451.1Zm0-6.59c12.27,0,21.45-8.93,21.45-23.12s-9.18-23.13-21.45-23.13S1225,407.11,1225,421.39,1234.14,444.51,1246.41,444.51Z"/><path class="cls-2" d="M1293.81,392.34h7.6v36.81c0,10.68,5.76,15.27,14.36,15.27s14.27-4.59,14.27-15.27V392.34h7.6v36.72c0,15.11-9.94,22-22,22s-21.87-6.93-21.87-22Z"/><path class="cls-2" d="M1355.07,392.34h39.4v6.17h-15.86v52H1371v-52h-16Z"/><path class="cls-2" d="M1412.16,392.34h7.6v58.18h-7.6Z"/><path class="cls-2" d="M1482.86,446.93l14.69,14.61h-9.85l-11.6-11.61a33.06,33.06,0,0,1-8.68,1.17c-16.36,0-29.22-12.27-29.22-29.71s12.86-29.72,29.22-29.72,29.21,12.27,29.21,29.72C1496.63,432.74,1491.21,441.92,1482.86,446.93Zm-15.44-2.42c12.27,0,21.45-8.93,21.45-23.12s-9.18-23.13-21.45-23.13S1446,407.11,1446,421.39,1455.15,444.51,1467.42,444.51Z"/><path class="cls-2" d="M1515,392.34h7.6v36.81c0,10.68,5.76,15.27,14.35,15.27s14.28-4.59,14.28-15.27V392.34h7.59v36.72c0,15.11-9.93,22-22,22s-21.87-6.93-21.87-22Z"/><path class="cls-2" d="M1611.14,398.51h-23.7V418h21.2v6.26h-21.2v20h23.7v6.26h-31.3V392.25h31.3Z"/></svg>