<svg id="Layer_1" data-name="Layer 1" xmlns="http://www.w3.org/2000/svg" viewBox="0 0 1286.23 870.43"><defs><style>.cls-1{fill:#e06b71;}</style></defs><path class="cls-1" d="M77.51,303q7.9,0,12-1.55a10.79,10.79,0,0,0,6-5.16,22.83,22.83,0,0,0,2.23-9.11q.34-5.5.35-13.41V101.82q0-7.91-.35-13.41a21.46,21.46,0,0,0-2.23-8.94,11.79,11.79,0,0,0-6-5.16q-4.12-1.71-12-1.72V67.43h98v5.16q-7.56,0-11.86,1.72a11.69,11.69,0,0,0-6.19,5.16,21.3,21.3,0,0,0-2.24,8.94q-.35,5.5-.34,13.41V299.53H228.8q8.25,0,12.89-4.13a23.26,23.26,0,0,0,6.7-10.66,57.32,57.32,0,0,0,2.41-15q.34-8.41.35-16.67h10.31v55H77.51Z"/><path class="cls-1" d="M294.46,265.14q0-17.53,10-27.68A61.91,61.91,0,0,1,329,222.33a124.41,124.41,0,0,1,31.12-6.19q16.5-1.19,29.57-1.2h7.74q3.6,0,7-.34v-10q0-20.3-2.57-33.18T394.52,151a25.88,25.88,0,0,0-11.86-10.49,41.4,41.4,0,0,0-16-2.92,39.27,39.27,0,0,0-12.38,1.72A50.28,50.28,0,0,1,360,153.74a60.5,60.5,0,0,1,1.54,12.38q0,13.41-7.56,20.8a25.55,25.55,0,0,1-18.57,7.39q-11.34,0-18.39-7.05t-7.05-18a30,30,0,0,1,3.61-14.1,35,35,0,0,1,11.17-12.2q7.56-5.32,19.43-8.6T372.52,131q21,0,37.13,5.51A80,80,0,0,1,437,151.85a63.57,63.57,0,0,1,16.85,23.21,75.16,75.16,0,0,1,5.67,29.57v68.76q0,6.54,2.41,10.32a7.4,7.4,0,0,0,6.53,3.78q3.78,0,9.11-3.26a59.82,59.82,0,0,0,10.83-8.77A25.93,25.93,0,0,1,485,288.18a38.21,38.21,0,0,1-9.28,11,48.81,48.81,0,0,1-13.24,7.74,41.43,41.43,0,0,1-15.3,2.92,36.47,36.47,0,0,1-23.38-7.91A42.51,42.51,0,0,1,409.65,282a59.91,59.91,0,0,1-20.46,22.87,52.56,52.56,0,0,1-29.39,8.42q-32.32,0-48.83-13.24T294.46,265.14Zm78.4,35.42a22.07,22.07,0,0,0,10.83-2.75,37.3,37.3,0,0,0,8.94-6.88,55.28,55.28,0,0,0,6.88-8.77c1.94-3.09,3.61-6,5-8.77V223.54q-7.9,0-15.12.34t-9.63.69q-12.37,1.73-19.6,14.1t-7.22,30.94q0,18.24,6.19,24.59T372.86,300.56Z"/><path class="cls-1" d="M511.76,222.16q0-22.69,5.51-39.71t15.3-28.37A64,64,0,0,1,556,136.89,74.34,74.34,0,0,1,585.69,131a68.21,68.21,0,0,1,17.88,2.07,61.73,61.73,0,0,1,12.72,4.81,49.92,49.92,0,0,1,5.33,3.1c1.72,1.15,3.49,2.4,5.33,3.78V100.1q0-6.52-2.41-9.11a7.68,7.68,0,0,0-5.84-2.58q-4.47,0-10,3.26a57.52,57.52,0,0,0-11,8.77,25,25,0,0,1,3.62-12.72A41.74,41.74,0,0,1,611,76.55a46.91,46.91,0,0,1,14.1-7.91,49.59,49.59,0,0,1,17-2.93,52.18,52.18,0,0,1,14.44,2.07,38.81,38.81,0,0,1,12.9,6.36A32.4,32.4,0,0,1,678.53,85,32.06,32.06,0,0,1,682,100.1V273.74q0,6.54,2.57,10a7.72,7.72,0,0,0,6.37,3.44q3.78,0,9.28-3.27a56.63,56.63,0,0,0,11-8.77,25.94,25.94,0,0,1-3.44,12.73A42,42,0,0,1,698.64,299a44.78,44.78,0,0,1-12.89,7.91A39.29,39.29,0,0,1,671,309.84a32.73,32.73,0,0,1-13.41-2.75,44.37,44.37,0,0,1-11-6.88,45,45,0,0,1-8.08-8.94,51.29,51.29,0,0,1-5-8.94,1,1,0,0,1-.34-.68,1,1,0,0,0-.34-.69q-7.57,15.46-20.81,23.9t-31.11,8.42a63.06,63.06,0,0,1-27-5.85,61.42,61.42,0,0,1-21.84-17.19q-9.28-11.34-14.78-28.36T511.76,222.16Zm58.46-1.37q0,25.1,2.4,40.74t6.19,24.41q3.78,8.78,8.6,11.87a18.21,18.21,0,0,0,10,3.09,19.57,19.57,0,0,0,10-2.58,33.51,33.51,0,0,0,8.08-6.53,52.26,52.26,0,0,0,6.54-8.94c1.94-3.32,3.61-6.47,5-9.46V156.14a102,102,0,0,0-12-9.62,26.76,26.76,0,0,0-15.48-4.47,21.92,21.92,0,0,0-11.17,3.09q-5.34,3.09-9.28,11.69t-6.37,23.9Q570.22,196,570.22,220.79Z"/><path class="cls-1" d="M744.89,157.18q-4.47,0-10,3.26a57.13,57.13,0,0,0-11,8.77,24.92,24.92,0,0,1,3.62-12.72,41.93,41.93,0,0,1,9.62-11.18,47.13,47.13,0,0,1,14.1-7.91,49.82,49.82,0,0,1,17-2.92,52.18,52.18,0,0,1,14.44,2.07,38.62,38.62,0,0,1,12.9,6.36,32.4,32.4,0,0,1,9.11,10.83,32.06,32.06,0,0,1,3.44,15.13V273.74q0,7.56.34,13.24a21.7,21.7,0,0,0,2.23,9.11,11.69,11.69,0,0,0,6.19,5.16q4.3,1.72,11.87,1.72v5.15H732.51V303q7.9,0,12-1.72a11.72,11.72,0,0,0,6-5.16A21.69,21.69,0,0,0,752.8,287q.33-5.69.34-13.24V168.87c0-4.35-.8-7.4-2.41-9.12A7.71,7.71,0,0,0,744.89,157.18Zm6.53-62.24a26.76,26.76,0,0,1,2.41-11.17,30.62,30.62,0,0,1,15.64-15.65,27.11,27.11,0,0,1,22.35,0,30.59,30.59,0,0,1,15.65,15.65,27.11,27.11,0,0,1,0,22.35,30.62,30.62,0,0,1-15.65,15.64,27.11,27.11,0,0,1-22.35,0,30.65,30.65,0,0,1-15.64-15.64A26.77,26.77,0,0,1,751.42,94.94Z"/><path class="cls-1" d="M945.35,313.28q-23,0-41.09-6.88a85.19,85.19,0,0,1-30.43-19.25,81,81,0,0,1-18.74-29.57,108,108,0,0,1-6.36-37.82q0-20.64,6.19-37a73.5,73.5,0,0,1,18.39-27.85,82.68,82.68,0,0,1,29.92-17.71q17.7-6.18,40.4-6.19a115.57,115.57,0,0,1,22.69,2.58,92.25,92.25,0,0,1,24.07,8.43,58.42,58.42,0,0,1,19.08,15.47q7.74,9.63,7.74,23.72,0,11.7-5.67,20.12a45.94,45.94,0,0,1-15,13.93,82.34,82.34,0,0,1-21,8.59,184.16,184.16,0,0,1-23.9,4.64q-12.21,1.56-23.9,1.9t-20.63.34a327.71,327.71,0,0,0,2.24,37q1.88,14.28,6,22t11,10.48a44.24,44.24,0,0,0,16.5,2.76,108.61,108.61,0,0,0,37-6.88,87.93,87.93,0,0,0,32.84-20.63,24.43,24.43,0,0,1-4.3,13.24,41.93,41.93,0,0,1-12.72,12.2,74,74,0,0,1-21,8.94Q962.2,313.27,945.35,313.28Zm-38.17-91.12q10.32-.67,19.94-2.23a46.92,46.92,0,0,0,17-6A32.66,32.66,0,0,0,956,201.19q4.46-8.25,4.47-22a76.76,76.76,0,0,0-1.38-14.44A45,45,0,0,0,954.8,152a27.1,27.1,0,0,0-7.39-8.94,17,17,0,0,0-10.66-3.44,19,19,0,0,0-11.52,4q-5.33,4-9.28,13.59t-6.36,25.44Q907.18,198.45,907.18,222.16Z"/><path class="cls-1" d="M1100.08,259q0,10-5.85,20.63c-.46.92-.92,1.89-1.37,2.93a8.61,8.61,0,0,0-.69,3.61,10.28,10.28,0,0,0,3.09,7.56,22.89,22.89,0,0,0,7.91,5,48.55,48.55,0,0,0,10.32,2.75,67.25,67.25,0,0,0,10.31.86q12,0,20.63-5.16t8.6-18.22a26.5,26.5,0,0,0-1.89-10.32,25.66,25.66,0,0,0-6.36-8.6,70,70,0,0,0-11.35-8.25q-6.89-4.12-16.85-9.28a343.9,343.9,0,0,1-30.43-17.19,119.93,119.93,0,0,1-19.43-15.13,48,48,0,0,1-10.31-14.27,36.84,36.84,0,0,1-3.1-15,40.09,40.09,0,0,1,5.16-20.11A48.39,48.39,0,0,1,1073.26,145a73.08,73.08,0,0,1,23.21-10.32A118.75,118.75,0,0,1,1126.9,131a133.74,133.74,0,0,1,29,3.1,83.36,83.36,0,0,1,24.41,9.28,51.38,51.38,0,0,1,16.68,15.3,36.16,36.16,0,0,1,6.19,20.81q0,12.38-6.88,20.11t-18.22,7.74a26.56,26.56,0,0,1-18.57-6.88q-7.56-6.87-7.56-18.91a33.63,33.63,0,0,1,2.23-12.72,56.57,56.57,0,0,1,4-8.26q2.74-5.49,2.75-6.87,0-3.44-6.88-8.6T1136.52,140a27.65,27.65,0,0,0-18.74,6.71,21.55,21.55,0,0,0-7.73,17,23.66,23.66,0,0,0,3.44,12.55,43.08,43.08,0,0,0,8.25,10,61.54,61.54,0,0,0,10.14,7.39q5.32,3.1,9.11,5.16a349.52,349.52,0,0,1,33.7,19.43,156.13,156.13,0,0,1,20.63,16q7.56,7.22,10.49,13.75a32.68,32.68,0,0,1,2.92,13.41,36.61,36.61,0,0,1-6.53,21,56.64,56.64,0,0,1-17.88,16.51,95.3,95.3,0,0,1-26.48,10.66,133,133,0,0,1-32.32,3.78,141.06,141.06,0,0,1-27.33-2.75,93.85,93.85,0,0,1-25.45-8.77A53.67,53.67,0,0,1,1054,285.94q-7.21-9.79-7.22-23.89,0-13.76,7.22-22.18t20.29-8.42q13.07,0,19.42,7.9T1100.08,259Z"/><path class="cls-1" d="M257.85,371.06a145.34,145.34,0,0,1,26.82,2.58,79.38,79.38,0,0,1,25.1,9.11A55.65,55.65,0,0,1,328.33,400q7.23,10.67,7.23,27.16a29.84,29.84,0,0,1-9.46,22q-9.47,9.28-24.58,9.28t-23.73-10.83q-8.6-10.83-8.6-33.18a47,47,0,0,1,.86-8.43c.57-3.09,1.21-6,1.89-8.76a71.79,71.79,0,0,1,2.24-7.4q1.2-3.26,1.89-4.64a2.31,2.31,0,0,0,.69-1.72c0-1.37-1.44-2.35-4.3-2.92a44.89,44.89,0,0,0-8.77-.86,42.71,42.71,0,0,0-21.14,5.67Q232.4,391,224.5,404.59T212,440.52q-4.65,22.35-4.65,56.05,0,33.34,4.82,55.87t13.06,36.1q8.25,13.59,19.43,19.26a51.36,51.36,0,0,0,23.55,5.67,61.45,61.45,0,0,0,25.1-5.16,99.24,99.24,0,0,0,20.81-12.2,91.78,91.78,0,0,0,15.12-14.44,71.35,71.35,0,0,0,8.09-11.52,38.51,38.51,0,0,1-5.16,18.91,55.37,55.37,0,0,1-14.62,16.68,75.16,75.16,0,0,1-23,11.86A97.35,97.35,0,0,1,264,622.07q-27.17,0-48.83-8.25a97.94,97.94,0,0,1-36.79-24.24q-15.13-16-23.21-39.37t-8.08-53.64q0-30.26,7.91-53.64t22.52-39.37a95,95,0,0,1,35.07-24.24Q233.09,371.06,257.85,371.06Z"/><path class="cls-1" d="M364.77,573.93q0-17.53,10-27.68a61.84,61.84,0,0,1,24.58-15.13,124.41,124.41,0,0,1,31.12-6.19q16.5-1.2,29.57-1.2h7.74q3.6,0,7-.34v-10q0-20.28-2.58-33.18t-7.39-20.45A25.88,25.88,0,0,0,453,449.29a41.4,41.4,0,0,0-16-2.92,39.58,39.58,0,0,0-12.38,1.71,50.74,50.74,0,0,1,5.68,14.45,60.49,60.49,0,0,1,1.54,12.37q0,13.41-7.56,20.81a25.55,25.55,0,0,1-18.57,7.39q-11.34,0-18.39-7.05T380.25,478a30,30,0,0,1,3.61-14.1A35,35,0,0,1,395,451.69q7.56-5.32,19.43-8.59t28.37-3.27q21,0,37.13,5.5a80.14,80.14,0,0,1,27.34,15.3,63.66,63.66,0,0,1,16.85,23.21,75.19,75.19,0,0,1,5.67,29.57v68.77q0,6.54,2.41,10.32a7.4,7.4,0,0,0,6.53,3.78c2.52,0,5.55-1.08,9.11-3.27a59.31,59.31,0,0,0,10.83-8.76A25.93,25.93,0,0,1,555.26,597,38.48,38.48,0,0,1,546,608a49.06,49.06,0,0,1-13.24,7.74,41.43,41.43,0,0,1-15.3,2.92,36.47,36.47,0,0,1-23.38-7.91A42.51,42.51,0,0,1,480,590.78a59.81,59.81,0,0,1-20.46,22.86,52.49,52.49,0,0,1-29.4,8.43q-32.33,0-48.82-13.24T364.77,573.93Zm78.4,35.42A22.07,22.07,0,0,0,454,606.6a37.56,37.56,0,0,0,8.94-6.88,55.28,55.28,0,0,0,6.88-8.77c1.94-3.09,3.61-6,5-8.77V532.33q-7.91,0-15.13.34t-9.62.69q-12.37,1.73-19.6,14.1t-7.22,30.94q0,18.23,6.19,24.59T443.17,609.35Z"/><path class="cls-1" d="M560.08,409.23a24.91,24.91,0,0,1,3.61-12.72,42,42,0,0,1,9.63-11.18,46.62,46.62,0,0,1,14.09-7.9,49.63,49.63,0,0,1,17-2.93,52.25,52.25,0,0,1,14.45,2.07,38.57,38.57,0,0,1,12.89,6.36,31.48,31.48,0,0,1,12.55,26V528.2l60.86-64.64Q709,459.44,709,456q0-4.12-6-5a84.18,84.18,0,0,0-11.86-.86V445h55v5.16q-10,0-16.34,3.78a54.39,54.39,0,0,0-11.86,9.63l-35.07,37.82,52.26,82.18q7.56,11.34,14.45,11.34a14.46,14.46,0,0,0,8.42-3.09,72.23,72.23,0,0,0,8.77-7.56,26.16,26.16,0,0,1-3.79,13.58,36.87,36.87,0,0,1-10.14,11A49.53,49.53,0,0,1,738,616.05a60.16,60.16,0,0,1-17.71,2.58q-15.13,0-25.45-7.57t-20.28-23.38l-30.26-47.79v42.64q0,7.56.34,13.23a21.7,21.7,0,0,0,2.24,9.12,11.63,11.63,0,0,0,6.19,5.15q4.29,1.72,11.86,1.72v5.16H568.67v-5.16q7.91,0,12-1.72a11.73,11.73,0,0,0,6-5.15,21.86,21.86,0,0,0,2.23-9.12q.35-5.67.35-13.23V408.89c0-4.35-.81-7.4-2.41-9.11a7.72,7.72,0,0,0-5.85-2.58q-4.47,0-10,3.26A56.79,56.79,0,0,0,560.08,409.23Z"/><path class="cls-1" d="M876.07,622.07q-23,0-41.09-6.88a85.19,85.19,0,0,1-30.43-19.25,80.92,80.92,0,0,1-18.74-29.57,108,108,0,0,1-6.36-37.83q0-20.62,6.19-37A73.5,73.5,0,0,1,804,463.73,82.68,82.68,0,0,1,834,446q17.7-6.19,40.4-6.19A115.57,115.57,0,0,1,897,442.41a92.38,92.38,0,0,1,24.07,8.43,58.52,58.52,0,0,1,19.08,15.47q7.74,9.63,7.74,23.72,0,11.7-5.67,20.12a45.91,45.91,0,0,1-15,13.92,82.07,82.07,0,0,1-21,8.6,183.69,183.69,0,0,1-23.89,4.64q-12.21,1.55-23.9,1.89t-20.63.35a328.22,328.22,0,0,0,2.23,37q1.89,14.26,6,22t11,10.49a44.34,44.34,0,0,0,16.51,2.75,108.83,108.83,0,0,0,37-6.87,88,88,0,0,0,32.84-20.63,24.48,24.48,0,0,1-4.3,13.23,42.07,42.07,0,0,1-12.72,12.21,74,74,0,0,1-21,8.94Q892.91,622.06,876.07,622.07ZM837.9,531q10.32-.69,19.94-2.23a47.1,47.1,0,0,0,17-6A32.73,32.73,0,0,0,886.73,510q4.46-8.26,4.47-22a77.6,77.6,0,0,0-1.38-14.44,45,45,0,0,0-4.3-12.72,27.1,27.1,0,0,0-7.39-8.94,17,17,0,0,0-10.66-3.44A19,19,0,0,0,856,452.38q-5.33,4-9.28,13.58t-6.36,25.45Q837.9,507.22,837.9,531Z"/><path class="cls-1" d="M1030.79,567.74q0,10-5.84,20.63c-.46.92-.92,1.89-1.38,2.93a8.76,8.76,0,0,0-.68,3.6,10.29,10.29,0,0,0,3.09,7.57,22.8,22.8,0,0,0,7.91,5,48.62,48.62,0,0,0,10.31,2.75,67.41,67.41,0,0,0,10.32.85q12,0,20.63-5.15t8.6-18.23a26.48,26.48,0,0,0-1.89-10.31,25.47,25.47,0,0,0-6.37-8.6,69.49,69.49,0,0,0-11.34-8.25q-6.89-4.12-16.85-9.28a343.9,343.9,0,0,1-30.43-17.19,120.49,120.49,0,0,1-19.43-15.13,48,48,0,0,1-10.31-14.27,36.68,36.68,0,0,1-3.1-15,40.16,40.16,0,0,1,5.16-20.12A48.36,48.36,0,0,1,1004,453.76a73.12,73.12,0,0,1,23.2-10.32,118.86,118.86,0,0,1,30.43-3.61,133.21,133.21,0,0,1,29.06,3.1,83.09,83.09,0,0,1,24.41,9.28,51.38,51.38,0,0,1,16.68,15.3,36.21,36.21,0,0,1,6.19,20.8q0,12.39-6.88,20.12t-18.22,7.74a26.56,26.56,0,0,1-18.57-6.88q-7.58-6.87-7.57-18.91a33.55,33.55,0,0,1,2.24-12.72,56.72,56.72,0,0,1,4-8.26c1.84-3.66,2.75-5.95,2.75-6.87q0-3.43-6.87-8.6t-17.54-5.16a27.63,27.63,0,0,0-18.74,6.71,21.52,21.52,0,0,0-7.73,17,23.77,23.77,0,0,0,3.43,12.55,43.33,43.33,0,0,0,8.26,10,60.71,60.71,0,0,0,10.14,7.39q5.33,3.09,9.11,5.16a350.75,350.75,0,0,1,33.7,19.43A157.71,157.71,0,0,1,1126,543q7.56,7.23,10.49,13.76a32.68,32.68,0,0,1,2.92,13.41,36.61,36.61,0,0,1-6.53,21A56.76,56.76,0,0,1,1115,607.63a95.73,95.73,0,0,1-26.48,10.66,133,133,0,0,1-32.32,3.78,141.24,141.24,0,0,1-27.34-2.75,94.24,94.24,0,0,1-25.44-8.77,53.67,53.67,0,0,1-18.74-15.82q-7.22-9.79-7.22-23.89,0-13.76,7.22-22.18t20.29-8.43q13.05,0,19.42,7.91T1030.79,567.74Z"/><path d="M239.29,769.4H228.1v24.29h-7.59V735.51h18.78c13.69,0,20.12,7.52,20.12,17C259.41,761.39,253.73,769.4,239.29,769.4Zm0-6.26c8.68,0,12.35-4.09,12.35-10.6,0-6.76-3.67-10.77-12.35-10.77H228.1v21.37Z"/><path d="M311.57,780.76H286.2l-4.68,12.93h-8l21-57.84h8.77l20.95,57.84h-8ZM298.88,745.2l-10.51,29.38h21Z"/><path d="M360.23,794.28c-11.69,0-20-6.51-20.12-16.11h8.1c.5,4.84,3.92,9.68,12,9.68,7.34,0,11.68-4.17,11.68-9.68,0-15.7-31.46-5.68-31.46-27.3,0-9.6,7.76-16.11,19.28-16.11,11.1,0,18.36,6.1,19.28,14.94h-8.35c-.5-3.92-4.17-8.34-11.27-8.43-6.26-.16-11.18,3.09-11.18,9.35,0,15,31.38,5.68,31.38,27.21C379.59,786.1,372.83,794.28,360.23,794.28Z"/><path d="M395.53,735.51h39.4v6.18H419.07v52h-7.6v-52H395.53Z"/><path d="M471.4,735.51c13.69,0,20.2,7.6,20.2,17.12,0,7.42-4.09,14.52-13.86,16.69l14.61,24.37h-9.1L469.4,769.9h-9.18v23.79h-7.6V735.51Zm0,6.26H460.22v22H471.4c8.6,0,12.35-4.67,12.35-11.18S480.08,741.77,471.4,741.77Z"/><path d="M506.87,735.51h8.43L529.66,765,544,735.51h8.43L533.5,771.74v22h-7.6v-22Z"/><path d="M621.13,793.69h-21.7V735.51H620.3c12.27,0,18.45,6.68,18.45,14.78,0,7.34-4.6,11.6-10.19,13.44,6.35,1.08,11.52,7.18,11.52,14.35C640.08,786.85,633.15,793.69,621.13,793.69Zm-1.5-51.92H607v18.87H619.8c7.09,0,11.18-3.51,11.18-9.43C631,745.45,627.06,741.77,619.63,741.77Zm.58,25.13H607v20.53h13.44c7.51,0,12-3.75,12-10.1S627.64,766.9,620.21,766.9Z"/><path d="M685.32,794.28c-16.36,0-29.22-12.27-29.22-29.72s12.86-29.72,29.22-29.72,29.21,12.28,29.21,29.72S701.76,794.28,685.32,794.28Zm0-6.6c12.27,0,21.45-8.93,21.45-23.12s-9.18-23.12-21.45-23.12-21.46,8.85-21.46,23.12S673.05,787.68,685.32,787.68Z"/><path d="M732.72,735.51h7.6v36.81c0,10.69,5.76,15.28,14.36,15.28S769,783,769,772.32V735.51h7.59v36.73c0,15.11-9.93,22-21.95,22s-21.87-6.93-21.87-22Z"/><path d="M794,735.51h39.4v6.18H817.52v52h-7.59v-52H794Z"/><path d="M851.07,735.51h7.6v58.18h-7.6Z"/><path d="M921.77,790.1l14.69,14.61h-9.85L915,793.11a33.12,33.12,0,0,1-8.68,1.17c-16.36,0-29.22-12.27-29.22-29.72s12.86-29.72,29.22-29.72,29.21,12.28,29.21,29.72C935.54,775.91,930.12,785.1,921.77,790.1Zm-15.44-2.42c12.27,0,21.45-8.93,21.45-23.12s-9.18-23.12-21.45-23.12-21.46,8.85-21.46,23.12S894.06,787.68,906.33,787.68Z"/><path d="M953.9,735.51h7.59v36.81c0,10.69,5.76,15.28,14.36,15.28s14.27-4.59,14.27-15.28V735.51h7.6v36.73c0,15.11-9.93,22-22,22s-21.87-6.93-21.87-22Z"/><path d="M1050.05,741.69h-23.71v19.45h21.21v6.26h-21.21v20h23.71v6.26h-31.3V735.43h31.3Z"/></svg>