<svg id="Layer_1" data-name="Layer 1" xmlns="http://www.w3.org/2000/svg" viewBox="0 0 1286.23 2040"><path d="M74.47,1459q7.92,0,12-1.55a10.79,10.79,0,0,0,6-5.16,22.79,22.79,0,0,0,2.23-9.11q.34-5.49.35-13.41V1257.8q0-7.9-.35-13.41a21.5,21.5,0,0,0-2.23-8.94,11.79,11.79,0,0,0-6-5.16q-4.12-1.71-12-1.72v-5.15h98v5.15q-7.56,0-11.86,1.72a11.69,11.69,0,0,0-6.19,5.16,21.34,21.34,0,0,0-2.24,8.94q-.35,5.5-.34,13.41v197.71h73.93q8.25,0,12.89-4.13a23.26,23.26,0,0,0,6.7-10.66,57.24,57.24,0,0,0,2.41-15q.34-8.43.35-16.68h10.31v55h-184Z"/><path d="M291.43,1421.12q0-17.53,10-27.67A61.73,61.73,0,0,1,326,1378.32a124,124,0,0,1,31.12-6.19q16.5-1.2,29.57-1.21h7.74q3.6,0,7-.34v-10q0-20.28-2.58-33.18T391.49,1307a25.88,25.88,0,0,0-11.86-10.49,41.59,41.59,0,0,0-16-2.92,39.27,39.27,0,0,0-12.38,1.72,50.4,50.4,0,0,1,5.68,14.44,60.5,60.5,0,0,1,1.54,12.38q0,13.41-7.56,20.8a25.55,25.55,0,0,1-18.57,7.39q-11.34,0-18.39-7t-7-18a29.92,29.92,0,0,1,3.61-14.09,35,35,0,0,1,11.17-12.21q7.56-5.33,19.43-8.6t28.37-3.26q21,0,37.13,5.5a80.14,80.14,0,0,1,27.34,15.3A63.57,63.57,0,0,1,450.81,1331a75.19,75.19,0,0,1,5.67,29.57v68.77q0,6.52,2.41,10.31a7.38,7.38,0,0,0,6.53,3.78q3.78,0,9.11-3.26a59.82,59.82,0,0,0,10.83-8.77,25.88,25.88,0,0,1-3.44,12.72,38.21,38.21,0,0,1-9.28,11,48.55,48.55,0,0,1-13.24,7.74,41.23,41.23,0,0,1-15.3,2.92,36.52,36.52,0,0,1-23.38-7.9,42.58,42.58,0,0,1-14.1-20,59.91,59.91,0,0,1-20.46,22.87,52.57,52.57,0,0,1-29.4,8.42q-32.31,0-48.82-13.24T291.43,1421.12Zm78.4,35.42a22,22,0,0,0,10.83-2.75,37.3,37.3,0,0,0,8.94-6.88,55.28,55.28,0,0,0,6.88-8.77c1.94-3.09,3.61-6,5-8.76v-49.86q-7.9,0-15.13.34c-4.81.23-8,.47-9.62.69q-12.37,1.73-19.6,14.1t-7.22,30.94q0,18.24,6.19,24.59T369.83,1456.54Z"/><path d="M508.73,1378.14q0-22.7,5.51-39.71t15.3-28.37a64,64,0,0,1,23.38-17.19,74.51,74.51,0,0,1,29.74-5.84,68.24,68.24,0,0,1,17.88,2.06,62.31,62.31,0,0,1,12.72,4.81,49.92,49.92,0,0,1,5.33,3.1c1.72,1.15,3.49,2.4,5.33,3.78v-44.7q0-6.52-2.41-9.11a7.68,7.68,0,0,0-5.84-2.58q-4.47,0-10,3.27a57.06,57.06,0,0,0-11,8.76,25,25,0,0,1,3.62-12.72,41.89,41.89,0,0,1,9.62-11.17,46.91,46.91,0,0,1,14.1-7.91,49.58,49.58,0,0,1,17-2.92,52.16,52.16,0,0,1,14.44,2.06,38.81,38.81,0,0,1,12.9,6.36,31.48,31.48,0,0,1,12.55,26v173.64q0,6.54,2.57,10a7.69,7.69,0,0,0,6.36,3.44q3.78,0,9.29-3.27a56.55,56.55,0,0,0,11-8.76,25.93,25.93,0,0,1-3.44,12.72,42,42,0,0,1-9.11,11.17,44.56,44.56,0,0,1-12.89,7.91,39.1,39.1,0,0,1-14.79,2.92,32.57,32.57,0,0,1-13.41-2.75,44.64,44.64,0,0,1-11-6.87,45.31,45.31,0,0,1-8.08-8.94,51.65,51.65,0,0,1-5-8.94,1,1,0,0,1-.34-.69,1,1,0,0,0-.34-.69q-7.57,15.48-20.81,23.9t-31.11,8.42a63.2,63.2,0,0,1-27-5.84,61.56,61.56,0,0,1-21.84-17.2q-9.28-11.34-14.78-28.36T508.73,1378.14Zm58.46-1.37q0,25.1,2.4,40.74t6.19,24.42q3.78,8.76,8.6,11.86a18.21,18.21,0,0,0,10,3.09,19.6,19.6,0,0,0,10-2.58,33.27,33.27,0,0,0,8.08-6.53,52.26,52.26,0,0,0,6.54-8.94c1.94-3.32,3.61-6.47,5-9.45V1312.13a101.08,101.08,0,0,0-12-9.63,26.76,26.76,0,0,0-15.48-4.47,21.92,21.92,0,0,0-11.17,3.09q-5.34,3.11-9.28,11.69t-6.37,23.9Q567.19,1352,567.19,1376.77Z"/><path d="M741.86,1313.16q-4.47,0-10,3.26a57.52,57.52,0,0,0-11,8.77,25,25,0,0,1,3.62-12.72,41.74,41.74,0,0,1,9.62-11.17,46.91,46.91,0,0,1,14.1-7.91,49.58,49.58,0,0,1,17-2.92,52.16,52.16,0,0,1,14.44,2.06,38.81,38.81,0,0,1,12.9,6.36,32.4,32.4,0,0,1,9.11,10.83,32.06,32.06,0,0,1,3.44,15.13v104.87q0,7.58.34,13.24a21.7,21.7,0,0,0,2.23,9.11,11.69,11.69,0,0,0,6.19,5.16q4.3,1.73,11.87,1.72v5.15H729.48V1459q7.9,0,12-1.72a11.75,11.75,0,0,0,6-5.16,21.69,21.69,0,0,0,2.24-9.11q.33-5.67.34-13.24V1324.85q0-6.52-2.41-9.11A7.68,7.68,0,0,0,741.86,1313.16Zm6.53-62.24a26.76,26.76,0,0,1,2.41-11.17,30.62,30.62,0,0,1,15.64-15.65,27.22,27.22,0,0,1,22.35,0,30.59,30.59,0,0,1,15.65,15.65,27.22,27.22,0,0,1,0,22.35,30.62,30.62,0,0,1-15.65,15.64,27.11,27.11,0,0,1-22.35,0,30.65,30.65,0,0,1-15.64-15.64A26.77,26.77,0,0,1,748.39,1250.92Z"/><path d="M942.32,1469.26q-23,0-41.09-6.87a85.35,85.35,0,0,1-30.43-19.26,81,81,0,0,1-18.74-29.57,108,108,0,0,1-6.36-37.82q0-20.64,6.19-37a73.57,73.57,0,0,1,18.39-27.85,82.67,82.67,0,0,1,29.92-17.7q17.7-6.2,40.4-6.19a115.57,115.57,0,0,1,22.69,2.58,91.86,91.86,0,0,1,24.07,8.42,58.54,58.54,0,0,1,19.08,15.47q7.74,9.63,7.74,23.73,0,11.68-5.67,20.11a46,46,0,0,1-15,13.93,82,82,0,0,1-21,8.59,184.18,184.18,0,0,1-23.9,4.65q-12.21,1.54-23.9,1.89t-20.63.34a327.71,327.71,0,0,0,2.24,37q1.88,14.28,6,22t11,10.49a44.45,44.45,0,0,0,16.5,2.75,108.61,108.61,0,0,0,37-6.88,87.81,87.81,0,0,0,32.84-20.63,24.4,24.4,0,0,1-4.3,13.24,42,42,0,0,1-12.72,12.2,73.75,73.75,0,0,1-21,8.94Q959.15,1469.26,942.32,1469.26Zm-38.17-91.12q10.32-.67,19.94-2.23a46.92,46.92,0,0,0,17-6A32.59,32.59,0,0,0,953,1357.17q4.46-8.25,4.47-22a77.68,77.68,0,0,0-1.38-14.44,45,45,0,0,0-4.3-12.72,27.2,27.2,0,0,0-7.39-8.94,17,17,0,0,0-10.66-3.44,18.92,18.92,0,0,0-11.52,4q-5.33,3.95-9.28,13.58t-6.36,25.44Q904.15,1354.43,904.15,1378.14Z"/><path d="M1097.05,1414.94q0,10-5.85,20.63c-.46.91-.92,1.89-1.38,2.92a8.78,8.78,0,0,0-.68,3.61,10.28,10.28,0,0,0,3.09,7.56,22.75,22.75,0,0,0,7.91,5,48.55,48.55,0,0,0,10.32,2.75,67.25,67.25,0,0,0,10.31.86q12,0,20.63-5.16t8.6-18.22a26.5,26.5,0,0,0-1.89-10.32,25.63,25.63,0,0,0-6.36-8.59,70.05,70.05,0,0,0-11.35-8.26q-6.89-4.12-16.85-9.28a343.9,343.9,0,0,1-30.43-17.19,119.93,119.93,0,0,1-19.43-15.13,47.89,47.89,0,0,1-10.31-14.27,36.81,36.81,0,0,1-3.1-15,40.09,40.09,0,0,1,5.16-20.11,48.39,48.39,0,0,1,14.79-15.82,72.85,72.85,0,0,1,23.21-10.31,118.28,118.28,0,0,1,30.42-3.61,133.76,133.76,0,0,1,29.06,3.09,83.36,83.36,0,0,1,24.41,9.28,51.29,51.29,0,0,1,16.68,15.31,36.11,36.11,0,0,1,6.19,20.8q0,12.38-6.88,20.11t-18.22,7.74a26.56,26.56,0,0,1-18.57-6.88q-7.58-6.87-7.56-18.91a33.63,33.63,0,0,1,2.23-12.72,56,56,0,0,1,4-8.25q2.76-5.5,2.76-6.88,0-3.43-6.88-8.6t-17.54-5.15a27.63,27.63,0,0,0-18.74,6.7,21.55,21.55,0,0,0-7.73,17,23.66,23.66,0,0,0,3.44,12.55,43.08,43.08,0,0,0,8.25,10,62.19,62.19,0,0,0,10.14,7.4q5.33,3.09,9.11,5.15a351.64,351.64,0,0,1,33.7,19.43,157,157,0,0,1,20.63,16q7.56,7.21,10.49,13.75a32.68,32.68,0,0,1,2.92,13.41,36.64,36.64,0,0,1-6.53,21,56.61,56.61,0,0,1-17.88,16.5,95.3,95.3,0,0,1-26.48,10.66,133,133,0,0,1-32.32,3.78,141.06,141.06,0,0,1-27.33-2.75,93.85,93.85,0,0,1-25.45-8.77,53.64,53.64,0,0,1-18.74-15.81q-7.21-9.81-7.22-23.9,0-13.76,7.22-22.18t20.29-8.42q13.07,0,19.42,7.91T1097.05,1414.94Z"/><path d="M254.82,1527.05a146.18,146.18,0,0,1,26.82,2.57,79.15,79.15,0,0,1,25.1,9.12,55.62,55.62,0,0,1,18.56,17.19q7.23,10.66,7.23,27.16a29.82,29.82,0,0,1-9.46,22q-9.46,9.29-24.58,9.28t-23.73-10.83q-8.6-10.83-8.6-33.18A46.85,46.85,0,0,1,267,1562c.57-3.1,1.21-6,1.89-8.77a70.82,70.82,0,0,1,2.24-7.39q1.2-3.27,1.89-4.65a2.31,2.31,0,0,0,.69-1.72c0-1.37-1.44-2.34-4.3-2.92a44.89,44.89,0,0,0-8.77-.86,42.62,42.62,0,0,0-21.14,5.68q-10.16,5.67-18.06,19.25t-12.55,35.93q-4.64,22.37-4.64,56,0,33.35,4.82,55.87t13.06,36.11q8.25,13.58,19.43,19.25a51.36,51.36,0,0,0,23.55,5.67,61.6,61.6,0,0,0,25.1-5.15A99.7,99.7,0,0,0,311,1752.09a91.78,91.78,0,0,0,15.12-14.44q6-7.39,8.08-11.52a38.49,38.49,0,0,1-5.15,18.91,55.37,55.37,0,0,1-14.62,16.68,75.16,75.16,0,0,1-23,11.86,97.06,97.06,0,0,1-30.43,4.47q-27.16,0-48.83-8.25a97.7,97.7,0,0,1-36.79-24.24q-15.13-16-23.21-39.37t-8.08-53.64q0-30.25,7.91-53.64t22.52-39.37a95,95,0,0,1,35.07-24.24Q230.06,1527.05,254.82,1527.05Z"/><path d="M361.74,1729.91q0-17.54,10-27.68a61.84,61.84,0,0,1,24.58-15.13,124.32,124.32,0,0,1,31.12-6.19q16.5-1.2,29.57-1.2h7.73a70.54,70.54,0,0,0,7-.34v-10q0-20.3-2.58-33.18t-7.39-20.46a25.93,25.93,0,0,0-11.86-10.49,41.4,41.4,0,0,0-16-2.92,39.27,39.27,0,0,0-12.38,1.72,50.57,50.57,0,0,1,5.68,14.44,60.5,60.5,0,0,1,1.54,12.38q0,13.41-7.56,20.8a25.56,25.56,0,0,1-18.57,7.39q-11.34,0-18.39-7t-7-18a30,30,0,0,1,3.61-14.1,34.93,34.93,0,0,1,11.17-12.2q7.56-5.33,19.43-8.6t28.37-3.27q21,0,37.13,5.51a80,80,0,0,1,27.34,15.3,63.43,63.43,0,0,1,16.84,23.21,75,75,0,0,1,5.68,29.57v68.76q0,6.54,2.4,10.32a7.42,7.42,0,0,0,6.54,3.78c2.52,0,5.55-1.08,9.11-3.27a59.31,59.31,0,0,0,10.83-8.76,25.93,25.93,0,0,1-3.44,12.72,38.21,38.21,0,0,1-9.28,11,48.81,48.81,0,0,1-13.24,7.74,41.43,41.43,0,0,1-15.3,2.92A36.45,36.45,0,0,1,491,1766.7a42.51,42.51,0,0,1-14.1-19.94,59.91,59.91,0,0,1-20.46,22.87,52.57,52.57,0,0,1-29.4,8.42q-32.32,0-48.82-13.24T361.74,1729.91Zm78.4,35.42a22.1,22.1,0,0,0,10.83-2.75,37.3,37.3,0,0,0,8.94-6.88,55.28,55.28,0,0,0,6.88-8.77c1.94-3.09,3.61-6,5-8.77v-49.85q-7.9,0-15.13.34t-9.62.69q-12.39,1.73-19.6,14.1t-7.22,30.94q0,18.22,6.19,24.59T440.14,1765.33Z"/><path d="M557.05,1565.21a24.93,24.93,0,0,1,3.61-12.72,41.78,41.78,0,0,1,9.63-11.17,46.86,46.86,0,0,1,14.09-7.91,49.63,49.63,0,0,1,17-2.93,52.25,52.25,0,0,1,14.45,2.07,38.57,38.57,0,0,1,12.89,6.36,31.48,31.48,0,0,1,12.55,26v119.31l60.86-64.64q3.78-4.12,3.78-7.57,0-4.12-6-5a84.18,84.18,0,0,0-11.86-.86V1601h55v5.16q-10,0-16.34,3.78a54.68,54.68,0,0,0-11.86,9.63l-35.07,37.82,52.26,82.18q7.56,11.34,14.44,11.35a14.5,14.5,0,0,0,8.43-3.1,72.23,72.23,0,0,0,8.77-7.56,26.16,26.16,0,0,1-3.79,13.58,36.87,36.87,0,0,1-10.14,11A49.29,49.29,0,0,1,735,1772a60.16,60.16,0,0,1-17.71,2.58q-15.13,0-25.45-7.56t-20.28-23.38l-30.26-47.8v42.64q0,7.56.34,13.24a21.69,21.69,0,0,0,2.24,9.11,11.69,11.69,0,0,0,6.19,5.16c2.86,1.15,6.81,1.71,11.86,1.71v5.16H565.64v-5.16c5.27,0,9.29-.56,12-1.71a11.79,11.79,0,0,0,6-5.16,21.85,21.85,0,0,0,2.23-9.11q.35-5.68.34-13.24V1564.87q0-6.52-2.4-9.11a7.72,7.72,0,0,0-5.85-2.58q-4.47,0-10,3.26A57.17,57.17,0,0,0,557.05,1565.21Z"/><path d="M873,1778.05q-23,0-41.09-6.88a85.19,85.19,0,0,1-30.43-19.25,80.83,80.83,0,0,1-18.74-29.57,108,108,0,0,1-6.36-37.82q0-20.64,6.19-37A73.5,73.5,0,0,1,801,1619.71,82.6,82.6,0,0,1,830.92,1602q17.7-6.18,40.4-6.19a115.57,115.57,0,0,1,22.69,2.58,92.38,92.38,0,0,1,24.07,8.43,58.62,58.62,0,0,1,19.08,15.47q7.74,9.63,7.74,23.72,0,11.7-5.67,20.12a45.91,45.91,0,0,1-15,13.92,82.07,82.07,0,0,1-21,8.6,183.69,183.69,0,0,1-23.89,4.64q-12.21,1.56-23.9,1.89t-20.63.35a328.06,328.06,0,0,0,2.23,37q1.89,14.28,6,22t11,10.48a44.34,44.34,0,0,0,16.51,2.75,108.59,108.59,0,0,0,37-6.87,88,88,0,0,0,32.84-20.63,24.54,24.54,0,0,1-4.3,13.24,42,42,0,0,1-12.72,12.2,74,74,0,0,1-21,8.94Q889.88,1778,873,1778.05Zm-38.17-91.12q10.32-.67,19.94-2.23a46.92,46.92,0,0,0,17-6A32.73,32.73,0,0,0,883.7,1666q4.45-8.25,4.46-22a77.58,77.58,0,0,0-1.37-14.44,45,45,0,0,0-4.3-12.72,27.22,27.22,0,0,0-7.39-8.94,17,17,0,0,0-10.66-3.44,19,19,0,0,0-11.52,3.95q-5.34,4-9.28,13.59t-6.36,25.44Q834.87,1663.22,834.87,1686.93Z"/><path d="M1027.76,1723.72q0,10-5.84,20.63c-.46.92-.92,1.89-1.38,2.93a8.78,8.78,0,0,0-.68,3.61,10.28,10.28,0,0,0,3.09,7.56,22.8,22.8,0,0,0,7.91,5,48.46,48.46,0,0,0,10.31,2.75,67.48,67.48,0,0,0,10.32.86q12,0,20.63-5.16t8.6-18.22a26.31,26.31,0,0,0-1.9-10.32,25.39,25.39,0,0,0-6.36-8.6,69.49,69.49,0,0,0-11.34-8.25q-6.88-4.12-16.85-9.28a343.9,343.9,0,0,1-30.43-17.19,119.93,119.93,0,0,1-19.43-15.13,48,48,0,0,1-10.31-14.27,36.68,36.68,0,0,1-3.1-15,40.09,40.09,0,0,1,5.16-20.11,48.35,48.35,0,0,1,14.78-15.82,73.28,73.28,0,0,1,23.21-10.32,118.86,118.86,0,0,1,30.43-3.61,133.83,133.83,0,0,1,29.06,3.1,83.36,83.36,0,0,1,24.41,9.28,51.38,51.38,0,0,1,16.68,15.3,36.24,36.24,0,0,1,6.19,20.81q0,12.38-6.88,20.11t-18.22,7.74a26.56,26.56,0,0,1-18.57-6.88q-7.57-6.87-7.57-18.91a33.62,33.62,0,0,1,2.24-12.72,56.72,56.72,0,0,1,3.95-8.26c1.84-3.66,2.75-6,2.75-6.87q0-3.43-6.87-8.6t-17.54-5.16a27.63,27.63,0,0,0-18.74,6.71,21.52,21.52,0,0,0-7.73,17,23.74,23.74,0,0,0,3.43,12.55,43.12,43.12,0,0,0,8.26,10,60.71,60.71,0,0,0,10.14,7.39q5.33,3.1,9.11,5.16a352,352,0,0,1,33.7,19.43,156.8,156.8,0,0,1,20.63,16q7.56,7.21,10.49,13.75a32.68,32.68,0,0,1,2.92,13.41,36.55,36.55,0,0,1-6.54,21,56.5,56.5,0,0,1-17.87,16.51,95.43,95.43,0,0,1-26.48,10.66,133,133,0,0,1-32.32,3.78,141.24,141.24,0,0,1-27.34-2.75,93.9,93.9,0,0,1-25.44-8.77,53.67,53.67,0,0,1-18.74-15.82q-7.22-9.8-7.22-23.89,0-13.75,7.22-22.18t20.29-8.42q13,0,19.42,7.9T1027.76,1723.72Z"/><path d="M236.26,1925.38H225.07v24.3h-7.59V1891.5h18.78c13.69,0,20.12,7.51,20.12,17C256.38,1917.37,250.7,1925.38,236.26,1925.38Zm0-6.26c8.68,0,12.35-4.09,12.35-10.6,0-6.76-3.67-10.76-12.35-10.76H225.07v21.36Z"/><path d="M308.54,1936.74H283.16l-4.67,12.94h-8l21-57.85h8.77l21,57.85h-8Zm-12.69-35.56-10.52,29.38h21Z"/><path d="M357.2,1950.26c-11.69,0-19.95-6.51-20.12-16.11h8.1c.5,4.84,3.92,9.68,12,9.68,7.34,0,11.68-4.17,11.68-9.68,0-15.69-31.47-5.68-31.47-27.3,0-9.6,7.77-16.11,19.29-16.11,11.1,0,18.36,6.1,19.28,15h-8.35c-.5-3.93-4.17-8.35-11.27-8.44-6.26-.16-11.18,3.09-11.18,9.35,0,15,31.38,5.68,31.38,27.22C376.56,1942.08,369.8,1950.26,357.2,1950.26Z"/><path d="M392.5,1891.5h39.4v6.17H416v52h-7.6v-52H392.5Z"/><path d="M468.37,1891.5c13.69,0,20.2,7.59,20.2,17.11,0,7.43-4.09,14.52-13.86,16.69l14.61,24.38h-9.1l-13.85-23.79h-9.19v23.79h-7.59V1891.5Zm0,6.26H457.18v22h11.19c8.6,0,12.35-4.67,12.35-11.18S477.05,1897.76,468.37,1897.76Z"/><path d="M503.84,1891.5h8.43L526.63,1921,541,1891.5h8.43l-18.94,36.22v22h-7.6v-22Z"/><path d="M618.1,1949.68H596.4V1891.5h20.87c12.27,0,18.45,6.67,18.45,14.77,0,7.34-4.6,11.6-10.19,13.44,6.35,1.08,11.52,7.18,11.52,14.36C637.05,1942.83,630.12,1949.68,618.1,1949.68Zm-1.5-51.92H604v18.86h12.77c7.09,0,11.18-3.51,11.18-9.43C628,1901.43,624,1897.76,616.6,1897.76Zm.58,25.12H604v20.53h13.44c7.51,0,12-3.75,12-10.1S624.61,1922.88,617.18,1922.88Z"/><path d="M682.29,1950.26c-16.36,0-29.22-12.27-29.22-29.72s12.86-29.71,29.22-29.71,29.21,12.27,29.21,29.71S698.73,1950.26,682.29,1950.26Zm0-6.59c12.27,0,21.45-8.94,21.45-23.13s-9.18-23.12-21.45-23.12-21.46,8.85-21.46,23.12S670,1943.67,682.29,1943.67Z"/><path d="M729.69,1891.5h7.6v36.81c0,10.68,5.76,15.27,14.35,15.27s14.28-4.59,14.28-15.27V1891.5h7.59v36.72c0,15.11-9.93,22-22,22s-21.87-6.93-21.87-22Z"/><path d="M791,1891.5h39.4v6.17H814.49v52H806.9v-52H791Z"/><path d="M848,1891.5h7.6v58.18H848Z"/><path d="M918.74,1946.09l14.69,14.6h-9.85l-11.6-11.6a33.12,33.12,0,0,1-8.68,1.17c-16.36,0-29.22-12.27-29.22-29.72s12.86-29.71,29.22-29.71,29.21,12.27,29.21,29.71C932.51,1931.9,927.08,1941.08,918.74,1946.09Zm-15.44-2.42c12.27,0,21.45-8.94,21.45-23.13s-9.18-23.12-21.45-23.12-21.46,8.85-21.46,23.12S891,1943.67,903.3,1943.67Z"/><path d="M950.87,1891.5h7.59v36.81c0,10.68,5.76,15.27,14.36,15.27s14.27-4.59,14.27-15.27V1891.5h7.6v36.72c0,15.11-9.93,22-22,22s-21.87-6.93-21.87-22Z"/><path d="M1047,1897.67h-23.71v19.45h21.21v6.26h-21.21v20H1047v6.27h-31.3v-58.27H1047Z"/><rect x="636.84" y="279.8" width="8.26" height="143.68" transform="translate(1281.94 703.27) rotate(180)"/><path d="M565.2,131.36c1.39.15,2.08.84,2.08,2.07a4.22,4.22,0,0,1-.11.93,4.31,4.31,0,0,1-2.78,3.23c.08.92.19,1.85.35,2.77q.69,6.69,1.27,13,1.28,11.65,2.08,20.31.46,5.43.46,8.2a16.41,16.41,0,0,1-.12,2.42,7.83,7.83,0,0,1-1.5,3,15.34,15.34,0,0,1-2.65,2.88,21.4,21.4,0,0,1-6.51,4,11.4,11.4,0,0,1-4.19.93,6.94,6.94,0,0,1-2.2-.35,5.71,5.71,0,0,1-1.75-1,6.79,6.79,0,0,1-1.16-2.07q-.69-15.12-1-34.17-.12-8.19-.12-16V139.2c-3.76.16-7.81.35-12.11.58q-5.21.24-9.81.58-.24,8.65-1,16.85a108.37,108.37,0,0,1-4.73,23.54.33.33,0,0,0-.12.23,6.74,6.74,0,0,1-3.69,3.58,9,9,0,0,1-3.35.69,8.38,8.38,0,0,1-2.42-.34A5.53,5.53,0,0,1,508,183.4a6,6,0,0,1-1.61-2.53,72.66,72.66,0,0,0,1.84-11.08q.69-6.81,1-15.12.47-10,.35-21.35T509,111c-.15-3.84-.35-7.61-.58-11.31s-.61-7.19-.92-10.5c.84-2.31,2.27-3.46,4.27-3.46a7.67,7.67,0,0,1,2.19.35q4.85,1.6,7.39,8.65a150.72,150.72,0,0,1,2.65,16q1.05,8.31,1.27,16.74.12,3.81.12,7.5l2.65-.12c3.23-.15,6.47-.26,9.7-.34l9.57-.23q0-6.93.24-13.62.23-9.69.69-18.35t1.28-15.7a8.61,8.61,0,0,1,5-6.34,10.28,10.28,0,0,1,4.18-1,6,6,0,0,1,3,.8,5.17,5.17,0,0,1,1.74,1.62,4.77,4.77,0,0,1,1,2.54q-1.92,1.28-2.42,7.39a128.08,128.08,0,0,0-.12,14.65q.12,4.62.58,9.93t.92,10.61c.15,1.7.27,3.43.35,5.2A11,11,0,0,0,565.2,131.36Z"/><path d="M615.06,131.59q.69-3.34,4.5-3.35h1.27a8.47,8.47,0,0,1,6.92,4.39,8.24,8.24,0,0,1,.7,2.88,8,8,0,0,1-.58,3.35q-2,2.07-3.93,10t-3.11,17.54c-.39,2.77-.73,5.5-1,8.19s-.42,5.31-.58,7.85a97.91,97.91,0,0,0,0,11.66q.35,4.73,1.73,5.19,2.55.81,7.39-6.46T638,176.13q3.24-6.33,6.24-12.57t4.84-10.62a6.44,6.44,0,0,1,2.43-.46,11.05,11.05,0,0,1,2.31.22q-2.08,4.74-5.31,12.12t-7,14.89a150,150,0,0,1-8.08,13.85,39.71,39.71,0,0,1-8.66,9.81,15.61,15.61,0,0,1-4.61,2.65,8,8,0,0,1-2.31.35,6.88,6.88,0,0,1-2.19-.35,13,13,0,0,1-6.35-4.27,20.42,20.42,0,0,1-3.7-6.57,40,40,0,0,1-1.84-14.89,103.27,103.27,0,0,1,1.15-11.66c-.23.08-.92,1.24-2.07,3.47a45.06,45.06,0,0,1-4.62,6.8,30.13,30.13,0,0,1-3.46,3.58,18.78,18.78,0,0,1-4,2.77,11.8,11.8,0,0,1-5.66,1.15,10.76,10.76,0,0,1-6.23-2.3,11.94,11.94,0,0,1-3.69-4.16,18.29,18.29,0,0,1-1.73-5.65,21.36,21.36,0,0,1-.35-3.93,39,39,0,0,1,1.15-9,57.89,57.89,0,0,1,5.2-13.5,44.75,44.75,0,0,1,8.31-11.31q4.85-4.85,10-5.65a17,17,0,0,1,3.12-.24,31.4,31.4,0,0,1,3.8.24,26.57,26.57,0,0,1,6.93,1.61,9.42,9.42,0,0,1,2.77,1.62C614.67,133.05,614.9,132.2,615.06,131.59Zm-5.31,6.11a9.31,9.31,0,0,0-4.16,1,18.11,18.11,0,0,0-6.23,5.31,46.51,46.51,0,0,0-5,8.19,40.7,40.7,0,0,0-3.81,13q-.81,6.35,2.31,8c1.39.69,3.12-.42,5.19-3.35a74.2,74.2,0,0,0,6.23-10.85,171.48,171.48,0,0,0,7-16.38c.61-1.62,1.11-3,1.5-4.27A7.25,7.25,0,0,0,609.75,137.7Z"/><path d="M706,154.32a11.43,11.43,0,0,1,2.77-.35,4,4,0,0,1,2,.35,32.61,32.61,0,0,1-7.38,11.08,59.1,59.1,0,0,1-10.27,8.08c-2.08,1.23-4.12,2.39-6.12,3.46a50.31,50.31,0,0,1-4,9.7q-3.58,6.35-8.54,8.31a11,11,0,0,1-4.16.57,11.18,11.18,0,0,1-5.3-1.27,8.56,8.56,0,0,1-2.31-1.84,6.65,6.65,0,0,1-1.27-3,3.17,3.17,0,0,1,.81-2.54,17.78,17.78,0,0,1,3-2.77,80.16,80.16,0,0,1,8.77-5.2c.61-1.69,1.23-3.5,1.84-5.42a60.7,60.7,0,0,0,2-10.16,28.12,28.12,0,0,0-.46-9.57,18.91,18.91,0,0,0-2.08-5.08,10.55,10.55,0,0,0-3.7-3.69q-7.15-4.51-10.26,15.92T661,222.64c-.38,1.16-1.5,2-3.34,2.54a12.62,12.62,0,0,1-3.81.58,18.13,18.13,0,0,1-2.08-.12,14.3,14.3,0,0,1-3.12-.8,8.83,8.83,0,0,1-2.54-1.73,6.14,6.14,0,0,1-1.49-2.43,7.86,7.86,0,0,1,0-3.35c1.53.54,2.73-.65,3.57-3.57a66.74,66.74,0,0,0,1.62-12q.23-4,.23-8.77t-.12-9.69q-.35-11.43-1.27-23.08t-2.07-19.39l-1.16-6.92c-.38-1.78-.77-2.81-1.15-3.12q2.88-2.78,5.42-2.77a4.26,4.26,0,0,1,1.74.35,12.19,12.19,0,0,1,5.88,5.42,55.05,55.05,0,0,1,1.15,9.69q.12,5.66.24,7.74a19.36,19.36,0,0,0,1.15-3.35,35.4,35.4,0,0,1,3.11-6.81,30.17,30.17,0,0,1,2.55-3.69,17.24,17.24,0,0,1,3.23-3.12,12.05,12.05,0,0,1,11.42-.92,10.58,10.58,0,0,1,4.39,3.46,19.38,19.38,0,0,1,3,5.54,42.7,42.7,0,0,1,2.3,14.08,68.92,68.92,0,0,1-1.27,14.54c3.47-2.23,6.77-4.57,9.93-7A25.34,25.34,0,0,0,706,154.32Zm-36.24,30.35a12.17,12.17,0,0,0-2.88,2c-.62.61-.73,1.19-.35,1.73.77,1.31,2.16.38,4.16-2.77.38-.62.73-1.23,1-1.85C671,184.06,670.38,184.37,669.76,184.67Z"/><path d="M762.89,154.32a11.49,11.49,0,0,1,2.77-.35,4,4,0,0,1,2,.35,32.47,32.47,0,0,1-7.38,11.08A58.72,58.72,0,0,1,750,173.48c-2.08,1.23-4.12,2.39-6.12,3.46a50.94,50.94,0,0,1-4,9.7q-3.59,6.35-8.55,8.31a10.91,10.91,0,0,1-4.15.57,11.22,11.22,0,0,1-5.31-1.27,8.71,8.71,0,0,1-2.31-1.84,6.76,6.76,0,0,1-1.27-3,3.24,3.24,0,0,1,.81-2.54,17.78,17.78,0,0,1,3-2.77,80.16,80.16,0,0,1,8.77-5.2c.62-1.69,1.23-3.5,1.85-5.42a61.72,61.72,0,0,0,2-10.16,28.12,28.12,0,0,0-.46-9.57,18.28,18.28,0,0,0-2.08-5.08,10.52,10.52,0,0,0-3.69-3.69q-7.15-4.51-10.27,15.92t-.23,61.74c-.39,1.16-1.5,2-3.35,2.54a12.53,12.53,0,0,1-3.81.58,18.26,18.26,0,0,1-2.08-.12,14.36,14.36,0,0,1-3.11-.8,8.69,8.69,0,0,1-2.54-1.73,6.28,6.28,0,0,1-1.5-2.43,8.2,8.2,0,0,1,0-3.35q2.31.81,3.58-3.57a67.79,67.79,0,0,0,1.61-12c.16-2.69.23-5.61.23-8.77s0-6.38-.11-9.69q-.34-11.43-1.27-23.08t-2.08-19.39l-1.15-6.92c-.39-1.78-.77-2.81-1.16-3.12,1.93-1.85,3.73-2.77,5.43-2.77a4.22,4.22,0,0,1,1.73.35,12.19,12.19,0,0,1,5.88,5.42,55.94,55.94,0,0,1,1.16,9.69q.1,5.66.23,7.74a18.41,18.41,0,0,0,1.15-3.35,34.88,34.88,0,0,1,3.12-6.81,30.1,30.1,0,0,1,2.54-3.69,17.87,17.87,0,0,1,3.23-3.12,12.06,12.06,0,0,1,11.42-.92,10.46,10.46,0,0,1,4.39,3.46,19.14,19.14,0,0,1,3,5.54,43,43,0,0,1,2.31,14.08,70.26,70.26,0,0,1-1.27,14.54q5.19-3.34,9.92-7A25.34,25.34,0,0,0,762.89,154.32Zm-36.23,30.35a12.49,12.49,0,0,0-2.89,2c-.61.61-.73,1.19-.34,1.73.76,1.31,2.15.38,4.15-2.77.39-.62.73-1.23,1-1.85C727.93,184.06,727.27,184.37,726.66,184.67Z"/><path d="M780.21,133.2c-.4,3.08-.74,6.27-1,9.58s-.39,6.54-.46,9.7a119.71,119.71,0,0,0,.23,15.23c.38,4.23,1.15,6.35,2.29,6.35,1.68.08,3.43-1.89,5.26-5.89a70.58,70.58,0,0,0,4.57-14.2c.62-3.07,1.11-6.19,1.49-9.34a74.47,74.47,0,0,0,.58-9.12,7.93,7.93,0,0,1,.81-2.77,4.63,4.63,0,0,1,1.73-1.73c2-1.15,4.38-1,7.16.58a8,8,0,0,1,4.5,6.81c-.38.15-.66.77-.81,1.84s-.31,2.46-.46,4.16c-.16,3.31-.19,7.54-.12,12.69s-.07,10.81-.23,16.74a11.89,11.89,0,0,1-.11,1.73q1.83-2.09,3.81-4.27c2.68-3.08,5.23-6.24,7.61-9.47a65.37,65.37,0,0,0,6-9.69,14.69,14.69,0,0,1,2.31-.46,5.57,5.57,0,0,1,2.43.34,73.23,73.23,0,0,1-6.47,11.08q-3.81,5.43-8,10.5-4,4.74-8,9.12v3q-.36,6-.93,11.77a91.88,91.88,0,0,1-3.8,18.58Q798,224.15,793,226.57a14,14,0,0,1-5.83,1.5h-.57a7.38,7.38,0,0,1-4.58-2c-2.3-2.08-3.36-5.51-3.21-10.28s1.76-9.88,4.81-15.34c1.9-3.47,5.12-7.51,9.61-12.12.09-4.08.09-7.92,0-11.54v-8.08a24.8,24.8,0,0,1-2.42,5.77,26.85,26.85,0,0,1-5.42,6.69,15.47,15.47,0,0,1-3.82,2.43,9.64,9.64,0,0,1-4.15.92,12.56,12.56,0,0,1-7.61-2.19,14.82,14.82,0,0,1-4.62-6.12,27.25,27.25,0,0,1-2.42-8.89,88.56,88.56,0,0,1-.58-10.15v-.35c0-2.31,0-4.57.12-6.81s.31-4.46.46-6.46q.47-5.78.69-9.93t-.69-4.84q1.51-2.89,6.51-3h.12a12.44,12.44,0,0,1,8.13,2.65,11.82,11.82,0,0,1,1.85,2.08A6,6,0,0,1,780.21,133.2ZM787.59,204c-2.38,4.77-2.93,8.31-1.62,10.62s2.51,3.34,3.58,2.88,1.66-2,2.2-4.85a97.59,97.59,0,0,0,1-10.15c.16-2.08.27-4.27.35-6.58A38.11,38.11,0,0,0,787.59,204Z"/><path d="M421.72,212.58a7,7,0,0,1,1.51-3.45,4.7,4.7,0,0,1,2.37-1.73,5.94,5.94,0,0,1,2.16-.43,8.33,8.33,0,0,1,3.34.76,9.15,9.15,0,0,1,4.21,3.34c.07.86.11,1.94.11,3.24s.11,2.84.11,4.85a19.22,19.22,0,0,1,5.93-6.25,17.74,17.74,0,0,1,9.06-3.35,12.15,12.15,0,0,1,5.29.76,11.94,11.94,0,0,1,4.86,3.23,12.82,12.82,0,0,1,3,5.4,16.09,16.09,0,0,1,.32,6.15,32.25,32.25,0,0,1-5,12.84,100,100,0,0,1-7.88,11.33c-1.37,1.72-2.62,3.19-3.77,4.42s-1.88,2.12-2.38,2.7a45,45,0,0,1,7.88-.65A23.33,23.33,0,0,1,463,257.57a15,15,0,0,1,4.75,3,12,12,0,0,1,3.23,5,26.45,26.45,0,0,1,1.51,8.84,30.49,30.49,0,0,1-4.2,15.54,30.91,30.91,0,0,1-12.74,12.3,17.42,17.42,0,0,1-16.39,0,8.28,8.28,0,0,1-3.24-5.72q-.65-3.78,4.1-8.09a8.15,8.15,0,0,0,4.21,1.72,5.09,5.09,0,0,0,3.45-.75,8.06,8.06,0,0,0,2.91-2.92,20.44,20.44,0,0,0,2.16-4.31,31.59,31.59,0,0,0,1.62-9.39c.07-3.23-.32-5.57-1.19-7-2.08-3.23-5.28-4.39-9.6-3.45a22.48,22.48,0,0,0-8.95,4.53q-.33,8.52-.55,16.18-.31,9.72-.1,15.86a44.34,44.34,0,0,0,.43,5.4c.22,1.36.54,2.15,1,2.37a5.38,5.38,0,0,1-3.88,3.13,13.75,13.75,0,0,1-3.89.54c-.72,0-1.47,0-2.26-.11a13.9,13.9,0,0,1-4.1-1.29,8.19,8.19,0,0,1-2.91-2.49,40.92,40.92,0,0,1-1.3-11.11q0-7.23.54-16.4c.21-3.23.47-6.61.76-10.14l.86-10.57q.64-8.31,1.29-16.4c.43-5.4.76-10.39,1-15a9.29,9.29,0,0,1-6.58.87c-2.44-.58-4.06-1.33-4.85-2.27a1.56,1.56,0,0,1-.54-1.08.89.89,0,0,1,.11-.43,2,2,0,0,1,1.07-1.08q1.85.12,5.83-2.7A12.51,12.51,0,0,0,421.72,212.58Zm13.81,31.18q-.22,6.59-.43,13.06l.43-.33a13.84,13.84,0,0,0,2.91-2.91,25.15,25.15,0,0,0,3.35-5.83,53.91,53.91,0,0,0,2.37-7,62.65,62.65,0,0,0,2.16-12.84q.31-6.15-.76-7.33c-1.29-1.52-3.13-1.52-5.5,0a9.47,9.47,0,0,0-4.42,5.5Q435.75,234.38,435.53,243.76Z"/><path d="M495.51,258.11a51.17,51.17,0,0,1-.32,6.8c-.36,3.09-.76,6.44-1.19,10-.21,1.87-.43,3.78-.64,5.72s-.29,3.7-.43,5.5a51.06,51.06,0,0,0,.21,8.42q.33,3.56,2.05,4.2a4.44,4.44,0,0,0,3.67-.64,18,18,0,0,0,4.1-3.35,67,67,0,0,0,7.87-11.22q4-6.9,6.91-12.94a17.92,17.92,0,0,1,2-.33,3.49,3.49,0,0,1,1.94.65,82.39,82.39,0,0,1-3.78,8.31,97.78,97.78,0,0,1-5.17,9.27,64.63,64.63,0,0,1-4,5.83,62.39,62.39,0,0,1-4.31,5.29,33.17,33.17,0,0,1-8.85,6.79,12.59,12.59,0,0,1-5.72,1.41,12.19,12.19,0,0,1-3.56-.54,8.16,8.16,0,0,1-4.74-3.67,17.37,17.37,0,0,1-2.27-6.26,39.25,39.25,0,0,1-.54-6.69,18.17,18.17,0,0,1,.11-1.94q.11-4.63.65-9.39,1.08-8.83,2.16-16.18c.78-4.82.57-7.62-.65-8.41.5-2.09,2.23-3.35,5.17-3.78a16.54,16.54,0,0,1,1.73-.11,7.81,7.81,0,0,1,5.61,2.16,4.91,4.91,0,0,1,1.51,2.05A9.48,9.48,0,0,1,495.51,258.11Zm1.94-26.32v.32a4.55,4.55,0,0,1-1.83,3.34,6,6,0,0,1-3.77,1.62h-.22a17.72,17.72,0,0,1-6.47-1.62q-3.57-1.39-3.78-4.42v-.32q0-2.6,3-4.53a11.71,11.71,0,0,1,5.83-1.84h.32a6.44,6.44,0,0,1,4.64,2.48A9,9,0,0,1,497.45,231.79Z"/><path d="M530.14,253.47a11.7,11.7,0,0,0,3-.43q3-.64,6.47-1.62a18.43,18.43,0,0,1,6.15-1,6.82,6.82,0,0,1,2.48.43A4.12,4.12,0,0,1,550,252.5q.54,1.62-.21,8.52t-1.73,15.11q-.75,6.58-1.08,12.73a44.74,44.74,0,0,0,.22,10,7.7,7.7,0,0,0,1,3.35,1.94,1.94,0,0,0,1.73,1.18q2.8,0,7.12-5.82t8.41-12.73q2.7-4.65,4.86-9c1.44-2.87,2.51-5.14,3.23-6.8a10.81,10.81,0,0,1,2-.21,6.57,6.57,0,0,1,2.05.32,137.58,137.58,0,0,1-6.36,13.6,99.25,99.25,0,0,1-9.93,15.86,45.13,45.13,0,0,1-7.55,8c-2.59,2.08-5.07,3.13-7.44,3.13h-.11q-10.79-.12-15.43-12.09t1.08-38.94a29,29,0,0,1-3.77-.43q-1.2,2.58-2.49,5.18-3.45,6.8-4.42,9.17c-.86.14-1.62.25-2.27.32a5.71,5.71,0,0,1-2-.43c.72-1.37,1.66-3.27,2.81-5.72l3.45-7.77c.36-.79.68-1.55,1-2.26a19.54,19.54,0,0,1-3.13-2.48,11.74,11.74,0,0,1-3.67-8.2,10.38,10.38,0,0,1,2.81-7.77A8.82,8.82,0,0,1,524,236a10.75,10.75,0,0,1,3.45-.55c.72,0,1.43,0,2.15.11,2.45.37,3.67,1.94,3.67,4.75a34,34,0,0,1-1.94,9.71L530,253.47Zm-1.72-11q-2.38-.33-2.59,4.75a12,12,0,0,0,.43,4.31c.5-1.29,1-2.55,1.4-3.78C528.88,244.3,529.14,242.54,528.42,242.47Z"/><path d="M597.79,231.79a2.67,2.67,0,0,1,1.19,2.26.43.43,0,0,1-.11.32,2.85,2.85,0,0,1-1.51,2.49h-8.53q-.75,5.49-1.72,12.73-1.41,10.14-2.38,20.28-.86,8.42-1.18,15.86a76.32,76.32,0,0,0,.43,12.19,16.79,16.79,0,0,0,1.18,4.21,3.24,3.24,0,0,0,2,1.94q3.12,1,7.22-4.75A103.76,103.76,0,0,0,602.21,286q2.16-4.11,4-8.09t3.45-7.23a17.92,17.92,0,0,1,2.05-.33,4,4,0,0,1,2,.65q-2.58,6.26-7.33,15.86a85.15,85.15,0,0,1-10.9,16.72,32.92,32.92,0,0,1-8.41,7.34,11.94,11.94,0,0,1-5.83,1.62,10.87,10.87,0,0,1-3-.44,8.38,8.38,0,0,1-4.31-2.91A17.51,17.51,0,0,1,571,304a47.79,47.79,0,0,1-2-14.35V288.1a164.61,164.61,0,0,1,.87-16.5q1.18-11.66,3.23-22.88c.79-4.45,1.51-8.45,2.16-12l-7-.22c-1.3.15-1.94-.53-1.94-2.05v-.21c.07-1.58.64-2.41,1.72-2.48,1.58-.07,3.13-.11,4.64-.11,1.15,0,2.3,0,3.45.11a14.34,14.34,0,0,1,.33-1.84q.65-4,1-6.58c.21-1.72.21-2.73,0-3A3.71,3.71,0,0,1,578,219a4.85,4.85,0,0,1,1.08-1,5.5,5.5,0,0,1,2.49-.54,9.72,9.72,0,0,1,4.1,1.08q4,1.83,4.63,5.39a13,13,0,0,1-.11,2.81q-.32,2.37-.75,5.82h1.3c1.65,0,3.09,0,4.31-.11A5.92,5.92,0,0,0,597.79,231.79Z"/><path d="M607.18,221.75a9.23,9.23,0,0,1,2.91-2.48,7.6,7.6,0,0,1,2.72-.54h.55a9.91,9.91,0,0,1,5.65,2.7,11,11,0,0,1,3.38,5.07q.43,11.87-.11,21t-.54,19.31q.43-1.08,2-4.31a17.26,17.26,0,0,1,5-5.83,16.8,16.8,0,0,1,3.89-2.16,11.83,11.83,0,0,1,4.85-.54,8.07,8.07,0,0,1,5.4,2.59,16.44,16.44,0,0,1,3.34,5.94,40.37,40.37,0,0,1,1.83,8.52q.54,4.74.65,9.71.22,9.17,0,16.72t1.62,8.31q2.26.85,6.47-4.86A148.15,148.15,0,0,0,664.9,288q2.69-4.75,4.85-9.17T673,272a7.61,7.61,0,0,1,2-.54,3.51,3.51,0,0,1,2.16.86c-.8,1.8-2.05,4.5-3.78,8.09a121.1,121.1,0,0,1-5.94,11.22q-1.72,3-3.66,6c-1.3,2-2.59,3.85-3.89,5.51a40.69,40.69,0,0,1-7.77,7.66,9.08,9.08,0,0,1-5.3,1.94,6.68,6.68,0,0,1-2.06-.32,11.53,11.53,0,0,1-5.87-4.1,20.83,20.83,0,0,1-3.37-6.69,36.16,36.16,0,0,1-1.63-8.74q-.31-4.74-.21-9.5.21-8.73.75-15.64t-1.5-7.23c-1.64-.21-3.2.61-4.7,2.48a27.71,27.71,0,0,0-3.74,6.69,26.62,26.62,0,0,0-1.61,5,17.1,17.1,0,0,0-.64,4.2q-.1,5.71-.21,17.05a10.54,10.54,0,0,1-3.49,5.39q-2.72,2.38-5.33,1.84a4.41,4.41,0,0,1-2.18-1.08,6.57,6.57,0,0,1-1.63-2.48,95,95,0,0,1-1-16.08q0-9.6.32-19.63c.15-3.53.29-7,.44-10.36s.25-6.72.32-9.82q.21-8.62-.22-14.78T607.18,221.75Z"/><path d="M701.9,244.73q1.19-9.16,1.83-15.86t.76-8a10.63,10.63,0,0,1,2.48-4.31,4.23,4.23,0,0,1,2.91-1.3h.32a8.23,8.23,0,0,1,5.4,2.37q2.91,2.59,4.64,4.32a6.59,6.59,0,0,0-1.08,2.7c-.51,1.65-1,3.81-1.62,6.47q-1.51,7.55-3.34,19.1t-2.92,23.52c-.36,3.45-.64,6.83-.86,10.14s-.39,6.54-.54,9.49a101.29,101.29,0,0,0,.43,13.81c.43,3.74,1.3,5.86,2.59,6.36q2.37.87,7.12-5.71t9.82-15.22q3.23-5.82,6.25-11.54t5-9.82a5.45,5.45,0,0,1,2.27-.54,6.86,6.86,0,0,1,2.15.54q-2,4.43-5.39,11.11T732.86,296a116.13,116.13,0,0,1-8.09,12.62,38.36,38.36,0,0,1-8.42,8.85,14.77,14.77,0,0,1-4.53,2.26,7.23,7.23,0,0,1-1.83.22,6.79,6.79,0,0,1-2.37-.43,11.51,11.51,0,0,1-5.62-4.21,20.79,20.79,0,0,1-3.12-6.47,39.12,39.12,0,0,1-1.19-14,103.31,103.31,0,0,0,.54-10.78c-.15.42-.4,1.07-.76,1.94a29.8,29.8,0,0,1-1.18,3.13,45.54,45.54,0,0,1-3.67,7,17.79,17.79,0,0,1-5.72,5.82,13.27,13.27,0,0,1-5,1.84,12.72,12.72,0,0,1-6.15-.76q-5.94-2.16-7.66-9.17a35,35,0,0,1-1.08-8.74,41.31,41.31,0,0,1,.54-6.58,63.81,63.81,0,0,1,1.51-7q1.08-3.45,2.37-6.69a41.89,41.89,0,0,1,6.37-10q3.78-4.11,8.09-4.53a24.86,24.86,0,0,1,6,.1,24.14,24.14,0,0,1,6.69,1.73,11.47,11.47,0,0,1,2.05,1.08C701.14,250.27,701.54,247.47,701.9,244.73Zm-9,15a29,29,0,0,0-5.71,9.17c-.65,1.58-1.27,3.24-1.84,5A46,46,0,0,0,684.2,279a27.51,27.51,0,0,0-.43,8.2c.22,2.37,1,3.85,2.48,4.42a3,3,0,0,0,2.7-.21,7.94,7.94,0,0,0,2.48-2.59,39.43,39.43,0,0,0,4-9.93q1.85-6.36,3.35-13.91.54-3.34,1.08-6.8a.33.33,0,0,0-.22-.11Q696.29,256.17,692.94,259.73Z"/><path d="M774.94,251.1q.64-3.14,4.21-3.13h1.18a7.93,7.93,0,0,1,6.48,4.1,8.23,8.23,0,0,1,.65,2.7,7.37,7.37,0,0,1-.54,3.12q-1.84,2-3.67,9.39t-2.92,16.4q-.54,3.88-1,7.66c-.22,2.52-.41,5-.55,7.34a93.54,93.54,0,0,0,0,10.89q.33,4.43,1.62,4.86,2.37.75,6.91-6t9.06-15.65q3-5.92,5.82-11.76t4.53-9.92a6,6,0,0,1,2.27-.43,10.28,10.28,0,0,1,2.16.21l-5,11.33q-2.91,6.9-6.57,13.92A141.5,141.5,0,0,1,792.09,309,36.9,36.9,0,0,1,784,318.2a14.74,14.74,0,0,1-4.32,2.48,7.34,7.34,0,0,1-2.15.33,6.29,6.29,0,0,1-2-.33,12.32,12.32,0,0,1-5.94-4,19.16,19.16,0,0,1-3.45-6.15,37.12,37.12,0,0,1-1.72-13.91,96.72,96.72,0,0,1,1.07-10.9A13.34,13.34,0,0,0,763.5,289a41.58,41.58,0,0,1-4.31,6.36,28.6,28.6,0,0,1-3.24,3.35,18.13,18.13,0,0,1-3.77,2.59,11,11,0,0,1-5.29,1.07,10.09,10.09,0,0,1-5.83-2.15,11.26,11.26,0,0,1-3.45-3.89A17.52,17.52,0,0,1,736,291a20.46,20.46,0,0,1-.32-3.67,36,36,0,0,1,1.08-8.42,54,54,0,0,1,4.85-12.62,42,42,0,0,1,7.77-10.57q4.53-4.53,9.39-5.29a17,17,0,0,1,2.91-.21,31.41,31.41,0,0,1,3.56.21A25.08,25.08,0,0,1,771.7,252a8.89,8.89,0,0,1,2.59,1.51C774.58,252.46,774.79,251.67,774.94,251.1Zm-5,5.72a8.57,8.57,0,0,0-3.89,1,16.73,16.73,0,0,0-5.82,5,43,43,0,0,0-4.64,7.66,37.58,37.58,0,0,0-3.56,12.19q-.77,5.94,2.16,7.45,1.93,1,4.85-3.13a71.24,71.24,0,0,0,5.83-10.14,162.63,162.63,0,0,0,6.57-15.32c.58-1.52,1-2.85,1.41-4A6.92,6.92,0,0,0,770,256.82Z"/><path d="M819.71,252.61c-.37,2.87-.68,5.86-1,8.95s-.36,6.12-.43,9.07a112,112,0,0,0,.21,14.24q.54,5.92,2.14,5.93,2.36.1,4.92-5.5A66.57,66.57,0,0,0,829.86,272q.85-4.32,1.39-8.74a70.38,70.38,0,0,0,.54-8.52,7.24,7.24,0,0,1,.76-2.59,4.39,4.39,0,0,1,1.61-1.62c1.88-1.08,4.1-.9,6.7.54a7.42,7.42,0,0,1,4.2,6.36c-.36.15-.61.72-.75,1.73s-.29,2.3-.44,3.88q-.21,4.65-.11,11.87t-.21,15.64a10.31,10.31,0,0,1-.11,1.62l3.56-4c2.52-2.87,4.89-5.83,7.12-8.85a61.91,61.91,0,0,0,5.61-9.06,15.2,15.2,0,0,1,2.16-.43,5.26,5.26,0,0,1,2.27.32,68.91,68.91,0,0,1-6,10.36q-3.55,5.07-7.44,9.82-3.78,4.42-7.44,8.52v2.81c-.22,3.74-.51,7.4-.87,11a87.15,87.15,0,0,1-3.55,17.37q-2.49,7.56-7.13,9.82a13.12,13.12,0,0,1-5.45,1.4h-.54a6.84,6.84,0,0,1-4.28-1.83q-3.21-2.91-3-9.61t4.5-14.34a55.71,55.71,0,0,1,9-11.33q.11-5.71,0-10.79v-7.55a23.94,23.94,0,0,1-2.27,5.39,25,25,0,0,1-5.07,6.26,14.13,14.13,0,0,1-3.56,2.26,9,9,0,0,1-3.88.87,11.73,11.73,0,0,1-7.12-2.05,14,14,0,0,1-4.32-5.72,25.3,25.3,0,0,1-2.26-8.31,81.47,81.47,0,0,1-.54-9.49v-.32q0-3.24.1-6.37c.15-2.16.29-4.17.44-6q.42-5.4.65-9.28c.14-2.52-.08-4-.65-4.53.94-1.8,3-2.73,6.08-2.81h.11a11.59,11.59,0,0,1,7.6,2.49,10.37,10.37,0,0,1,1.74,1.94A5.56,5.56,0,0,1,819.71,252.61Zm6.9,66.13q-3.35,6.69-1.51,9.93t3.35,2.7c.86-.36,1.54-1.88,2-4.54a92.13,92.13,0,0,0,1-9.49q.21-2.91.32-6.15A35.88,35.88,0,0,0,826.61,318.74Z"/><path d="M621.25,226a112.17,112.17,0,0,1,.36,38.81"/><path d="M440.42,923.46v12.82a12.78,12.78,0,0,0,12.78,12.78H604.25v7.68h15.87c-8.08,9.34-13.31,24.21-13.31,41,0,20.26,7.66,37.78,18.76,46.07H611.93v3.85a3.84,3.84,0,0,0,3.83,3.83h6.8c-9.45,9-15.75,25.14-15.75,43.52,0,14,3.63,26.6,9.52,35.84h-9.52v3.84a3.85,3.85,0,0,0,1.5,3c-52.7,5.22-123.09,21-123.09,31.52H795c0-10.2-73.94-25.27-124.06-31a3.83,3.83,0,0,0,2.47-3.58v-3.84h-9.52c5.89-9.24,9.52-21.89,9.52-35.84,0-18.38-6.29-34.49-15.75-43.52h6.8a3.83,3.83,0,0,0,3.83-3.83v-3.85H654.6c11.11-8.29,18.76-25.81,18.76-46.07,0-16.75-5.22-31.62-13.31-41h15.87v-7.68H827a12.78,12.78,0,0,0,12.78-12.78V923.46Z"/><path d="M716,638.83a105.07,105.07,0,0,1,11.72,22.55l.56.09a105.29,105.29,0,0,1,16.2-19.63c19.84-18.34,50.27,7.19,41.9,28.82a2.56,2.56,0,0,1-.11.24c39.51,5.94,68.25,8.39,70.76.42,15.06-47.86,14.13-124.69,18.65-176.11s.57-111.45-25.24-124.3-321.64-31.2-393.93-25.49-50.1,66.29-51.39,136.28c-.69,37.77-1.45,35,1,79.39C412,666.35,470.48,647,574.27,643.9c25.5-.76,59.32,3,94.67,8.12C671.68,632.24,701.91,618.81,716,638.83Zm-70.5-57.74c-5.51-.29-16.38-10.77-16.43-10.84-1.4-1.58-44-54.37-48.56-86.11-4.44-31.17,40.41-56.78,59.94-26.9a145.82,145.82,0,0,1,15,31.4,145.59,145.59,0,0,1,21.2-27.57c25.4-25.17,63.85,9.31,53,38.84-11,30-65.08,73.64-65.11,73.67C660.41,577.82,651,582.05,645.5,581.09Z"/><path d="M735.57,724.4c-3.19,3.09-10.55,6.14-14.9,5.41-4.34-.25-12.95-8-13-8.06-1-1.09-30.68-35.25-37.58-58.77-35.45-5.18-69.37-8.92-94.94-8.15-68.11,2-116.71,11.06-143.73-12.71a14,14,0,0,0-3.77,2.31c-22.69,21.2-4.12,100.66-5.15,184.09s19.6,83.44,56.74,84.76,231.11-4,282.7-2.65c0,0,81.93,7.89,89.15-21.9s17-123.83,13.93-154.3c-1.49-14.62-.82-34.41-7.24-51.92-3.25,8-34.79,4.88-77.11-1.67C766.36,701.28,735.59,724.38,735.57,724.4ZM634.89,760.77c-8.19,22.27-48.25,54.59-48.27,54.62-3,3.14-10,6.27-14.09,5.56-4.08-.21-12.14-8-12.18-8-1-1.17-32.65-40.3-36-63.84-3.29-23.1,30-42.09,44.44-19.93a107.92,107.92,0,0,1,11.09,23.27A108.8,108.8,0,0,1,595.6,732C614.43,713.31,642.93,738.88,634.89,760.77Z"/></svg>