<svg xmlns="http://www.w3.org/2000/svg" viewBox="0 0 696.44 1600"><g id="Capa_2" data-name="Capa 2"><g id="Layer_1" data-name="Layer 1"><rect x="343.46" y="294.33" width="12.12" height="210.92"/><path d="M238.28,76.41c2,.23,3.06,1.24,3.06,3a5.67,5.67,0,0,1-.17,1.35,6.32,6.32,0,0,1-4.07,4.75c.11,1.36.28,2.71.51,4.07q1,9.83,1.86,19.14,1.86,17.12,3.05,29.82c.45,5.31.68,9.31.68,12a25.36,25.36,0,0,1-.17,3.55,11.7,11.7,0,0,1-2.2,4.41,22.79,22.79,0,0,1-3.9,4.24,31.7,31.7,0,0,1-9.55,5.92,16.81,16.81,0,0,1-6.15,1.36,10.18,10.18,0,0,1-3.24-.51,8.63,8.63,0,0,1-2.56-1.52,10.05,10.05,0,0,1-1.71-3q-1-22.2-1.52-50.15-.18-12-.17-23.55V87.93q-8.31.34-17.79.85-7.63.34-14.4.85-.34,12.7-1.53,24.73-2.2,20.83-6.95,34.56a.49.49,0,0,0-.16.34q-1.2,3.23-5.43,5.25a13.13,13.13,0,0,1-4.91,1,12.31,12.31,0,0,1-3.56-.51,8.08,8.08,0,0,1-3.05-2.2,8.86,8.86,0,0,1-2.37-3.73,105.07,105.07,0,0,0,2.71-16.26q1-10,1.53-22.2.67-14.73.51-31.34,0-16.61-.85-32.7-.34-8.48-.85-16.6-.68-8.13-1.35-15.42,1.86-5.09,6.27-5.08a11.27,11.27,0,0,1,3.22.51q7.11,2.37,10.84,12.7a218.24,218.24,0,0,1,3.89,23.55q1.53,12.21,1.87,24.57c.11,3.72.17,7.4.17,11l3.89-.17q7.13-.33,14.24-.51,7.28-.16,14.06-.34,0-10.16.34-20,.33-14.22,1-26.93t1.88-23a12.72,12.72,0,0,1,7.34-9.32A15.4,15.4,0,0,1,228.75,0a8.73,8.73,0,0,1,4.44,1.18,7.45,7.45,0,0,1,2.56,2.38,7,7,0,0,1,1.52,3.72q-2.82,1.87-3.56,10.85a191.28,191.28,0,0,0-.17,21.51q.18,6.78.85,14.58.59,7.62,1.36,15.58.33,3.74.51,7.63A17.16,17.16,0,0,0,238.28,76.41Z"/><path d="M311.48,76.75c.67-3.28,2.88-4.91,6.6-4.91H320q7.11.84,10.16,6.43a12.4,12.4,0,0,1,1,4.24,11.54,11.54,0,0,1-.85,4.91q-2.88,3.06-5.76,14.74Q321.82,114,320,127.91q-.85,6.1-1.53,12c-.34,4-.62,7.79-.84,11.52a142.61,142.61,0,0,0,0,17.11q.5,7,2.54,7.63,3.72,1.19,10.84-9.49,6.94-10.67,14.23-24.56,4.74-9.32,9.15-18.47,4.23-9.15,7.12-15.59a9.49,9.49,0,0,1,3.55-.67,16.11,16.11,0,0,1,3.39.33l-7.79,17.79Q356,136.39,350.27,147.4a219.3,219.3,0,0,1-11.85,20.33q-6.29,9.48-12.71,14.4a23.36,23.36,0,0,1-6.78,3.89,11.71,11.71,0,0,1-3.39.51,10.1,10.1,0,0,1-3.22-.51,19.33,19.33,0,0,1-9.31-6.26,30.19,30.19,0,0,1-5.43-9.66,58.52,58.52,0,0,1-2.71-21.86,148.85,148.85,0,0,1,1.7-17.11c-.34.12-1.36,1.81-3.05,5.09a65.23,65.23,0,0,1-6.78,10,45.16,45.16,0,0,1-5.08,5.25,27.77,27.77,0,0,1-5.93,4.07,17.36,17.36,0,0,1-8.3,1.69,15.82,15.82,0,0,1-9.15-3.38,17.64,17.64,0,0,1-5.42-6.11,27,27,0,0,1-2.54-8.29,31.21,31.21,0,0,1-.51-5.77,57.28,57.28,0,0,1,1.69-13.21,84.85,84.85,0,0,1,7.62-19.82A65.89,65.89,0,0,1,271.33,84q7.11-7.11,14.73-8.3a26.79,26.79,0,0,1,4.58-.34,49.27,49.27,0,0,1,5.59.34A39.41,39.41,0,0,1,306.4,78.1a13.64,13.64,0,0,1,4.06,2.38C310.91,78.89,311.25,77.65,311.48,76.75Zm-7.8,9a13.65,13.65,0,0,0-6.1,1.52A26.53,26.53,0,0,0,288.44,95a67.6,67.6,0,0,0-7.29,12,59.43,59.43,0,0,0-5.59,19.14q-1.19,9.32,3.39,11.69,3,1.53,7.62-4.91a110.88,110.88,0,0,0,9.15-15.93A252.09,252.09,0,0,0,306.06,93q1.35-3.56,2.2-6.26A10.77,10.77,0,0,0,303.68,85.73Z"/><path d="M445,110.12a16.75,16.75,0,0,1,4.07-.51,5.9,5.9,0,0,1,2.88.51,47.81,47.81,0,0,1-10.84,16.27A87,87,0,0,1,426,138.25q-4.58,2.72-9,5.08a73.55,73.55,0,0,1-5.93,14.23q-5.25,9.31-12.54,12.2a16,16,0,0,1-6.1.85,16.45,16.45,0,0,1-7.79-1.87,12.57,12.57,0,0,1-3.39-2.71,9.85,9.85,0,0,1-1.86-4.4,4.71,4.71,0,0,1,1.19-3.73,26.07,26.07,0,0,1,4.4-4.06,116.23,116.23,0,0,1,12.88-7.63c.9-2.48,1.8-5.14,2.7-8a88.61,88.61,0,0,0,2.88-14.91,41.12,41.12,0,0,0-.67-14.06,27.53,27.53,0,0,0-3.05-7.46,15.54,15.54,0,0,0-5.42-5.42q-10.51-6.62-15.08,23.38-4.58,29.82-.34,90.64c-.57,1.7-2.2,2.94-4.91,3.73a18.55,18.55,0,0,1-5.6.85,28.49,28.49,0,0,1-3-.17,21.05,21.05,0,0,1-4.57-1.19,12.6,12.6,0,0,1-3.73-2.54,9,9,0,0,1-2.2-3.56,11.92,11.92,0,0,1,0-4.91q3.39,1.19,5.26-5.25a99.63,99.63,0,0,0,2.37-17.62q.33-5.94.34-12.88t-.17-14.23q-.51-16.77-1.87-33.88-1.51-17-3-28.47L356,80.14c-.57-2.6-1.13-4.13-1.7-4.58q4.25-4.07,8-4.06a6.37,6.37,0,0,1,2.54.51q4.9,1.86,8.64,8a81.71,81.71,0,0,1,1.69,14.23c.11,5.53.23,9.32.34,11.35a26.29,26.29,0,0,0,1.7-4.91,51.26,51.26,0,0,1,4.57-10,46,46,0,0,1,3.73-5.42,25.83,25.83,0,0,1,4.74-4.58A17.76,17.76,0,0,1,407,79.29a15.41,15.41,0,0,1,6.44,5.08,28.05,28.05,0,0,1,4.41,8.13,63,63,0,0,1,3.38,20.67,102.71,102.71,0,0,1-1.86,21.35Q427,129.62,434,124.19A37.2,37.2,0,0,0,445,110.12Zm-53.19,44.56a18,18,0,0,0-4.24,2.88q-1.37,1.37-.51,2.55,1.69,2.88,6.1-4.07c.57-.9,1.07-1.81,1.53-2.71Q393.14,154,391.79,154.68Z"/><path d="M528.5,110.12a16.75,16.75,0,0,1,4.07-.51,5.9,5.9,0,0,1,2.88.51,47.81,47.81,0,0,1-10.84,16.27,87,87,0,0,1-15.08,11.86q-4.57,2.72-9,5.08a73.55,73.55,0,0,1-5.93,14.23q-5.25,9.31-12.54,12.2a16,16,0,0,1-6.1.85,16.47,16.47,0,0,1-7.79-1.87A12.73,12.73,0,0,1,464.8,166a9.85,9.85,0,0,1-1.86-4.4,4.71,4.71,0,0,1,1.19-3.73,26.47,26.47,0,0,1,4.4-4.06,116.23,116.23,0,0,1,12.88-7.63c.9-2.48,1.8-5.14,2.71-8A90.65,90.65,0,0,0,487,123.34a41.11,41.11,0,0,0-.68-14.06,27.22,27.22,0,0,0-3.05-7.46,15.54,15.54,0,0,0-5.42-5.42q-10.5-6.62-15.08,23.38-4.57,29.82-.34,90.64c-.57,1.7-2.2,2.94-4.91,3.73a18.48,18.48,0,0,1-5.59.85,28.34,28.34,0,0,1-3.05-.17,21,21,0,0,1-4.58-1.19,12.6,12.6,0,0,1-3.73-2.54,9,9,0,0,1-2.2-3.56,11.92,11.92,0,0,1,0-4.91q3.39,1.19,5.26-5.25A99.63,99.63,0,0,0,446,179.76q.33-5.94.34-12.88t-.17-14.23q-.51-16.77-1.87-33.88-1.51-17-3.05-28.47l-1.69-10.16c-.57-2.6-1.13-4.13-1.7-4.58q4.25-4.07,8-4.06a6.37,6.37,0,0,1,2.54.51q4.92,1.86,8.64,8A81.71,81.71,0,0,1,458.7,94.2c.11,5.53.23,9.32.34,11.35a26.29,26.29,0,0,0,1.7-4.91,51.26,51.26,0,0,1,4.57-10A46,46,0,0,1,469,85.22a26.15,26.15,0,0,1,4.74-4.58,17.77,17.77,0,0,1,16.78-1.35A15.44,15.44,0,0,1,497,84.37a28.05,28.05,0,0,1,4.41,8.13,63.24,63.24,0,0,1,3.39,20.67,102,102,0,0,1-1.87,21.35q7.63-4.91,14.57-10.33A37.1,37.1,0,0,0,528.5,110.12Zm-53.19,44.56a18.24,18.24,0,0,0-4.24,2.88c-.9.91-1.07,1.76-.5,2.55q1.68,2.88,6.09-4.07c.57-.9,1.07-1.81,1.53-2.71Q476.66,154,475.31,154.68Z"/><path d="M553.92,79.12q-.87,6.78-1.52,14.06c-.34,4.86-.58,9.6-.68,14.24a173.88,173.88,0,0,0,.34,22.36q.84,9.32,3.36,9.32,3.69.17,7.72-8.65a103.58,103.58,0,0,0,6.72-20.84q1.35-6.76,2.18-13.72a107.64,107.64,0,0,0,.86-13.38,11.59,11.59,0,0,1,1.18-4.07,6.87,6.87,0,0,1,2.54-2.54c2.94-1.69,6.43-1.41,10.51.85a11.66,11.66,0,0,1,6.6,10c-.56.22-1,1.13-1.18,2.71s-.46,3.61-.68,6.09c-.24,4.86-.28,11.08-.18,18.64s-.1,15.87-.34,24.57a17.05,17.05,0,0,1-.16,2.54c1.8-2,3.66-4.12,5.6-6.27q5.91-6.78,11.18-13.89a96.87,96.87,0,0,0,8.8-14.23,22.3,22.3,0,0,1,3.39-.68,8.11,8.11,0,0,1,3.56.51A108,108,0,0,1,614.23,123q-5.58,8-11.68,15.42-5.94,6.95-11.7,13.38v4.41q-.51,8.81-1.36,17.28a135.49,135.49,0,0,1-5.58,27.27q-3.88,11.87-11.19,15.43a20.59,20.59,0,0,1-8.56,2.19h-.84a10.7,10.7,0,0,1-6.72-2.87c-3.38-3-4.94-8.08-4.72-15.09s2.58-14.51,7.06-22.52q4.2-7.64,14.12-17.79.18-9,0-17V131.3a36.53,36.53,0,0,1-3.56,8.47,39.31,39.31,0,0,1-8,9.83,22.53,22.53,0,0,1-5.6,3.56,14.16,14.16,0,0,1-6.1,1.35,18.42,18.42,0,0,1-11.17-3.22,21.8,21.8,0,0,1-6.78-9,40.25,40.25,0,0,1-3.56-13,133.06,133.06,0,0,1-.84-14.91v-.51c0-3.39.06-6.71.17-10s.45-6.55.67-9.49q.67-8.48,1-14.57.35-5.94-1-7.12,2.22-4.23,9.56-4.4h.18A18.22,18.22,0,0,1,550,72.18a16.76,16.76,0,0,1,2.72,3A8.85,8.85,0,0,1,553.92,79.12ZM564.76,183q-5.25,10.51-2.38,15.6c1.92,3.49,3.68,4.9,5.26,4.23,1.36-.57,2.44-2.94,3.22-7.12a142.53,142.53,0,0,0,1.52-14.9c.24-3.05.4-6.27.52-9.66A55.82,55.82,0,0,0,564.76,183Z"/><path d="M27.65,195.65a10.28,10.28,0,0,1,2.22-5.07,6.85,6.85,0,0,1,3.48-2.53,8.49,8.49,0,0,1,3.17-.63,12.22,12.22,0,0,1,4.91,1.11,13.43,13.43,0,0,1,6.17,4.91c.11,1.26.16,2.85.16,4.75s.16,4.17.16,7.12c1.69-3.16,4.59-6.23,8.71-9.18a26.06,26.06,0,0,1,13.3-4.91,17.86,17.86,0,0,1,7.77,1.11,17.56,17.56,0,0,1,7.12,4.75A18.63,18.63,0,0,1,89.26,205a23.62,23.62,0,0,1,.47,9,47,47,0,0,1-7.28,18.84A145.61,145.61,0,0,1,70.89,249.5q-3,3.81-5.55,6.49c-1.58,1.8-2.75,3.12-3.48,4a66.41,66.41,0,0,1,11.56-1,34.36,34.36,0,0,1,14.89,2.7,22,22,0,0,1,7,4.43,17.56,17.56,0,0,1,4.75,7.29,39.23,39.23,0,0,1,2.22,13,45.08,45.08,0,0,1-6.18,22.8,45.26,45.26,0,0,1-18.69,18.06q-11.88,6-24.08,0-3.79-2.68-4.74-8.4-1-5.53,6-11.88a12,12,0,0,0,6.17,2.54,7.57,7.57,0,0,0,5.07-1.11,11.75,11.75,0,0,0,4.27-4.28,29.27,29.27,0,0,0,3.17-6.33A46.73,46.73,0,0,0,75.64,284q.15-7.12-1.74-10.3c-3.07-4.74-7.76-6.44-14.1-5.06a32.92,32.92,0,0,0-13.15,6.65q-.46,12.51-.79,23.75-.47,14.26-.15,23.29a65.07,65.07,0,0,0,.63,7.92c.31,2,.79,3.16,1.42,3.48-.84,2.22-2.75,3.75-5.7,4.59a20,20,0,0,1-5.7.8c-1.06,0-2.17-.06-3.33-.16a20.07,20.07,0,0,1-6-1.9,12.09,12.09,0,0,1-4.28-3.65q-1.74-5.54-1.9-16.31,0-10.61.79-24.07c.32-4.75.68-9.72,1.11-14.89L24,262.65q.94-12.19,1.9-24.08t1.42-22a13.59,13.59,0,0,1-9.66,1.27q-5.39-1.28-7.13-3.33a2.3,2.3,0,0,1-.79-1.58,1.47,1.47,0,0,1,.16-.63,2.93,2.93,0,0,1,1.58-1.59q2.7.17,8.56-4A18.38,18.38,0,0,0,27.65,195.65Zm20.27,45.78q-.31,9.66-.63,19.16l.63-.47a20.67,20.67,0,0,0,4.28-4.28,37.26,37.26,0,0,0,4.91-8.56A78.69,78.69,0,0,0,60.59,237a91.81,91.81,0,0,0,3.17-18.84q.48-9-1.11-10.78-2.85-3.33-8.07,0t-6.5,8.08Q48.23,227.65,47.92,241.43Z"/><path d="M136,262.49a77.53,77.53,0,0,1-.47,10q-.8,6.81-1.74,14.73-.48,4.11-1,8.39-.31,4.13-.63,8.08A75.32,75.32,0,0,0,132.5,316c.31,3.49,1.32,5.54,3,6.18s3.37.21,5.38-.95a26.47,26.47,0,0,0,6-4.91,98.62,98.62,0,0,0,11.56-16.47q5.86-10.14,10.14-19a24.63,24.63,0,0,1,3-.47,5.06,5.06,0,0,1,2.85.95,124,124,0,0,1-5.55,12.19,143.91,143.91,0,0,1-7.6,13.62,92.3,92.3,0,0,1-5.86,8.55,91.81,91.81,0,0,1-6.33,7.77,48.58,48.58,0,0,1-13,10,18.49,18.49,0,0,1-8.39,2.06,17.36,17.36,0,0,1-5.23-.79,12,12,0,0,1-7-5.38,25.82,25.82,0,0,1-3.33-9.19,58.58,58.58,0,0,1-.79-9.82,27.22,27.22,0,0,1,.16-2.85q.16-6.81,1-13.78,1.59-13,3.17-23.76,1.74-10.6-.95-12.35,1.09-4.59,7.6-5.54a22.15,22.15,0,0,1,2.54-.16,11.43,11.43,0,0,1,8.23,3.17,7.19,7.19,0,0,1,2.22,3A14,14,0,0,1,136,262.49Zm2.85-38.64v.47c0,1.69-.9,3.32-2.69,4.91a8.8,8.8,0,0,1-5.54,2.38h-.32a26.16,26.16,0,0,1-9.5-2.38q-5.23-2.05-5.55-6.49v-.48q0-3.8,4.44-6.65a17.13,17.13,0,0,1,8.55-2.69h.48a9.41,9.41,0,0,1,6.81,3.64A13.37,13.37,0,0,1,138.83,223.85Z"/><path d="M186.82,255.68a17.45,17.45,0,0,0,4.44-.63q4.43-1,9.5-2.38a27,27,0,0,1,9-1.42,9.83,9.83,0,0,1,3.65.63,6.09,6.09,0,0,1,2.53,2.38q.79,2.37-.32,12.51t-2.53,22.17q-1.11,9.66-1.58,18.69a65.39,65.39,0,0,0,.31,14.73,11.26,11.26,0,0,0,1.43,4.91A2.84,2.84,0,0,0,215.8,329q4.13,0,10.45-8.55a217.86,217.86,0,0,0,12.36-18.69q4-6.81,7.13-13.14t4.75-10a15.39,15.39,0,0,1,3-.31,9.67,9.67,0,0,1,3,.47,203.1,203.1,0,0,1-9.35,20A145.73,145.73,0,0,1,232.59,322a65.76,65.76,0,0,1-11.09,11.72q-5.7,4.59-10.92,4.59h-.16q-15.84-.15-22.65-17.73-6.66-17.75,1.58-57.18a40.85,40.85,0,0,1-5.54-.63c-1.16,2.53-2.38,5.06-3.64,7.6q-5.07,10-6.49,13.46c-1.27.21-2.38.37-3.33.47a8.13,8.13,0,0,1-3-.63q1.57-3,4.12-8.39,2.37-5.38,5.07-11.4c.52-1.16,1-2.28,1.42-3.33a27.66,27.66,0,0,1-4.59-3.64,17.16,17.16,0,0,1-5.39-12,15.27,15.27,0,0,1,4.12-11.41,13.17,13.17,0,0,1,5.7-3.48,16.17,16.17,0,0,1,5.07-.79c1,0,2.11.06,3.17.16q5.39.8,5.38,7a49.52,49.52,0,0,1-2.85,14.25l-1.9,5.07Zm-2.54-16.16c-2.32-.31-3.59,2-3.8,7a17.7,17.7,0,0,0,.64,6.33c.73-1.9,1.43-3.75,2.06-5.55Q185.87,239.69,184.28,239.52Z"/><path d="M286.12,223.85a3.93,3.93,0,0,1,1.75,3.32.65.65,0,0,1-.16.47,4.15,4.15,0,0,1-2.22,3.65H273q-1.11,8.07-2.53,18.69-2.07,14.9-3.49,29.77-1.27,12.36-1.74,23.29a113.37,113.37,0,0,0,.63,17.89,24.06,24.06,0,0,0,1.74,6.18,4.72,4.72,0,0,0,2.86,2.85q4.59,1.43,10.6-7a152.05,152.05,0,0,0,11.57-19.64q3.17-6,5.86-11.87,2.85-5.87,5.06-10.62a25.26,25.26,0,0,1,3-.47,5.78,5.78,0,0,1,3,.95q-3.8,9.18-10.76,23.28a125.25,125.25,0,0,1-16,24.55,48.56,48.56,0,0,1-12.35,10.77,17.58,17.58,0,0,1-8.56,2.38,16.09,16.09,0,0,1-4.43-.64,12.35,12.35,0,0,1-6.34-4.28,26.15,26.15,0,0,1-4.28-7.6q-2.84-8.55-3-21.06v-2.22a242.25,242.25,0,0,1,1.27-24.23q1.74-17.12,4.75-33.58,1.76-9.81,3.17-17.58-4.44-.15-10.29-.32c-1.91.22-2.85-.79-2.85-3v-.31c.1-2.32.94-3.54,2.53-3.64q3.48-.16,6.81-.16c1.69,0,3.38.05,5.07.16a20,20,0,0,1,.47-2.7c.64-3.9,1.11-7.12,1.43-9.66s.32-4,0-4.43a5.39,5.39,0,0,1,.95-2.06,6.81,6.81,0,0,1,1.58-1.42,8,8,0,0,1,3.65-.8,14.24,14.24,0,0,1,6,1.58q5.87,2.7,6.81,7.93a20.21,20.21,0,0,1-.16,4.11q-.46,3.48-1.1,8.55h1.9c2.42,0,4.54,0,6.34-.16A8.66,8.66,0,0,0,286.12,223.85Z"/><path d="M299.91,209.12a13.46,13.46,0,0,1,4.27-3.65,11.18,11.18,0,0,1,4-.79H309a14.52,14.52,0,0,1,8.3,4,16.14,16.14,0,0,1,5,7.44q.63,17.43-.16,30.89-.63,13.62-.79,28.35c.42-1.05,1.42-3.17,3-6.33a25.27,25.27,0,0,1,7.28-8.56,24.39,24.39,0,0,1,5.71-3.16,17.19,17.19,0,0,1,7.12-.8,11.82,11.82,0,0,1,7.92,3.81,24,24,0,0,1,4.91,8.71,59.7,59.7,0,0,1,2.69,12.5q.79,7,.95,14.26.31,13.47,0,24.55-.31,11.25,2.38,12.19,3.33,1.27,9.5-7.12a220.91,220.91,0,0,0,11.88-19q4-7,7.13-13.46t4.75-10a11.69,11.69,0,0,1,3-.79,5.07,5.07,0,0,1,3.17,1.27c-1.17,2.64-3,6.59-5.55,11.87a179.87,179.87,0,0,1-8.71,16.48q-2.54,4.42-5.38,8.87t-5.7,8.07A60.4,60.4,0,0,1,366,339.94a13.33,13.33,0,0,1-7.78,2.85,9.76,9.76,0,0,1-3-.47,16.93,16.93,0,0,1-8.62-6,30.51,30.51,0,0,1-4.94-9.82,52.84,52.84,0,0,1-2.4-12.83q-.46-7-.31-13.94.31-12.82,1.11-23t-2.2-10.61c-2.41-.31-4.71.9-6.91,3.65a40.3,40.3,0,0,0-5.5,9.82,39.5,39.5,0,0,0-2.35,7.28,25.31,25.31,0,0,0-.94,6.18q-.16,8.38-.32,25a15.51,15.51,0,0,1-5.11,7.92q-4,3.5-7.83,2.69a6.46,6.46,0,0,1-3.19-1.58,9.55,9.55,0,0,1-2.4-3.64,139.24,139.24,0,0,1-1.43-23.6q0-14.1.48-28.83.32-7.76.64-15.2.31-7.6.47-14.41.32-12.68-.32-21.7Q302.44,210.87,299.91,209.12Z"/><path d="M439,242.85q1.74-13.46,2.69-23.28l1.11-11.72a15.85,15.85,0,0,1,3.64-6.34,6.31,6.31,0,0,1,4.28-1.9h.47c2.64,0,5.28,1.17,7.92,3.49q4.28,3.79,6.81,6.33c-.42.32-.95,1.64-1.58,4s-1.53,5.6-2.38,9.51q-2.22,11.08-4.91,28-2.52,17.1-4.27,34.53c-.53,5.06-.95,10-1.27,14.88s-.58,9.61-.79,13.94a148.14,148.14,0,0,0,.63,20.27c.64,5.49,1.9,8.61,3.81,9.35q3.47,1.26,10.45-8.4T480,313.17q4.74-8.55,9.18-16.95t7.29-14.41a8,8,0,0,1,3.33-.79,10,10,0,0,1,3.16.79q-3,6.49-7.91,16.32t-10.62,19.95a170,170,0,0,1-11.87,18.53,56.5,56.5,0,0,1-12.36,13,21.68,21.68,0,0,1-6.65,3.32,11.14,11.14,0,0,1-2.69.32,10.18,10.18,0,0,1-3.49-.63,16.81,16.81,0,0,1-8.23-6.18,30.52,30.52,0,0,1-4.6-9.5,57.78,57.78,0,0,1-1.74-20.59,150,150,0,0,0,.79-15.84c-.21.63-.58,1.58-1.1,2.85a44.84,44.84,0,0,1-1.75,4.6,64.66,64.66,0,0,1-5.38,10.29,26,26,0,0,1-8.4,8.55,19.33,19.33,0,0,1-7.28,2.69,18.54,18.54,0,0,1-9-1.1q-8.72-3.18-11.24-13.47a51.19,51.19,0,0,1-1.59-12.83,61.67,61.67,0,0,1,.79-9.66,95.93,95.93,0,0,1,2.22-10.29c1.05-3.38,2.22-6.65,3.48-9.82a61.77,61.77,0,0,1,9.35-14.73q5.55-6,11.88-6.65a36.34,36.34,0,0,1,8.87.16,35.12,35.12,0,0,1,9.82,2.53,16.67,16.67,0,0,1,3,1.59Q438.17,248.86,439,242.85Zm-13.15,22a42.7,42.7,0,0,0-8.39,13.47q-1.43,3.48-2.69,7.29a64.86,64.86,0,0,0-1.74,7.59,39.72,39.72,0,0,0-.64,12c.32,3.49,1.53,5.65,3.64,6.5a4.4,4.4,0,0,0,4-.32,11.62,11.62,0,0,0,3.65-3.8q3.15-5.07,5.86-14.57,2.69-9.35,4.9-20.43c.53-3.28,1.06-6.6,1.59-10a.49.49,0,0,0-.32-.16Q430.73,259.64,425.81,264.86Z"/><path d="M546.19,252.2c.63-3.06,2.69-4.6,6.18-4.6h1.73q6.66.79,9.51,6a11.75,11.75,0,0,1,.95,4,10.76,10.76,0,0,1-.79,4.59q-2.7,2.85-5.39,13.78Q555.85,287,554.1,300q-.79,5.7-1.42,11.24c-.31,3.7-.58,7.28-.79,10.77a132.52,132.52,0,0,0,0,16c.32,4.33,1.1,6.7,2.37,7.13q3.48,1.09,10.14-8.87,6.5-10,13.3-23,4.44-8.7,8.55-17.26t6.66-14.58a8.91,8.91,0,0,1,3.32-.63,14.72,14.72,0,0,1,3.17.32q-2.83,6.49-7.29,16.63-4.27,10.14-9.65,20.43a207.76,207.76,0,0,1-11.09,19q-5.86,8.87-11.88,13.46a21.73,21.73,0,0,1-6.34,3.64,10.84,10.84,0,0,1-3.17.48,9.33,9.33,0,0,1-3-.48,18.09,18.09,0,0,1-8.72-5.86,28.19,28.19,0,0,1-5.06-9A54.77,54.77,0,0,1,530.67,319a140.4,140.4,0,0,1,1.58-16c-.31.1-1.27,1.69-2.86,4.75a60.14,60.14,0,0,1-6.32,9.34,42.62,42.62,0,0,1-4.76,4.91,26,26,0,0,1-5.54,3.8,16.25,16.25,0,0,1-7.76,1.58,14.83,14.83,0,0,1-8.56-3.16,16.49,16.49,0,0,1-5.06-5.71A25.44,25.44,0,0,1,489,310.8a29,29,0,0,1-.47-5.39,53.26,53.26,0,0,1,1.58-12.35,78.79,78.79,0,0,1,7.13-18.53A61.65,61.65,0,0,1,508.65,259q6.66-6.65,13.78-7.75a24.39,24.39,0,0,1,4.27-.32,45.43,45.43,0,0,1,5.24.32,36.22,36.22,0,0,1,9.49,2.21,13.25,13.25,0,0,1,3.81,2.22C545.66,254.2,546,253,546.19,252.2Zm-7.29,8.39a12.64,12.64,0,0,0-5.7,1.42,24.55,24.55,0,0,0-8.55,7.29,63.38,63.38,0,0,0-6.82,11.25,55.65,55.65,0,0,0-5.22,17.89q-1.11,8.71,3.17,10.93,2.85,1.42,7.13-4.59a103.51,103.51,0,0,0,8.55-14.89,235.14,235.14,0,0,0,9.65-22.49q1.27-3.33,2.07-5.86A10.15,10.15,0,0,0,538.9,260.59Z"/><path d="M611.91,254.41c-.54,4.23-1,8.61-1.42,13.15s-.54,9-.64,13.3a164.44,164.44,0,0,0,.32,20.91q.78,8.72,3.14,8.71,3.45.16,7.22-8.08a97.85,97.85,0,0,0,6.28-19.48q1.26-6.33,2-12.83a102.93,102.93,0,0,0,.8-12.51,10.52,10.52,0,0,1,1.11-3.8,6.37,6.37,0,0,1,2.37-2.38q4.13-2.37,9.82.8a10.9,10.9,0,0,1,6.18,9.34c-.53.21-.91,1.06-1.11,2.53s-.42,3.38-.64,5.71q-.32,6.81-.16,17.42,0,10.77-.31,23a16.2,16.2,0,0,1-.16,2.38l5.23-5.86q5.53-6.33,10.45-13a90.57,90.57,0,0,0,8.23-13.3,21.69,21.69,0,0,1,3.17-.64,7.62,7.62,0,0,1,3.33.48,100.75,100.75,0,0,1-8.87,15.2q-5.24,7.45-10.93,14.41c-3.7,4.34-7.34,8.5-10.92,12.52v4.12q-.48,8.24-1.27,16.15a127,127,0,0,1-5.23,25.5q-3.65,11.08-10.45,14.41a19.23,19.23,0,0,1-8,2.06h-.79a10.08,10.08,0,0,1-6.28-2.69q-4.73-4.28-4.4-14.1t6.6-21.06q3.92-7.12,13.19-16.63c.11-5.6.11-10.87,0-15.84V303.2a34.69,34.69,0,0,1-3.32,7.91A37.06,37.06,0,0,1,619,320.3a20.84,20.84,0,0,1-5.24,3.32,13.12,13.12,0,0,1-5.7,1.27,17.19,17.19,0,0,1-10.44-3,20.38,20.38,0,0,1-6.34-8.39,37.6,37.6,0,0,1-3.33-12.2,122.77,122.77,0,0,1-.79-13.94v-.47q0-4.75.16-9.34c.21-3.17.42-6.12.63-8.87q.63-7.92,1-13.62c.21-3.7-.11-5.91-1-6.66,1.38-2.63,4.36-4,8.94-4.11h.16a17,17,0,0,1,11.15,3.64,15.77,15.77,0,0,1,2.56,2.85A8.32,8.32,0,0,1,611.91,254.41Zm10.14,97.09q-4.92,9.81-2.23,14.57c1.8,3.27,3.43,4.59,4.92,4,1.26-.53,2.27-2.75,3-6.65a135.47,135.47,0,0,0,1.42-13.94q.32-4.28.48-9A51.69,51.69,0,0,0,622.05,351.5Z"/><path d="M320.56,215.35a164.43,164.43,0,0,1,.53,57"/><path d="M55.11,1239.25v18.81a18.76,18.76,0,0,0,18.76,18.76H295.61v11.28h23.3c-11.87,13.71-19.54,35.54-19.54,60.12,0,29.76,11.24,55.47,27.54,67.65h-20v5.64a5.63,5.63,0,0,0,5.63,5.63h10c-13.88,13.26-23.12,36.9-23.12,63.88,0,20.49,5.33,39.06,14,52.61h-14v5.65a5.59,5.59,0,0,0,2.21,4.44c-77.38,7.66-180.71,30.8-180.71,46.28h454.7c0-15-108.55-37.1-182.14-45.47a5.62,5.62,0,0,0,3.64-5.25v-5.65h-14c8.65-13.55,14-32.12,14-52.61,0-27-9.24-50.62-23.12-63.88h10a5.63,5.63,0,0,0,5.63-5.63v-5.64h-20c16.3-12.18,27.54-37.89,27.54-67.65,0-24.58-7.67-46.41-19.54-60.12h23.3v-11.28H622.57a18.76,18.76,0,0,0,18.76-18.76v-18.81Z"/><path d="M459.67,821.39a154.33,154.33,0,0,1,17.19,33.11l.83.13a155.17,155.17,0,0,1,23.78-28.82c29.12-26.92,73.8,10.57,61.51,42.32-.05.11-.11.24-.15.35,58,8.72,100.19,12.31,103.87.61,22.1-70.25,20.74-183,27.37-258.53S694.92,447,657,428.08s-472.18-45.81-578.3-37.42S5.18,488,3.28,590.73c-1,55.45-2.12,51.43,1.49,116.55C13.37,861.8,99.23,833.4,251.6,828.84c37.44-1.12,87.08,4.34,139,11.92C394.59,811.73,439,792,459.67,821.39Zm-103.5-84.75c-8.09-.43-24.06-15.82-24.12-15.92C330,718.4,267.4,640.9,260.76,594.3c-6.51-45.75,59.32-83.35,88-39.48,9,13.73,16.13,29.49,22,46.09,9.17-15,19.47-28.92,31.12-40.47,37.29-37,93.73,13.67,77.79,57-16.21,44.1-95.54,108.11-95.58,108.15C378.05,731.84,364.27,738,356.17,736.64Z"/><path d="M488.39,947c-4.69,4.54-15.49,9-21.87,7.94-6.37-.36-19-11.75-19.07-11.82-1.53-1.6-45-51.76-55.17-86.27-52-7.61-101.84-13.1-139.38-12-100,3-171.33,16.24-211-18.65a20.06,20.06,0,0,0-5.52,3.39c-33.33,31.11-6.06,147.76-7.58,270.25s28.78,122.49,83.31,124.43,339.28-5.83,415-3.89c0,0,120.27,11.59,130.87-32.16s25-181.78,20.45-226.5c-2.18-21.47-1.2-50.52-10.63-76.23-4.77,11.82-51.07,7.17-113.2-2.46C533.59,913.08,488.42,947,488.39,947Zm-147.81,53.4c-12,32.69-70.82,80.14-70.86,80.18-4.45,4.61-14.66,9.21-20.67,8.17-6-.32-17.83-11.73-17.88-11.8-1.53-1.72-47.93-59.17-52.85-93.72-4.83-33.91,44-61.79,65.24-29.27,6.65,10.18,11.95,21.86,16.28,34.17,6.81-11.13,14.44-21.44,23.08-30C310.56,930.74,352.4,968.27,340.58,1000.41Z"/></g></g></svg>