<svg id="Capa_1" data-name="Capa 1" xmlns="http://www.w3.org/2000/svg" xmlns:xlink="http://www.w3.org/1999/xlink" viewBox="0 0 897.79 1003.73"><defs><style>.cls-1{fill:none;}.cls-2{fill:#fff5d9;}.cls-3{clip-path:url(#clip-path);}.cls-4{fill:#dd9103;}.cls-5{fill:#fed88a;}.cls-6{fill:#fce1de;}.cls-6,.cls-7{fill-rule:evenodd;}.cls-7{fill:#f9cbd1;}.cls-8{fill:#e06d76;}</style><clipPath id="clip-path" transform="translate(0.16 -77.77)"><rect class="cls-1" x="236.99" y="204.77" width="338" height="781"/></clipPath></defs><path class="cls-2" d="M795.24,600C715,513.75,674.07,420.5,643.38,294.07,566-24.77,286.19,56.91,158.88,232.24,76,346.39,71,406.23-.16,499.54c.25,40.23.34,80.82.34,86.89,0,7.57.31,65.46,0,112l.67,0c1.08,0,1.16,45.4,1.22,50.37.46,40.54.48,81.09.5,121.63,0,11.44,0,139.1-1.21,166.74q0,21.3-.07,42.61,5.06-1.92,10.1-3.94c271.89-108.53,393.34-17.82,595.14,3.91C844.94,1105.47,1016.38,837.83,795.24,600Z" transform="translate(0.16 -77.77)"/><g class="cls-3"><path class="cls-4" d="M403.68,508.55h5.88V348.44h-5.88Z" transform="translate(0.16 -77.77)"/><path class="cls-4" d="M352.63,242.06c1,.12,1.49.61,1.49,1.47a2.5,2.5,0,0,1-.09.66,3.05,3.05,0,0,1-2,2.31c.05.67.14,1.33.25,2,.32,3.2.62,6.31.9,9.35q.9,8.36,1.48,14.55c.22,2.59.32,4.55.32,5.86a11.08,11.08,0,0,1-.08,1.73,5.56,5.56,0,0,1-1.06,2.15A11.26,11.26,0,0,1,352,284.2a15.25,15.25,0,0,1-4.64,2.89,8.11,8.11,0,0,1-3,.73,5,5,0,0,1-1.58-.25,4.58,4.58,0,0,1-1.24-.74,5.08,5.08,0,0,1-.83-1.49q-.48-10.84-.74-24.48c-.06-3.91-.08-7.74-.08-11.5v-1.65c-2.69.1-5.56.24-8.64.41q-3.69.16-7,.41-.15,6.21-.73,12.08a78,78,0,0,1-3.38,16.87.3.3,0,0,0-.08.16,4.79,4.79,0,0,1-2.63,2.57,6.24,6.24,0,0,1-2.38.48,5.93,5.93,0,0,1-1.73-.24,4,4,0,0,1-1.48-1.08,4.26,4.26,0,0,1-1.15-1.82,52,52,0,0,0,1.31-7.94c.33-3.25.57-6.86.74-10.83q.33-7.2.25-15.3t-.41-16q-.16-4.14-.41-8.11c-.16-2.65-.44-5.15-.66-7.52.6-1.66,1.62-2.48,3-2.48a5.26,5.26,0,0,1,1.57.25c2.3.77,4.06,2.83,5.26,6.2a106.23,106.23,0,0,1,1.89,11.49c.49,4,.8,8,.9,12,.06,1.81.08,3.61.08,5.36l1.9-.08q3.45-.16,6.9-.25l6.83-.16c0-3.31.05-6.56.16-9.77q.17-6.94.49-13.15t.91-11.22a6.17,6.17,0,0,1,1.22-2.72,6.24,6.24,0,0,1,2.34-1.83,7.36,7.36,0,0,1,3-.74,4.21,4.21,0,0,1,2.16.57,3.62,3.62,0,0,1,1.24,1.16,3.45,3.45,0,0,1,.74,1.82c-.9.59-1.48,2.35-1.72,5.28a94.31,94.31,0,0,0-.08,10.5q.07,3.31.41,7.11c.19,2.49.41,5,.66,7.61.11,1.22.19,2.46.25,3.73A8.26,8.26,0,0,0,352.63,242.06Z" transform="translate(0.16 -77.77)"/><path class="cls-4" d="M388.16,242.23c.32-1.6,1.4-2.4,3.2-2.4h.9A6,6,0,0,1,397.2,243a6,6,0,0,1,.48,2.07,5.63,5.63,0,0,1-.41,2.4q-1.39,1.45-2.79,7.19t-2.23,12.57q-.4,3-.73,5.86c-.17,1.95-.3,3.8-.42,5.62a72.86,72.86,0,0,0,0,8.36c.17,2.26.58,3.49,1.24,3.72,1.2.38,3-1.16,5.26-4.63a132.73,132.73,0,0,0,6.91-12q2.3-4.53,4.44-9t3.45-7.61a4.67,4.67,0,0,1,1.73-.33,7.55,7.55,0,0,1,1.64.17L412,266q-2.22,5.3-5,10.67a109,109,0,0,1-5.75,9.93,28.68,28.68,0,0,1-6.17,7,11,11,0,0,1-3.29,1.9,5.35,5.35,0,0,1-1.64.25,4.85,4.85,0,0,1-1.56-.25,9.3,9.3,0,0,1-4.53-3.06,14.66,14.66,0,0,1-2.63-4.71,28.77,28.77,0,0,1-1.31-10.67,73.07,73.07,0,0,1,.82-8.35,10.24,10.24,0,0,0-1.48,2.48,32.18,32.18,0,0,1-3.29,4.89,22.12,22.12,0,0,1-2.47,2.56,13.46,13.46,0,0,1-2.87,2,8.41,8.41,0,0,1-4,.83,7.64,7.64,0,0,1-4.43-1.65,8.69,8.69,0,0,1-2.64-3,13.46,13.46,0,0,1-1.23-4.05,15.65,15.65,0,0,1-.25-2.82,28,28,0,0,1,.83-6.44,41.22,41.22,0,0,1,3.71-9.67,32.39,32.39,0,0,1,5.92-8.11,13.15,13.15,0,0,1,7.16-4.05,12.62,12.62,0,0,1,2.22-.16,24.48,24.48,0,0,1,2.71.16,19.07,19.07,0,0,1,4.93,1.18,6.52,6.52,0,0,1,2,1.16C387.88,243.27,388.05,242.67,388.16,242.23Zm-3.79,4.39a6.53,6.53,0,0,0-3,.75,12.91,12.91,0,0,0-4.44,3.8,33.53,33.53,0,0,0-3.53,5.86,29.33,29.33,0,0,0-2.72,9.35q-.57,4.55,1.65,5.7,1.49.75,3.7-2.39a55.38,55.38,0,0,0,4.44-7.78,123.92,123.92,0,0,0,5-11.74c.44-1.16.8-2.18,1.07-3.06a5.15,5.15,0,0,0-2.22-.5Z" transform="translate(0.16 -77.77)"/><path class="cls-4" d="M453,258.53a7.71,7.71,0,0,1,2-.25,2.93,2.93,0,0,1,1.4.25,23.35,23.35,0,0,1-5.24,7.93,42.57,42.57,0,0,1-7.32,5.79q-2.19,1.32-4.37,2.48a37,37,0,0,1-2.87,6.95q-2.55,4.54-6.09,5.95a7.82,7.82,0,0,1-3,.42,7.94,7.94,0,0,1-3.78-.92,6.15,6.15,0,0,1-1.64-1.32,4.73,4.73,0,0,1-.91-2.15,2.27,2.27,0,0,1,.09-1,2.42,2.42,0,0,1,.49-.85,12.57,12.57,0,0,1,2.14-2,54.62,54.62,0,0,1,6.24-3.72c.44-1.22.88-2.51,1.32-3.91a43.93,43.93,0,0,0,1.4-7.28,20.28,20.28,0,0,0-.33-6.86,13.2,13.2,0,0,0-1.45-3.64,7.7,7.7,0,0,0-2.64-2.65q-5.1-3.23-7.31,11.41t-.17,44.25a3.2,3.2,0,0,1-2.39,1.82,9.18,9.18,0,0,1-2.71.41,13.94,13.94,0,0,1-1.45-.08,9.94,9.94,0,0,1-2.22-.58,6.08,6.08,0,0,1-1.81-1.24,4.31,4.31,0,0,1-1.07-1.74,5.66,5.66,0,0,1,0-2.39q1.65.57,2.55-2.57a48,48,0,0,0,1.15-8.6c.11-1.93.17-4,.16-6.28s0-4.58-.08-6.95q-.26-8.19-.9-16.54t-1.46-13.9l-.91-4.94a4.83,4.83,0,0,0-.82-2.23,5.9,5.9,0,0,1,3.88-2,3.09,3.09,0,0,1,1.24.25,8.8,8.8,0,0,1,4.19,3.91,40.46,40.46,0,0,1,.82,6.94c.05,2.7.11,4.55.17,5.54a13.49,13.49,0,0,0,.82-2.39A25.05,25.05,0,0,1,422.3,249a22.43,22.43,0,0,1,1.81-2.64,12.84,12.84,0,0,1,2.3-2.24,8.59,8.59,0,0,1,8.14-.66,7.66,7.66,0,0,1,3.13,2.48,14,14,0,0,1,2.13,4A30.73,30.73,0,0,1,441.44,260a49.87,49.87,0,0,1-.91,10.42q3.71-2.39,7.08-5A18.26,18.26,0,0,0,453,258.53Zm-25.82,21.75a8.5,8.5,0,0,0-2.05,1.41c-.45.43-.53.85-.25,1.24q.81,1.4,3-2c.27-.44.52-.88.74-1.32-.5.22-1,.43-1.4.65Z" transform="translate(0.16 -77.77)"/><path class="cls-4" d="M493.48,258.53a7.79,7.79,0,0,1,2-.25,2.78,2.78,0,0,1,1.39.25,23.3,23.3,0,0,1-5.26,7.94,42.5,42.5,0,0,1-7.31,5.79c-1.48.88-2.94,1.7-4.37,2.48a36.38,36.38,0,0,1-2.88,6.95q-2.55,4.53-6.09,5.95a7.82,7.82,0,0,1-3,.42,7.94,7.94,0,0,1-3.78-.92,6.15,6.15,0,0,1-1.64-1.32,4.73,4.73,0,0,1-.91-2.15,2.27,2.27,0,0,1,.09-1,2.34,2.34,0,0,1,.49-.85,12.57,12.57,0,0,1,2.14-2,57,57,0,0,1,6.24-3.72c.44-1.22.88-2.51,1.32-3.91a43.93,43.93,0,0,0,1.4-7.28,20.28,20.28,0,0,0-.33-6.86,13.27,13.27,0,0,0-1.48-3.64,7.58,7.58,0,0,0-2.63-2.65q-5.1-3.23-7.32,11.41t-.16,44.25a3.22,3.22,0,0,1-2.39,1.82,9.23,9.23,0,0,1-2.71.41,14.13,14.13,0,0,1-1.46-.08,10.08,10.08,0,0,1-2.22-.58,6.21,6.21,0,0,1-1.81-1.24,4.4,4.4,0,0,1-1.06-1.74,5.66,5.66,0,0,1,0-2.39q1.64.57,2.54-2.57a47.16,47.16,0,0,0,1.15-8.6c.12-1.93.17-4,.17-6.28s0-4.58-.11-6.94q-.25-8.19-.91-16.54t-1.45-13.9l-.83-5a4.79,4.79,0,0,0-.83-2.23,5.92,5.92,0,0,1,3.89-2,3.08,3.08,0,0,1,1.23.25,8.78,8.78,0,0,1,4.2,3.91,40.46,40.46,0,0,1,.82,6.94c.05,2.7.11,4.55.16,5.54a12.73,12.73,0,0,0,.82-2.39,25.66,25.66,0,0,1,2.22-4.89,23.71,23.71,0,0,1,1.81-2.64,12.9,12.9,0,0,1,2.31-2.24,8.56,8.56,0,0,1,8.13-.66,7.53,7.53,0,0,1,3.13,2.48,14,14,0,0,1,2.14,4A31,31,0,0,1,482,260a50.54,50.54,0,0,1-.9,10.42q3.69-2.39,7.07-5A18.06,18.06,0,0,0,493.48,258.53Zm-25.81,21.75a8.76,8.76,0,0,0-2.06,1.41c-.44.43-.52.85-.25,1.24q.83,1.4,3-2c.28-.44.52-.88.75-1.32-.5.22-1,.43-1.4.65Z" transform="translate(0.16 -77.77)"/><path class="cls-4" d="M505.82,243.4q-.42,3.3-.74,6.86c-.16,2.37-.28,4.69-.33,6.95a84.69,84.69,0,0,0,.17,10.92c.27,3,.81,4.54,1.63,4.54q1.79.09,3.74-4.22a49.62,49.62,0,0,0,3.26-10.17q.66-3.3,1.06-6.7a54.65,54.65,0,0,0,.42-6.53,5.61,5.61,0,0,1,.57-2,3.4,3.4,0,0,1,1.23-1.24q2.14-1.23,5.11.42a5.71,5.71,0,0,1,3.2,4.88c-.27.11-.48.55-.57,1.32s-.23,1.77-.33,3c-.12,2.37-.14,5.41-.09,9.1s0,7.75-.16,12a10.32,10.32,0,0,1-.08,1.24c.87-1,1.77-2,2.72-3.06q2.86-3.3,5.42-6.78a47.11,47.11,0,0,0,4.27-7,11.47,11.47,0,0,1,1.65-.33,3.92,3.92,0,0,1,1.73.25,53.65,53.65,0,0,1-4.61,7.94q-2.72,3.9-5.67,7.53-2.88,3.39-5.68,6.53V281q-.24,4.31-.66,8.44a65.78,65.78,0,0,1-2.71,13.31q-1.89,5.79-5.43,7.52a9.88,9.88,0,0,1-4.15,1.08h-.41a5.18,5.18,0,0,1-3.26-1.41q-2.46-2.24-2.29-7.36a24.44,24.44,0,0,1,3.43-11,43.24,43.24,0,0,1,6.84-8.68q.09-4.4,0-8.27v-5.8a18.21,18.21,0,0,1-1.72,4.13,19.34,19.34,0,0,1-3.88,4.8,11,11,0,0,1-2.72,1.74,6.88,6.88,0,0,1-3,.66,8.93,8.93,0,0,1-5.43-1.58,10.5,10.5,0,0,1-3.28-4.39,19.73,19.73,0,0,1-1.73-6.34,65.66,65.66,0,0,1-.41-7.28v-.25c0-1.66,0-3.28.09-4.88s.21-3.19.32-4.63q.33-4.14.49-7.11c.11-1.93-.05-3.09-.49-3.48.72-1.37,2.26-2.09,4.64-2.15h.08a7.81,7.81,0,0,1,7.12,3.39A4.41,4.41,0,0,1,505.82,243.4Zm5.26,50.69q-2.55,5.13-1.15,7.61t2.55,2.07c.65-.28,1.16-1.44,1.56-3.48a68.23,68.23,0,0,0,.73-7.28c.12-1.48.2-3.05.26-4.71a27.13,27.13,0,0,0-3.95,5.78Z" transform="translate(0.16 -77.77)"/><path class="cls-4" d="M250.41,300.27a5,5,0,0,1,1.07-2.48,3.36,3.36,0,0,1,1.69-1.23,4.07,4.07,0,0,1,1.54-.31,6,6,0,0,1,2.38.54,6.58,6.58,0,0,1,3,2.39c.05.62.08,1.4.08,2.33s.08,2,.08,3.47a13.48,13.48,0,0,1,4.22-4.48,12.61,12.61,0,0,1,6.46-2.39,9,9,0,0,1,7.22,2.86,8.84,8.84,0,0,1,2.15,3.86,11.65,11.65,0,0,1,.24,4.4,23.11,23.11,0,0,1-3.54,9.19,69.75,69.75,0,0,1-5.61,8.12c-1,1.24-1.87,2.29-2.69,3.17l-1.69,2a32,32,0,0,1,5.61-.49,16.45,16.45,0,0,1,7.23,1.32,10.42,10.42,0,0,1,3.39,2.16,8.52,8.52,0,0,1,2.31,3.56,19.3,19.3,0,0,1,1.08,6.35,22.83,22.83,0,0,1-12.07,19.95,12.39,12.39,0,0,1-11.68,0,6,6,0,0,1-2.31-4.1c-.3-1.8.67-3.74,2.91-5.8a5.87,5.87,0,0,0,3,1.23,3.63,3.63,0,0,0,2.46-.54,5.68,5.68,0,0,0,2.08-2.08,14.31,14.31,0,0,0,1.54-3.08,22.69,22.69,0,0,0,1.15-6.73,9.73,9.73,0,0,0-.84-5q-2.24-3.48-6.84-2.47a15.8,15.8,0,0,0-6.38,3.25c-.16,4.07-.28,7.93-.39,11.59-.15,4.64-.18,8.43-.07,11.37a35.63,35.63,0,0,0,.3,3.86c.16,1,.39,1.55.7,1.7a3.83,3.83,0,0,1-2.77,2.24,9.27,9.27,0,0,1-2.77.39c-.51,0-1.05,0-1.61-.07a9.9,9.9,0,0,1-2.91-.93,5.94,5.94,0,0,1-2.08-1.78,30,30,0,0,1-.92-8q0-5.19.39-11.75.22-3.48.53-7.27l.62-7.58q.48-5.94.92-11.75t.69-10.74a7.59,7.59,0,0,1-8.15-1,1.13,1.13,0,0,1-.27-.34,1.3,1.3,0,0,1-.11-.43.68.68,0,0,1,.08-.31,1.41,1.41,0,0,1,.3-.46,1.55,1.55,0,0,1,.46-.31c.87.05,2.26-.6,4.15-1.95A9,9,0,0,0,250.41,300.27Zm9.84,22.34q-.17,4.72-.32,9.36l.32-.24a9.54,9.54,0,0,0,2.07-2.09,17.58,17.58,0,0,0,2.38-4.17,37,37,0,0,0,1.69-5,44.9,44.9,0,0,0,1.54-9.2c.15-2.93,0-4.69-.54-5.26q-1.38-1.62-3.92,0a6.67,6.67,0,0,0-3.12,3.94Q260.4,315.89,260.25,322.61Z" transform="translate(0.16 -77.77)"/><path class="cls-4" d="M303,332.89a38,38,0,0,1-.23,4.89q-.39,3.32-.84,7.19c-.16,1.34-.31,2.7-.47,4.1s-.2,2.65-.3,3.94a36.8,36.8,0,0,0,.15,6c.15,1.7.64,2.7,1.46,3a2.89,2.89,0,0,0,2.61-.46,12.89,12.89,0,0,0,2.91-2.4,48,48,0,0,0,5.61-8q2.85-4.95,4.92-9.28a12,12,0,0,1,1.46-.23,2.48,2.48,0,0,1,1.38.46,62.44,62.44,0,0,1-2.69,6,69.3,69.3,0,0,1-3.69,6.64,45.83,45.83,0,0,1-2.84,4.18,43,43,0,0,1-3.08,3.78,23.46,23.46,0,0,1-6.31,4.89,9,9,0,0,1-4.08,1,8.67,8.67,0,0,1-2.53-.38,5.81,5.81,0,0,1-3.4-2.63,12.62,12.62,0,0,1-1.62-4.49,28.39,28.39,0,0,1-.38-4.79,10.8,10.8,0,0,1,.08-1.39q.07-3.33.48-6.73.76-6.34,1.54-11.59t-.46-6q.54-2.25,3.69-2.71c.41-.05.82-.07,1.23-.08a5.71,5.71,0,0,1,2.16.36,5.55,5.55,0,0,1,1.86,1.16,3.63,3.63,0,0,1,1.08,1.46A7,7,0,0,1,303,332.89ZM304.37,314v.23a3.28,3.28,0,0,1-1.31,2.4,4.3,4.3,0,0,1-2.69,1.16h-.15a12.74,12.74,0,0,1-4.62-1.16,3.67,3.67,0,0,1-2.69-3.17v-.23a3.93,3.93,0,0,1,2.15-3.25,8.44,8.44,0,0,1,4.16-1.32h.23a4.61,4.61,0,0,1,3.3,1.78A6.62,6.62,0,0,1,304.37,314Z" transform="translate(0.16 -77.77)"/><path class="cls-4" d="M327.66,329.57a8.27,8.27,0,0,0,2.15-.31c1.45-.31,3-.7,4.61-1.16a12.94,12.94,0,0,1,4.37-.69,4.6,4.6,0,0,1,1.76.31,2.79,2.79,0,0,1,1.23,1.15q.39,1.15-.15,6.11c-.36,3.29-.82,6.91-1.23,10.83-.36,3.14-.61,6.18-.77,9.12a31.44,31.44,0,0,0,.16,7.19,5.5,5.5,0,0,0,.69,2.4,1.36,1.36,0,0,0,.49.6,1.31,1.31,0,0,0,.74.24q2,0,5.07-4.17,3.23-4.41,6-9.12,1.94-3.33,3.45-6.42t2.31-4.88a8,8,0,0,1,1.45-.16,4.51,4.51,0,0,1,1.46.24,100.36,100.36,0,0,1-4.53,9.76A71.88,71.88,0,0,1,349.85,362a32.47,32.47,0,0,1-5.39,5.72,8.52,8.52,0,0,1-5.3,2.24h-.07q-7.69-.07-11-8.66t.77-27.9a22.15,22.15,0,0,1-2.69-.31c-.57,1.24-1.15,2.47-1.77,3.71q-2.46,4.88-3.15,6.57c-.62.1-1.15.18-1.61.23a3.86,3.86,0,0,1-1.46-.31c.51-1,1.18-2.34,2-4.09s1.59-3.61,2.46-5.57c.26-.57.48-1.11.69-1.62a13.13,13.13,0,0,1-2.22-1.78,8.12,8.12,0,0,1-1.89-2.67,8.35,8.35,0,0,1-.73-3.19,7.51,7.51,0,0,1,2-5.6,6.24,6.24,0,0,1,2.76-1.69,7.41,7.41,0,0,1,2.46-.39,13.24,13.24,0,0,1,1.54.08q2.61.38,2.61,3.41a24.65,24.65,0,0,1-1.38,7c-.32.82-.63,1.65-.92,2.47Zm-1.24-7.89c-1.12-.15-1.74,1-1.84,3.42a8.49,8.49,0,0,0,.31,3.09c.35-.92.69-1.83,1-2.71C326.76,323,326.94,321.74,326.42,321.68Z" transform="translate(0.16 -77.77)"/><path class="cls-4" d="M375.85,314a1.88,1.88,0,0,1,.63.71,1.91,1.91,0,0,1,.22.91.27.27,0,0,1,0,.13.21.21,0,0,1-.06.1,2.05,2.05,0,0,1-.29,1.05,2,2,0,0,1-.79.73h-6.07q-.54,3.94-1.23,9.12-1,7.28-1.69,14.54-.62,6-.85,11.36a55.46,55.46,0,0,0,.31,8.74,11.82,11.82,0,0,0,.85,3,2.22,2.22,0,0,0,.53.85,2.37,2.37,0,0,0,.85.54q2.22.69,5.15-3.42a74.63,74.63,0,0,0,5.61-9.59q1.53-2.93,2.84-5.79c.93-1.91,1.75-3.63,2.46-5.18a10.31,10.31,0,0,1,1.46-.23,2.83,2.83,0,0,1,1.46.46q-1.85,4.49-5.23,11.36a60.57,60.57,0,0,1-7.77,12,23.38,23.38,0,0,1-6,5.27,8.52,8.52,0,0,1-4.15,1.15,7.45,7.45,0,0,1-2.15-.31,6,6,0,0,1-3.08-2.08,13,13,0,0,1-2.07-3.71,34.15,34.15,0,0,1-1.46-10.28v-1.09c0-3.94.23-7.89.64-11.81q.84-8.35,2.3-16.39c.56-3.19,1.08-6.05,1.54-8.58l-5-.16c-.92.11-1.38-.39-1.38-1.46v-.16c.05-1.13.46-1.72,1.23-1.78,1.13,0,2.23-.07,3.31-.07.82,0,1.64,0,2.45.07a11.58,11.58,0,0,1,.23-1.31c.32-1.9.54-3.48.7-4.72a4.61,4.61,0,0,0,0-2.16,2.59,2.59,0,0,1,.45-1,3.26,3.26,0,0,1,.78-.7,3.84,3.84,0,0,1,1.76-.39,7,7,0,0,1,2.91.77,5.25,5.25,0,0,1,3.31,3.87,9.64,9.64,0,0,1-.08,2c-.15,1.13-.33,2.53-.54,4.18h.93c1.18,0,2.2,0,3.07-.08A4.13,4.13,0,0,0,375.85,314Z" transform="translate(0.16 -77.77)"/><path class="cls-4" d="M382.54,306.85a6.56,6.56,0,0,1,2.07-1.78,5.21,5.21,0,0,1,1.95-.38h.38a7,7,0,0,1,4,1.95,7.88,7.88,0,0,1,2.42,3.63q.32,8.5-.07,15.08t-.39,13.84c.2-.52.69-1.55,1.45-3.1a12.49,12.49,0,0,1,3.54-4.17,11.77,11.77,0,0,1,2.77-1.55,8.27,8.27,0,0,1,3.46-.38,5.69,5.69,0,0,1,3.84,1.85,11.92,11.92,0,0,1,2.39,4.25,29.55,29.55,0,0,1,1.3,6.11c.25,2.28.42,4.6.49,7q.15,6.57,0,12c-.11,3.66.28,5.64,1.15,5.95q1.6.63,4.61-3.47,3.12-4.5,5.77-9.28,1.91-3.42,3.45-6.57t2.31-4.88a5.64,5.64,0,0,1,1.45-.38,2.42,2.42,0,0,1,1.54.61c-.56,1.3-1.46,3.24-2.69,5.8a90.42,90.42,0,0,1-4.22,8c-.82,1.44-1.69,2.89-2.62,4.33s-1.85,2.75-2.77,3.94a29,29,0,0,1-5.53,5.49,6.43,6.43,0,0,1-3.77,1.4,4.51,4.51,0,0,1-1.46-.24,8.15,8.15,0,0,1-4.18-2.93,14.85,14.85,0,0,1-2.41-4.8,26.11,26.11,0,0,1-1.16-6.25q-.22-3.42-.15-6.81.15-6.25.54-11.23t-1.12-5.18c-1.17-.16-2.28.44-3.35,1.77a19.63,19.63,0,0,0-2.67,4.8,18.59,18.59,0,0,0-1.14,3.55,12.41,12.41,0,0,0-.46,3q-.07,4.1-.15,12.2a7.62,7.62,0,0,1-2.48,3.87,4.37,4.37,0,0,1-3.8,1.31,3.11,3.11,0,0,1-1.56-.77,4.74,4.74,0,0,1-1.16-1.78,69.23,69.23,0,0,1-.69-11.51q0-6.88.23-14.08.17-3.78.31-7.42c.1-2.43.18-4.77.23-7,.1-4.12,0-7.64-.15-10.58S383.36,307.42,382.54,306.85Z" transform="translate(0.16 -77.77)"/><path class="cls-4" d="M450,323.31q.86-6.57,1.31-11.37l.54-5.72a7.78,7.78,0,0,1,1.77-3.09,3,3,0,0,1,2.07-.93h.22a5.81,5.81,0,0,1,3.85,1.7q2.07,1.86,3.3,3.09a5.09,5.09,0,0,0-.77,2c-.36,1.18-.74,2.73-1.15,4.64q-1.08,5.4-2.38,13.67t-2.08,16.85c-.25,2.47-.49,4.88-.61,7.26s-.28,4.7-.39,6.81a72.54,72.54,0,0,0,.31,9.89c.31,2.68.92,4.2,1.85,4.56,1.12.42,2.81-.95,5.07-4.09s4.59-6.79,7-10.92q2.31-4.17,4.46-8.28t3.54-7a4.06,4.06,0,0,1,1.61-.39,5,5,0,0,1,1.53.39c-1,2.11-2.25,4.77-3.83,8s-3.3,6.45-5.16,9.76a82.89,82.89,0,0,1-5.76,9.05,27.54,27.54,0,0,1-6,6.34,10.68,10.68,0,0,1-3.23,1.63,5.79,5.79,0,0,1-1.31.15,4.64,4.64,0,0,1-1.69-.31,8.2,8.2,0,0,1-4-3,15.19,15.19,0,0,1-2.23-4.64,28.15,28.15,0,0,1-.84-10.05,74,74,0,0,0,.38-7.73c-.1.3-.28.77-.54,1.39a22.34,22.34,0,0,1-.84,2.24,32.9,32.9,0,0,1-2.62,5,12.58,12.58,0,0,1-4.07,4.17,9.36,9.36,0,0,1-3.54,1.31,8.92,8.92,0,0,1-4.37-.53q-4.21-1.56-5.46-6.58a25.36,25.36,0,0,1-.76-6.26,29.85,29.85,0,0,1,.38-4.72,45.26,45.26,0,0,1,1.07-5q.76-2.48,1.69-4.8a29.8,29.8,0,0,1,4.54-7.19,9.12,9.12,0,0,1,5.76-3.24,17.68,17.68,0,0,1,4.3.07,17.12,17.12,0,0,1,4.77,1.24,8.84,8.84,0,0,1,1.46.77Q449.63,326.25,450,323.31Zm-6.38,10.74a20.87,20.87,0,0,0-4.07,6.57c-.48,1.13-.89,2.32-1.31,3.56a33,33,0,0,0-.84,3.7,19.56,19.56,0,0,0-.31,5.86c.15,1.71.74,2.76,1.77,3.17a2.09,2.09,0,0,0,1,.16,2,2,0,0,0,.95-.31,5.63,5.63,0,0,0,1.77-1.86,28.69,28.69,0,0,0,2.84-7.11q1.31-4.56,2.38-10c.26-1.59.52-3.22.77-4.88a.18.18,0,0,0-.07-.05l-.08,0c-1.6-.91-3.19-.51-4.79,1.19Z" transform="translate(0.16 -77.77)"/><path class="cls-4" d="M502.07,327.87a2.67,2.67,0,0,1,3-2.24h.86a5.66,5.66,0,0,1,4.62,2.92,6,6,0,0,1,.46,2,5.38,5.38,0,0,1-.39,2.24q-1.31,1.39-2.61,6.72t-2.08,11.76c-.26,1.85-.48,3.68-.69,5.48s-.28,3.56-.38,5.26a63.6,63.6,0,0,0,0,7.81c.15,2.12.53,3.28,1.15,3.48q1.69.54,4.92-4.32t6.46-11.23q2.14-4.24,4.14-8.42c1.3-2.79,2.37-5.16,3.23-7.12a4.32,4.32,0,0,1,1.62-.31,8,8,0,0,1,1.54.15l-3.55,8.12q-2.07,5-4.68,10a100.73,100.73,0,0,1-5.39,9.27,26.52,26.52,0,0,1-5.76,6.58,10.59,10.59,0,0,1-3.07,1.77,5.37,5.37,0,0,1-1.54.23,4.25,4.25,0,0,1-1.46-.23,8.73,8.73,0,0,1-4.23-2.86,13.78,13.78,0,0,1-2.46-4.39,27,27,0,0,1-1.23-10,70.24,70.24,0,0,1,.77-7.81,9.59,9.59,0,0,0-1.39,2.32,29.83,29.83,0,0,1-3.07,4.56,20.86,20.86,0,0,1-2.3,2.4,13,13,0,0,1-2.69,1.85,7.79,7.79,0,0,1-3.77.77,7.15,7.15,0,0,1-4.15-1.54,8,8,0,0,1-2.46-2.79,12.45,12.45,0,0,1-1.15-3.78,14.54,14.54,0,0,1-.24-2.63,26.1,26.1,0,0,1,.77-6,38.62,38.62,0,0,1,3.46-9.05,29.88,29.88,0,0,1,5.53-7.58,12.21,12.21,0,0,1,6.69-3.78,11.11,11.11,0,0,1,2.07-.16,21.52,21.52,0,0,1,2.54.16,17.39,17.39,0,0,1,4.61,1.08,6,6,0,0,1,1.85,1.08C501.81,328.85,502,328.28,502.07,327.87Zm-3.54,4.1a6.11,6.11,0,0,0-2.77.69,12,12,0,0,0-4.15,3.56,31.53,31.53,0,0,0-3.31,5.49,27.39,27.39,0,0,0-2.53,8.73q-.54,4.26,1.53,5.34c.93.46,2.08-.29,3.47-2.24a51.26,51.26,0,0,0,4.15-7.27,115.33,115.33,0,0,0,4.69-11c.42-1.08.75-2,1-2.86A4.75,4.75,0,0,0,498.53,332Z" transform="translate(0.16 -77.77)"/><path class="cls-4" d="M534,329q-.39,3.09-.69,6.42c-.15,2.22-.26,4.39-.31,6.49a80.92,80.92,0,0,0,.16,10.21c.25,2.84.76,4.25,1.52,4.25,1.11.05,2.29-1.26,3.51-3.94a49,49,0,0,0,3.05-9.51q.6-3.09,1-6.27a51.76,51.76,0,0,0,.38-6.1,5.46,5.46,0,0,1,.54-1.86,3.12,3.12,0,0,1,1.15-1.16q2-1.16,4.77.39a5.31,5.31,0,0,1,2.13,1.86,5.45,5.45,0,0,1,.89,2.7c-.26.1-.44.52-.54,1.24s-.21,1.65-.31,2.78c-.11,2.22-.13,5.05-.08,8.5s-.05,7.24-.15,11.23a8.77,8.77,0,0,1-.08,1.15l2.54-2.86q2.69-3.09,5.07-6.34a46,46,0,0,0,4-6.49,10,10,0,0,1,1.54-.32,3.7,3.7,0,0,1,1.61.24,50.77,50.77,0,0,1-4.3,7.42q-2.55,3.63-5.31,7-2.68,3.17-5.3,6.11v2q-.22,4-.62,7.89a62.13,62.13,0,0,1-2.53,12.44q-1.77,5.42-5.08,7a9.23,9.23,0,0,1-3.88,1h-.38a4.83,4.83,0,0,1-3.05-1.31q-2.29-2.08-2.13-6.88A22.92,22.92,0,0,1,536.24,374a40.72,40.72,0,0,1,6.41-8.12q.08-4.1,0-7.73v-5.42a17,17,0,0,1-1.61,3.87,18,18,0,0,1-3.62,4.48,9.65,9.65,0,0,1-2.53,1.62,6.2,6.2,0,0,1-2.77.62,8.33,8.33,0,0,1-5.07-1.46,9.74,9.74,0,0,1-3.07-4.1,18.09,18.09,0,0,1-1.62-6A59.54,59.54,0,0,1,522,345v-.23c0-1.54,0-3.06.08-4.56s.2-3,.31-4.32c.2-2.58.36-4.8.46-6.66s-.05-2.88-.46-3.24c.67-1.3,2.11-2,4.33-2h.1a8.2,8.2,0,0,1,5.42,1.78,7.75,7.75,0,0,1,1.23,1.39A4,4,0,0,1,534,329Zm4.92,47.39c-1.59,3.19-2,5.57-1.08,7.11s1.67,2.2,2.39,2,1.1-1.35,1.46-3.25a65.05,65.05,0,0,0,.67-6.82c.1-1.4.18-2.86.23-4.4A25.72,25.72,0,0,0,538.88,376.34Z" transform="translate(0.16 -77.77)"/><path class="cls-5" d="M385.3,246.66c-4.54.28-8.44,3.28-10.78,7.07-2.77,4.46-3.49,9.94-3.7,15.09-.1,2.27.1,4.88,2.06,6.35.37.28.74-.36.36-.64-1.64-1.23-1.76-3.56-1.7-5.45a44.89,44.89,0,0,1,.78-7.32c.88-4.51,2.8-8.89,6.48-11.78a11.84,11.84,0,0,1,6.5-2.59C385.78,247.37,385.78,246.63,385.3,246.66Z" transform="translate(0.16 -77.77)"/><path class="cls-5" d="M415.51,241.2c2.47,3.07,2.57,7.28,2.64,11a.35.35,0,0,0,.1.26.36.36,0,0,0,.52,0,.35.35,0,0,0,.1-.26c-.06-4-.24-8.3-2.84-11.56C415.73,240.32,415.22,240.83,415.51,241.2Z" transform="translate(0.16 -77.77)"/><path class="cls-5" d="M421.76,260.28a109.11,109.11,0,0,0-2.4,17.63c-.2,3-.33,5.93-.48,8.9a83.64,83.64,0,0,0-.09,8.38,27.59,27.59,0,0,0,1.89,9.11c.18.43.88.24.7-.19-2.14-5.15-2.05-10.83-1.82-16.31.26-5.86.49-11.72,1.19-17.54a87.7,87.7,0,0,1,1.7-9.78c.11-.46-.6-.65-.7-.19Z" transform="translate(0.16 -77.77)"/><path class="cls-5" d="M462.55,258.39a241.41,241.41,0,0,0-1.71,28.83c0,2.71,0,5.42.14,8.13a.36.36,0,1,0,.72,0,242.05,242.05,0,0,1,.75-28.88q.35-4.05.83-8.08C463.33,257.9,462.61,257.9,462.55,258.39Z" transform="translate(0.16 -77.77)"/><path class="cls-5" d="M319.47,213.94a60.8,60.8,0,0,1,4.79,30.36c0,.49.69.47.73,0a61.45,61.45,0,0,0-4.89-30.75c-.19-.43-.81-.06-.63.37Z" transform="translate(0.16 -77.77)"/><path class="cls-5" d="M323.69,252.81A59.12,59.12,0,0,1,322,271.59c-.44,1.73-1,3.45-1.57,5.14-.16.44.54.64.7.19a59.9,59.9,0,0,0,3.44-18.65c0-1.82,0-3.64-.13-5.46,0-.49-.76-.49-.72,0Z" transform="translate(0.16 -77.77)"/><path class="cls-5" d="M504.86,243.4c-.37,7.61-3.06,15.3-1,22.88a15.54,15.54,0,0,0,2.52,5.19c.27.37.9,0,.62-.37-4.51-6.05-3.19-14.07-2.16-21,.32-2.22.62-4.45.73-6.69,0-.49-.7-.49-.73,0Z" transform="translate(0.16 -77.77)"/><path class="cls-5" d="M458.67,241.67a80.64,80.64,0,0,0,1,9.17c.08.46.78.27.7-.19a77.32,77.32,0,0,1-1-9A.37.37,0,1,0,458.67,241.67Z" transform="translate(0.16 -77.77)"/><path class="cls-5" d="M260.61,309.83,259.29,331c0,.48.7.48.73,0l1.3-21.13c0-.49-.7-.49-.73,0Z" transform="translate(0.16 -77.77)"/><path class="cls-5" d="M259.23,339.17a197.94,197.94,0,0,0-.62,20.23.37.37,0,0,0,.63.26.4.4,0,0,0,.1-.26,197.94,197.94,0,0,1,.62-20.23C260,338.68,259.27,338.68,259.23,339.17Z" transform="translate(0.16 -77.77)"/><path class="cls-5" d="M301.31,330.73a72.63,72.63,0,0,1,.48,14.29,68.61,68.61,0,0,1-.83,7.29c-.37,2.26-1.12,4.61-.81,6.92a4.79,4.79,0,0,0,3.4,4.22c.45.09.65-.61.19-.71-1.83-.39-2.79-2.29-2.91-4a13.11,13.11,0,0,1,.33-3.42c.21-1.1.42-2.21.6-3.31a73.48,73.48,0,0,0,.89-13.5,74.47,74.47,0,0,0-.62-7.75c-.07-.46-.79-.49-.73,0Z" transform="translate(0.16 -77.77)"/><path class="cls-5" d="M301.51,310.3a3.2,3.2,0,0,1,1,.65,3.14,3.14,0,0,1,.77,3.41.33.33,0,0,0,0,.26.38.38,0,0,0,.15.22.32.32,0,0,0,.27,0,.36.36,0,0,0,.22-.16,3.94,3.94,0,0,0,.28-1.52A3.93,3.93,0,0,0,303,310.4a3.72,3.72,0,0,0-1.31-.82c-.44-.14-.63.56-.19.71Z" transform="translate(0.16 -77.77)"/><path class="cls-5" d="M341.61,332.65c-2.39,8.79-4.07,18.24-1.9,27.26.49,2,1.26,4,3,5.21.38.27.74-.37.36-.63a7.63,7.63,0,0,1-2.61-4.58,35.78,35.78,0,0,1-1-6.51,53.74,53.74,0,0,1,1.07-13.21c.48-2.47,1.07-4.91,1.73-7.34a.26.26,0,0,0,0-.15.28.28,0,0,0,0-.13.33.33,0,0,0-.09-.11l-.13-.07h-.14a.34.34,0,0,0-.14.05.31.31,0,0,0-.11.09.52.52,0,0,0-.06.13Z" transform="translate(0.16 -77.77)"/><path class="cls-5" d="M368.52,317.36q-2.2,12.08-3.57,24.32a120.15,120.15,0,0,0-1,12.13,29.9,29.9,0,0,0,.49,5.82,7.44,7.44,0,0,0,.88,2.41,17.56,17.56,0,0,0,1.16,1.95,3.4,3.4,0,0,0,3.26,1,4.2,4.2,0,0,0,2.67-1.35c.28-.38-.35-.75-.62-.38a3.55,3.55,0,0,1-2.15,1,2.6,2.6,0,0,1-2.71-.94c-.4-.63-.77-1.32-1.13-2a7.5,7.5,0,0,1-.75-2.48,29.6,29.6,0,0,1-.36-5.64c.06-3.79.52-7.58.93-11.35s.91-7.71,1.45-11.55q.94-6.44,2.11-12.84c.08-.46-.62-.66-.7-.19Z" transform="translate(0.16 -77.77)"/><path class="cls-5" d="M392.21,310a80.48,80.48,0,0,1,1,21.47c-.18,2.06-.44,4.1-.77,6.14-.08.45.62.65.7.19a81.26,81.26,0,0,0,.64-21.86q-.33-3.09-.89-6.13c-.08-.47-.79-.27-.71.19Z" transform="translate(0.16 -77.77)"/><path class="cls-5" d="M445.39,333.94a32.08,32.08,0,0,0-6.68,8.55,19.73,19.73,0,0,0-1.8,5,11.62,11.62,0,0,0,0,5.62,5.22,5.22,0,0,0,3.67,3.8c.45.11.65-.6.19-.7a4.56,4.56,0,0,1-3.16-3.29,11.47,11.47,0,0,1,.06-5.37,22.36,22.36,0,0,1,4.39-8.91,37.82,37.82,0,0,1,3.89-4.21c.34-.33-.17-.84-.52-.52Z" transform="translate(0.16 -77.77)"/><path class="cls-5" d="M498.07,332.2a18.1,18.1,0,0,0-9,7.16,25.91,25.91,0,0,0-4,12.39,4.9,4.9,0,0,0,.66,3.31,2.46,2.46,0,0,0,1.14.9,2.4,2.4,0,0,0,1.45.12.39.39,0,0,0,.2-.18.36.36,0,0,0,0-.27.35.35,0,0,0-.41-.26,1.88,1.88,0,0,1-2.09-1.24,6.3,6.3,0,0,1-.18-3,27.62,27.62,0,0,1,1.22-5.9,20.49,20.49,0,0,1,6-9.27,15.83,15.83,0,0,1,5.24-3c.44-.15.25-.86-.19-.71Z" transform="translate(0.16 -77.77)"/><path class="cls-5" d="M532.61,329.47c.29,4.19-.05,8.38-.16,12.57a56.51,56.51,0,0,0,.13,6.24,24.35,24.35,0,0,0,1.1,5.92,2.66,2.66,0,0,0,.54,1.09,2.78,2.78,0,0,0,1,.74,1.57,1.57,0,0,0,1.07,0,1.6,1.6,0,0,0,.87-.64.78.78,0,0,0,0-.14.61.61,0,0,0,0-.14.54.54,0,0,0-.07-.13.32.32,0,0,0-.1-.1.35.35,0,0,0-.28,0,.34.34,0,0,0-.22.17c-.4.65-1.31.27-1.67-.2a5.89,5.89,0,0,1-.82-2.29,31.42,31.42,0,0,1-.76-5.54c-.2-3.72.07-7.45.19-11.17.06-2.12.08-4.24-.07-6.35,0-.49-.76-.49-.73,0Z" transform="translate(0.16 -77.77)"/><path class="cls-6" d="M492.18,800.48c-36.75-1-174.95,2.84-201.41,1.9s-41.16-1-40.43-60.74-12.5-116.73,3.7-131.92,216.85-6.64,265.36-.94,44,43.61,46.25,65.44-4.78,89.21-9.93,110.56-63.51,15.7-63.51,15.7Z" transform="translate(0.16 -77.77)"/><path class="cls-7" d="M359.1,617.17c-74,2.22-115.63,16.11-119.8-59.34-1.75-31.78-1.21-29.82-.72-56.89.92-50.15-14.89-93.56,36.61-97.65s262.28,9,280.66,18.27,21.21,52.23,18,89.07-2.56,91.9-13.29,126.2c-4.7,15-138.56-21.55-201.45-19.65Z" transform="translate(0.16 -77.77)"/><path class="cls-4" d="M263.74,809.67v9.19a9.15,9.15,0,0,0,.7,3.5,9.28,9.28,0,0,0,2,3,9.14,9.14,0,0,0,3,2,9,9,0,0,0,3.48.69H380.46v5.53h11.3c-5.76,6.69-9.48,17.35-9.48,29.35,0,14.52,5.45,27.07,13.36,33h-9.71v2.76a2.77,2.77,0,0,0,2.74,2.75h4.85c-6.74,6.47-11.23,18-11.23,31.18,0,10,2.6,19,6.8,25.68h-6.8V961a2.83,2.83,0,0,0,.29,1.21,2.93,2.93,0,0,0,.79,1c-37.55,3.73-87.7,15-87.7,22.59H516.35c0-7.33-52.69-18.11-88.4-22.2a2.77,2.77,0,0,0,1.77-2.56v-2.76h-6.79c4.19-6.62,6.8-15.68,6.8-25.68,0-13.18-4.49-24.71-11.22-31.18h4.85a2.71,2.71,0,0,0,1.93-.81,2.75,2.75,0,0,0,.8-1.94V895.9h-9.71c7.91-5.94,13.37-18.49,13.37-33,0-12-3.73-22.66-9.48-29.35h11.3V828H539.14a9.08,9.08,0,0,0,6.44-2.68,9.2,9.2,0,0,0,2.66-6.47v-9.21Z" transform="translate(0.16 -77.77)"/><path class="cls-8" d="M432,478.33a103.28,103.28,0,0,0-15.11,19.76,103.94,103.94,0,0,0-10.68-22.5c-13.92-21.42-45.87-3.06-42.71,19.27,3.22,22.75,33.6,60.58,34.6,61.7,0,.05,7.77,7.57,11.71,7.78,3.93.68,10.62-2.34,13.53-5.37,0,0,38.52-31.26,46.39-52.79C477.51,485,450.11,460.29,432,478.33Z" transform="translate(0.16 -77.77)"/><path class="cls-8" d="M480.36,607.87a75.58,75.58,0,0,0-11.77,14.42,76.16,76.16,0,0,0-8.52-16.6c-11.06-15.8-36.1-2.5-33.48,13.91,2.65,16.74,26.76,44.69,27.56,45.54,0,0,6.16,5.6,9.25,5.77,3.09.53,8.34-1.66,10.62-3.87,0,0,30.13-22.75,36.2-38.51C516.18,613,494.5,594.72,480.36,607.87Z" transform="translate(0.16 -77.77)"/><path class="cls-8" d="M374.29,672.46A77.44,77.44,0,0,0,363.1,687.1a78.18,78.18,0,0,0-7.91-16.68c-10.32-15.87-34-2.27-31.66,14.29,2.38,16.86,24.9,44.91,25.65,45.74,0,0,5.77,5.61,8.68,5.77,2.91.49,7.87-1.74,10-4,0,0,28.56-23.18,34.39-39.14C408,677.4,387.71,659.08,374.29,672.46Z" transform="translate(0.16 -77.77)"/></g></svg>