<svg id="Layer_1" data-name="Layer 1" xmlns="http://www.w3.org/2000/svg" viewBox="0 0 1202.17 1809.72"><defs><style>.cls-1{fill:#de9000;}.cls-2{fill:#ffd88a;}.cls-3{fill:#ffe1de;}.cls-3,.cls-4{fill-rule:evenodd;}.cls-4{fill:#ffccd1;}.cls-5{fill:#e06e77;}</style></defs><rect class="cls-1" x="596.32" y="399.18" width="12.12" height="328.01" transform="translate(1204.76 1126.38) rotate(180)"/><path class="cls-1" d="M491.15,181.27c2,.23,3.06,1.24,3.06,3a5.67,5.67,0,0,1-.17,1.35,6.28,6.28,0,0,1-4.07,4.74c.11,1.36.28,2.72.51,4.07.67,6.56,1.29,12.93,1.86,19.15q1.86,17.12,3.05,29.82c.45,5.31.67,9.31.67,12a23.86,23.86,0,0,1-.17,3.55,11.52,11.52,0,0,1-2.19,4.41,22.75,22.75,0,0,1-3.9,4.23,31.58,31.58,0,0,1-9.56,5.93A16.72,16.72,0,0,1,474.1,275a10.18,10.18,0,0,1-3.24-.51,8.67,8.67,0,0,1-2.57-1.52,9.84,9.84,0,0,1-1.7-3.05q-1-22.2-1.53-50.15-.17-12-.17-23.55v-3.39q-8.29.33-17.79.84-7.62.35-14.4.85-.33,12.72-1.52,24.74-2.21,20.84-6.95,34.56a.5.5,0,0,0-.17.34q-1.19,3.22-5.42,5.25a13.13,13.13,0,0,1-4.91,1,12.26,12.26,0,0,1-3.56-.51,8,8,0,0,1-3.05-2.2,8.76,8.76,0,0,1-2.37-3.73,106.52,106.52,0,0,0,2.71-16.26q1-10,1.52-22.2.67-14.73.51-31.34,0-16.6-.85-32.7c-.22-5.65-.51-11.18-.84-16.61s-.91-10.55-1.36-15.41q1.86-5.09,6.27-5.08a11.16,11.16,0,0,1,3.22.51q7.13,2.36,10.84,12.7a218.22,218.22,0,0,1,3.9,23.55q1.53,12.19,1.86,24.57c.11,3.72.17,7.4.17,11l3.9-.17q7.11-.33,14.23-.51,7.29-.16,14.06-.34,0-10.15.34-20,.34-14.24,1-26.94t1.88-23a12.7,12.7,0,0,1,7.34-9.32,15.36,15.36,0,0,1,6.14-1.52,8.68,8.68,0,0,1,4.44,1.18,7.36,7.36,0,0,1,2.56,2.38,7.05,7.05,0,0,1,1.53,3.72Q487.32,114,486.58,123a188.89,188.89,0,0,0-.17,21.51q.16,6.78.85,14.57.57,7.63,1.35,15.59.34,3.74.51,7.63A16.6,16.6,0,0,0,491.15,181.27Z"/><path class="cls-1" d="M564.35,181.61c.67-3.28,2.88-4.92,6.6-4.92h1.86q7.13.85,10.17,6.44a12.4,12.4,0,0,1,1,4.24,11.57,11.57,0,0,1-.85,4.91q-2.88,3-5.76,14.74-2.71,11.86-4.58,25.75-.84,6.1-1.52,12c-.34,4-.62,7.79-.85,11.52a142.61,142.61,0,0,0,0,17.11c.34,4.64,1.19,7.17,2.54,7.63,2.49.78,6.1-2.37,10.85-9.49s9.37-15.3,14.23-24.57q4.74-9.3,9.15-18.46,4.23-9.15,7.11-15.59a9.55,9.55,0,0,1,3.56-.68,15.45,15.45,0,0,1,3.39.34l-7.79,17.79q-4.58,10.85-10.34,21.86a217.12,217.12,0,0,1-11.86,20.33q-6.27,9.48-12.7,14.4a23.49,23.49,0,0,1-6.78,3.89,11.71,11.71,0,0,1-3.39.51,10.1,10.1,0,0,1-3.22-.51,19.26,19.26,0,0,1-9.32-6.27,30,30,0,0,1-5.42-9.65,58.52,58.52,0,0,1-2.71-21.86,148.85,148.85,0,0,1,1.7-17.11c-.34.12-1.36,1.81-3.05,5.09a66,66,0,0,1-6.78,10,45.24,45.24,0,0,1-5.09,5.25,27.72,27.72,0,0,1-5.92,4.07,17.5,17.5,0,0,1-8.31,1.69,15.76,15.76,0,0,1-9.14-3.38,17.77,17.77,0,0,1-5.43-6.11,27.39,27.39,0,0,1-2.54-8.3,31,31,0,0,1-.51-5.76,57.26,57.26,0,0,1,1.7-13.21A84.24,84.24,0,0,1,512,205.5a65.93,65.93,0,0,1,12.2-16.61q7.13-7.11,14.74-8.3a26.71,26.71,0,0,1,4.58-.34,49.27,49.27,0,0,1,5.59.34A39.43,39.43,0,0,1,559.26,183a13.7,13.7,0,0,1,4.07,2.38C563.78,183.75,564.12,182.51,564.35,181.61Zm-7.8,9a13.5,13.5,0,0,0-6.1,1.53,26.54,26.54,0,0,0-9.15,7.79,68.42,68.42,0,0,0-7.28,12,59.55,59.55,0,0,0-5.59,19.15q-1.18,9.31,3.38,11.69,3.06,1.51,7.63-4.91a111.43,111.43,0,0,0,9.15-15.93,254.59,254.59,0,0,0,10.33-24.06c.91-2.37,1.64-4.46,2.21-6.27A10.8,10.8,0,0,0,556.55,190.58Z"/><path class="cls-1" d="M697.85,215a16.63,16.63,0,0,1,4.07-.51,6,6,0,0,1,2.88.51A48,48,0,0,1,694,231.25a87.49,87.49,0,0,1-15.09,11.86c-3,1.8-6,3.5-9,5.08A74.18,74.18,0,0,1,664,262.42q-5.26,9.31-12.54,12.2a16,16,0,0,1-6.1.85,16.42,16.42,0,0,1-7.79-1.87,12.57,12.57,0,0,1-3.39-2.71,9.8,9.8,0,0,1-1.87-4.4,4.74,4.74,0,0,1,1.19-3.73,26.59,26.59,0,0,1,4.41-4.06,115.06,115.06,0,0,1,12.87-7.63c.9-2.48,1.81-5.14,2.71-8a88.61,88.61,0,0,0,2.88-14.91,41.12,41.12,0,0,0-.67-14.06,27.4,27.4,0,0,0-3-7.46,15.65,15.65,0,0,0-5.43-5.42q-10.5-6.62-15.07,23.38-4.59,29.82-.34,90.64-.85,2.54-4.92,3.73a18.79,18.79,0,0,1-5.59.84,26.1,26.1,0,0,1-3-.17,20.74,20.74,0,0,1-4.57-1.18,13,13,0,0,1-3.73-2.54,8.92,8.92,0,0,1-2.2-3.56,11.92,11.92,0,0,1,0-4.91q3.39,1.18,5.25-5.26a97.52,97.52,0,0,0,2.37-17.62q.35-5.92.34-12.87t-.17-14.23q-.51-16.78-1.86-33.88-1.53-16.95-3-28.47L608.9,185c-.56-2.6-1.13-4.13-1.69-4.58q4.23-4.06,8-4.07a6.42,6.42,0,0,1,2.55.51q4.9,1.88,8.63,8a81.52,81.52,0,0,1,1.7,14.23q.16,8.3.34,11.35a27.45,27.45,0,0,0,1.69-4.91,51.34,51.34,0,0,1,4.58-10,45.17,45.17,0,0,1,3.73-5.42,25.52,25.52,0,0,1,4.74-4.58,17.75,17.75,0,0,1,16.77-1.35,15.47,15.47,0,0,1,6.44,5.08,28.14,28.14,0,0,1,4.4,8.13A62.72,62.72,0,0,1,674.13,218a102.77,102.77,0,0,1-1.86,21.35q7.62-4.9,14.57-10.34A37.19,37.19,0,0,0,697.85,215Zm-53.2,44.56a18.15,18.15,0,0,0-4.23,2.88c-.91.9-1.08,1.75-.51,2.54q1.68,2.88,6.1-4.06c.56-.9,1.07-1.81,1.52-2.71Q646,258.87,644.65,259.54Z"/><path class="cls-1" d="M781.37,215a16.75,16.75,0,0,1,4.07-.51,5.88,5.88,0,0,1,2.87.51,47.64,47.64,0,0,1-10.83,16.27,87.42,87.42,0,0,1-15.08,11.86q-4.57,2.7-9,5.08a74.18,74.18,0,0,1-5.93,14.23q-5.25,9.31-12.54,12.2a16,16,0,0,1-6.1.85,16.45,16.45,0,0,1-7.79-1.87,12.57,12.57,0,0,1-3.39-2.71,9.8,9.8,0,0,1-1.87-4.4,4.74,4.74,0,0,1,1.19-3.73,26.59,26.59,0,0,1,4.41-4.06,116.93,116.93,0,0,1,12.87-7.63c.9-2.48,1.81-5.14,2.71-8a88.61,88.61,0,0,0,2.88-14.91,41.12,41.12,0,0,0-.67-14.06,27.4,27.4,0,0,0-3.05-7.46,15.71,15.71,0,0,0-5.42-5.42q-10.51-6.62-15.08,23.38-4.57,29.82-.34,90.64c-.57,1.69-2.2,2.93-4.91,3.73a18.85,18.85,0,0,1-5.6.84,26.1,26.1,0,0,1-3-.17,20.74,20.74,0,0,1-4.57-1.18,13,13,0,0,1-3.73-2.54,9,9,0,0,1-2.2-3.56,11.92,11.92,0,0,1,0-4.91q3.39,1.18,5.25-5.26a97.52,97.52,0,0,0,2.37-17.62q.35-5.92.34-12.87T699,257.51q-.51-16.78-1.86-33.88-1.53-16.95-3-28.47L692.43,185c-.57-2.6-1.13-4.13-1.7-4.58q4.24-4.06,8-4.07a6.42,6.42,0,0,1,2.55.51q4.9,1.88,8.64,8a81.59,81.59,0,0,1,1.69,14.23c.11,5.53.23,9.31.34,11.35a26.54,26.54,0,0,0,1.69-4.91,51.34,51.34,0,0,1,4.58-10,45.17,45.17,0,0,1,3.73-5.42,25.83,25.83,0,0,1,4.74-4.58,17.75,17.75,0,0,1,16.77-1.35,15.41,15.41,0,0,1,6.44,5.08,28.14,28.14,0,0,1,4.4,8.13A62.72,62.72,0,0,1,757.65,218a102.77,102.77,0,0,1-1.86,21.35q7.62-4.9,14.57-10.34A37.09,37.09,0,0,0,781.37,215Zm-53.19,44.56a18,18,0,0,0-4.24,2.88c-.91.9-1.08,1.75-.51,2.54q1.7,2.88,6.1-4.06c.57-.9,1.07-1.81,1.53-2.71Q729.53,258.87,728.18,259.54Z"/><path class="cls-1" d="M806.79,184q-.87,6.78-1.52,14.06c-.34,4.86-.58,9.6-.68,14.23a174,174,0,0,0,.34,22.37q.84,9.31,3.36,9.31,3.69.18,7.72-8.64a103.18,103.18,0,0,0,6.71-20.84q1.35-6.76,2.18-13.72a107.64,107.64,0,0,0,.86-13.38,11.59,11.59,0,0,1,1.18-4.07,6.87,6.87,0,0,1,2.54-2.54q4.41-2.53,10.52.85a11.66,11.66,0,0,1,6.6,10c-.56.23-1,1.13-1.18,2.71s-.46,3.62-.68,6.1c-.24,4.86-.28,11.07-.18,18.64s-.1,15.87-.34,24.56a16.88,16.88,0,0,1-.16,2.54c1.8-2,3.66-4.11,5.6-6.26,3.94-4.52,7.68-9.15,11.17-13.9a95.84,95.84,0,0,0,8.8-14.23,23.71,23.71,0,0,1,3.4-.68,8.11,8.11,0,0,1,3.56.51,107.7,107.7,0,0,1-9.5,16.27q-5.58,8-11.67,15.42-5.94,6.94-11.7,13.38v4.41q-.51,8.81-1.36,17.28a135.49,135.49,0,0,1-5.58,27.27q-3.9,11.86-11.2,15.42a20.39,20.39,0,0,1-8.55,2.2h-.84a10.66,10.66,0,0,1-6.72-2.88c-3.38-3.05-4.94-8.07-4.72-15.08s2.58-14.51,7.06-22.53q4.2-7.62,14.11-17.79.18-9,0-16.94V236.16a36.85,36.85,0,0,1-3.55,8.47,39.31,39.31,0,0,1-8,9.83,22.53,22.53,0,0,1-5.6,3.56,14.16,14.16,0,0,1-6.1,1.35,18.43,18.43,0,0,1-11.18-3.22,21.66,21.66,0,0,1-6.77-9,40.12,40.12,0,0,1-3.56-13,133.06,133.06,0,0,1-.84-14.91v-.51c0-3.39,0-6.72.17-10s.45-6.54.67-9.48q.67-8.47,1-14.57.35-5.94-1-7.12,2.22-4.23,9.55-4.41h.18a18.24,18.24,0,0,1,11.94,3.9,17.16,17.16,0,0,1,2.72,3.05A8.85,8.85,0,0,1,806.79,184Zm10.84,103.85q-5.25,10.51-2.38,15.59c1.92,3.5,3.68,4.91,5.26,4.24q2-.86,3.21-7.12a142.46,142.46,0,0,0,1.52-14.91c.24-3.05.4-6.26.52-9.65A55.84,55.84,0,0,0,817.63,287.83Z"/><path class="cls-1" d="M280.52,300.51a10.32,10.32,0,0,1,2.21-5.07,6.87,6.87,0,0,1,3.49-2.53,8.5,8.5,0,0,1,3.17-.64,12.16,12.16,0,0,1,4.9,1.12,13.5,13.5,0,0,1,6.18,4.9c.1,1.27.16,2.85.16,4.76s.16,4.17.16,7.12q2.52-4.76,8.71-9.18a26,26,0,0,1,13.3-4.91,17.82,17.82,0,0,1,7.76,1.11,17.59,17.59,0,0,1,7.13,4.75,18.44,18.44,0,0,1,4.43,7.92,23.62,23.62,0,0,1,.48,9,47.3,47.3,0,0,1-7.28,18.84,145.6,145.6,0,0,1-11.57,16.63q-3,3.81-5.54,6.49-2.38,2.7-3.48,4a66.31,66.31,0,0,1,11.56-1,34.24,34.24,0,0,1,14.89,2.7,21.7,21.7,0,0,1,7,4.43,17.47,17.47,0,0,1,4.75,7.29,39,39,0,0,1,2.22,13,44.77,44.77,0,0,1-6.17,22.81,45.32,45.32,0,0,1-18.69,18.06q-11.88,6-24.08,0-3.8-2.7-4.75-8.4-.94-5.53,6-11.88a12,12,0,0,0,6.17,2.53,7.49,7.49,0,0,0,5.07-1.1A11.85,11.85,0,0,0,323,409a29.74,29.74,0,0,0,3.17-6.33,46.4,46.4,0,0,0,2.37-13.78q.17-7.12-1.74-10.3-4.59-7.12-14.09-5.06a32.86,32.86,0,0,0-13.15,6.65q-.48,12.51-.79,23.75-.48,14.26-.16,23.29a69.4,69.4,0,0,0,.63,7.92c.32,2,.8,3.16,1.43,3.48q-1.28,3.33-5.7,4.59a20.08,20.08,0,0,1-5.7.8c-1.06,0-2.17-.06-3.33-.16a20.42,20.42,0,0,1-6-1.9,12.06,12.06,0,0,1-4.27-3.65q-1.75-5.55-1.91-16.31,0-10.61.8-24.07.47-7.12,1.11-14.89l1.26-15.52q1-12.19,1.9-24.08t1.43-22a13.7,13.7,0,0,1-9.66,1.27q-5.39-1.28-7.13-3.33a2.26,2.26,0,0,1-.79-1.59,1.34,1.34,0,0,1,.16-.63,2.91,2.91,0,0,1,1.58-1.58c1.79.11,4.64-1.22,8.55-4A18.43,18.43,0,0,0,280.52,300.51Zm20.27,45.77q-.33,9.68-.64,19.17l.64-.48a20.15,20.15,0,0,0,4.27-4.28,36.26,36.26,0,0,0,4.91-8.55,78.71,78.71,0,0,0,3.49-10.29A91.18,91.18,0,0,0,316.62,323c.32-6-.05-9.6-1.1-10.77q-2.86-3.33-8.08,0T301,320.31Q301.1,332.51,300.79,346.28Z"/><path class="cls-1" d="M388.85,367.35a79.22,79.22,0,0,1-.47,10q-.81,6.82-1.75,14.73c-.32,2.75-.63,5.55-.95,8.4s-.42,5.44-.63,8.08a74.26,74.26,0,0,0,.32,12.35c.31,3.49,1.31,5.54,3,6.18s3.37.21,5.38-.95a26.69,26.69,0,0,0,6-4.91,99,99,0,0,0,11.56-16.47q5.85-10.14,10.13-19a25.26,25.26,0,0,1,3-.47,5.09,5.09,0,0,1,2.85.94,125.11,125.11,0,0,1-5.54,12.2,145.16,145.16,0,0,1-7.6,13.62,94.3,94.3,0,0,1-5.86,8.55,90.18,90.18,0,0,1-6.34,7.76,48.38,48.38,0,0,1-13,10,18.66,18.66,0,0,1-8.4,2.06,17.67,17.67,0,0,1-5.23-.79,11.94,11.94,0,0,1-7-5.39,25.51,25.51,0,0,1-3.33-9.18,57.54,57.54,0,0,1-.79-9.82,24.75,24.75,0,0,1,.16-2.85q.15-6.81,1-13.78,1.57-13,3.17-23.76,1.74-10.6-.95-12.35,1.1-4.59,7.6-5.54a22.12,22.12,0,0,1,2.53-.16A11.5,11.5,0,0,1,386,359.9a7.41,7.41,0,0,1,2.22,3A14.16,14.16,0,0,1,388.85,367.35Zm2.85-38.65v.48c0,1.69-.9,3.32-2.69,4.91a8.83,8.83,0,0,1-5.55,2.38h-.31a26.26,26.26,0,0,1-9.51-2.38q-5.22-2.05-5.54-6.49v-.48q0-3.8,4.43-6.65a17.21,17.21,0,0,1,8.56-2.7h.47a9.48,9.48,0,0,1,6.82,3.65A13.35,13.35,0,0,1,391.7,328.7Z"/><path class="cls-1" d="M439.69,360.54a16.92,16.92,0,0,0,4.43-.64c3-.63,6.12-1.42,9.5-2.37a26.81,26.81,0,0,1,9-1.42,9.78,9.78,0,0,1,3.64.63,6,6,0,0,1,2.54,2.37c.53,1.58.42,5.76-.32,12.51s-1.69,14.15-2.53,22.18q-1.11,9.66-1.59,18.69a64.72,64.72,0,0,0,.32,14.73,11.31,11.31,0,0,0,1.43,4.91,2.83,2.83,0,0,0,2.53,1.74q4.13,0,10.45-8.56a221.64,221.64,0,0,0,12.36-18.68q4-6.81,7.12-13.15t4.75-10a15.59,15.59,0,0,1,3-.32,9.35,9.35,0,0,1,3,.48,203.62,203.62,0,0,1-9.34,20,145.73,145.73,0,0,1-14.57,23.28,66.12,66.12,0,0,1-11.09,11.72q-5.7,4.59-10.93,4.59h-.15q-15.85-.16-22.65-17.74-6.66-17.73,1.58-57.17a44.09,44.09,0,0,1-5.54-.63c-1.17,2.53-2.38,5.06-3.65,7.6q-5.07,10-6.49,13.46c-1.27.21-2.38.37-3.32.47a8.09,8.09,0,0,1-3-.63q1.57-3,4.11-8.39c1.59-3.59,3.27-7.39,5.07-11.41.53-1.16,1-2.27,1.43-3.32a27.66,27.66,0,0,1-4.59-3.64,17.12,17.12,0,0,1-5.39-12A15.22,15.22,0,0,1,425,338.36a13,13,0,0,1,5.7-3.48,15.82,15.82,0,0,1,5.06-.79,30.45,30.45,0,0,1,3.17.16q5.39.79,5.39,7a50.28,50.28,0,0,1-2.85,14.25q-1,2.53-1.9,5.07Zm-2.54-16.16q-3.48-.47-3.8,7a17.28,17.28,0,0,0,.64,6.34c.73-1.9,1.42-3.75,2.05-5.55Q438.74,344.55,437.15,344.38Z"/><path class="cls-1" d="M539,328.7a4,4,0,0,1,1.74,3.33.61.61,0,0,1-.16.47,4.13,4.13,0,0,1-2.22,3.65H525.84q-1.11,8.07-2.53,18.68-2.05,14.9-3.48,29.78-1.27,12.36-1.75,23.28a112.09,112.09,0,0,0,.64,17.9,24.3,24.3,0,0,0,1.74,6.18,4.73,4.73,0,0,0,2.85,2.85q4.59,1.43,10.61-7a153.9,153.9,0,0,0,11.56-19.64q3.16-6,5.86-11.88,2.85-5.85,5.07-10.61a24.63,24.63,0,0,1,3-.47,5.91,5.91,0,0,1,3,.94q-3.79,9.19-10.77,23.29a124.42,124.42,0,0,1-16,24.54,48.08,48.08,0,0,1-12.35,10.78,17.5,17.5,0,0,1-8.55,2.37,16.2,16.2,0,0,1-4.44-.63,12.36,12.36,0,0,1-6.33-4.28,26.06,26.06,0,0,1-4.28-7.6q-2.85-8.55-3-21.06v-2.22A242.25,242.25,0,0,1,498,387.15q1.74-17.11,4.75-33.58,1.74-9.81,3.17-17.58-4.44-.15-10.3-.32c-1.9.22-2.85-.79-2.85-3v-.31c.11-2.32.95-3.54,2.54-3.65q3.48-.15,6.81-.15c1.69,0,3.38.05,5.06.15a21.8,21.8,0,0,1,.48-2.69c.64-3.9,1.11-7.12,1.43-9.66s.31-4,0-4.44a5.33,5.33,0,0,1,.94-2.05,6.9,6.9,0,0,1,1.59-1.43,8.12,8.12,0,0,1,3.64-.79,14.28,14.28,0,0,1,6,1.58q5.87,2.7,6.81,7.92a20.31,20.31,0,0,1-.16,4.12c-.31,2.32-.69,5.17-1.11,8.55h1.91q3.63,0,6.33-.16A8.57,8.57,0,0,0,539,328.7Z"/><path class="cls-1" d="M552.77,314a13.36,13.36,0,0,1,4.28-3.65,11.1,11.1,0,0,1,4-.79h.8a14.54,14.54,0,0,1,8.31,4,16.22,16.22,0,0,1,5,7.44q.63,17.43-.16,30.89-.65,13.62-.8,28.35c.42-1.06,1.43-3.17,3-6.34a25.48,25.48,0,0,1,7.29-8.55,24.92,24.92,0,0,1,5.7-3.17,17.43,17.43,0,0,1,7.13-.79,11.76,11.76,0,0,1,7.91,3.8,24.17,24.17,0,0,1,4.92,8.71,59.94,59.94,0,0,1,2.69,12.51q.78,7,1,14.26.32,13.47,0,24.55c-.22,7.5.58,11.56,2.37,12.19q3.33,1.27,9.51-7.12a222.47,222.47,0,0,0,11.88-19q3.94-7,7.12-13.46t4.75-10a11.9,11.9,0,0,1,3-.79,5.07,5.07,0,0,1,3.17,1.26q-1.74,4-5.54,11.88a182.25,182.25,0,0,1-8.71,16.47q-2.53,4.44-5.39,8.87t-5.7,8.08a60.08,60.08,0,0,1-11.4,11.25,13.35,13.35,0,0,1-7.78,2.85,9.43,9.43,0,0,1-3-.48,16.86,16.86,0,0,1-8.62-6,30.48,30.48,0,0,1-4.95-9.83,53.15,53.15,0,0,1-2.39-12.82q-.48-7-.32-13.94.32-12.82,1.11-23T590.64,371q-3.6-.47-6.9,3.64a40.37,40.37,0,0,0-5.5,9.83,38.76,38.76,0,0,0-2.35,7.28,25.31,25.31,0,0,0-.94,6.18q-.16,8.38-.32,25a15.51,15.51,0,0,1-5.11,7.92c-2.67,2.32-5.27,3.22-7.83,2.69a6.57,6.57,0,0,1-3.2-1.58,9.61,9.61,0,0,1-2.39-3.65,139.12,139.12,0,0,1-1.43-23.59q0-14.1.48-28.83.32-7.75.63-15.21t.48-14.41q.32-12.66-.32-21.69Q555.31,315.73,552.77,314Z"/><path class="cls-1" d="M691.82,347.71q1.75-13.45,2.7-23.28l1.11-11.72a15.74,15.74,0,0,1,3.64-6.34,6.31,6.31,0,0,1,4.27-1.9H704q4,0,7.92,3.49,4.27,3.8,6.81,6.33-.63.48-1.59,4-1.1,3.64-2.37,9.51-2.22,11.07-4.91,28-2.53,17.1-4.28,34.53c-.52,5.06-1,10-1.26,14.88s-.58,9.61-.8,13.94a146.36,146.36,0,0,0,.64,20.27q.95,8.23,3.8,9.34,3.48,1.28,10.46-8.39T732.85,418q4.74-8.55,9.18-16.95t7.29-14.41a8,8,0,0,1,3.32-.79,9.71,9.71,0,0,1,3.16.79q-3,6.49-7.9,16.31t-10.62,20a170,170,0,0,1-11.88,18.53,56.69,56.69,0,0,1-12.35,13,21.9,21.9,0,0,1-6.65,3.32,11.22,11.22,0,0,1-2.7.32,10.16,10.16,0,0,1-3.48-.63,16.83,16.83,0,0,1-8.24-6.18,30.61,30.61,0,0,1-4.59-9.5,57.55,57.55,0,0,1-1.74-20.59,152.83,152.83,0,0,0,.79-15.84q-.32.94-1.11,2.85a43.19,43.19,0,0,1-1.74,4.6,66.06,66.06,0,0,1-5.39,10.29,25.9,25.9,0,0,1-8.39,8.55,19.61,19.61,0,0,1-7.29,2.69,18.52,18.52,0,0,1-9-1.1q-8.71-3.18-11.25-13.47a51.19,51.19,0,0,1-1.58-12.83,60.48,60.48,0,0,1,.79-9.66A94.9,94.9,0,0,1,643.68,387q1.58-5.07,3.48-9.82a61.77,61.77,0,0,1,9.35-14.73q5.54-6,11.87-6.65a36.33,36.33,0,0,1,8.87.16,35.19,35.19,0,0,1,9.83,2.53,17,17,0,0,1,3,1.58Q691,353.73,691.82,347.71Zm-13.14,22a42.76,42.76,0,0,0-8.39,13.46c-1,2.33-1.85,4.76-2.7,7.29a65.48,65.48,0,0,0-1.74,7.6,40,40,0,0,0-.63,12q.46,5.24,3.64,6.49a4.37,4.37,0,0,0,4-.31,11.5,11.5,0,0,0,3.64-3.8q3.16-5.07,5.86-14.57,2.7-9.35,4.91-20.44.79-4.91,1.58-10a.43.43,0,0,0-.31-.16Q683.6,364.5,678.68,369.72Z"/><path class="cls-1" d="M799.06,357.05q.95-4.59,6.17-4.59H807q6.66.8,9.51,6a11.75,11.75,0,0,1,.95,4,10.81,10.81,0,0,1-.8,4.59q-2.68,2.85-5.38,13.78-2.54,11.08-4.28,24.08c-.53,3.79-1,7.55-1.42,11.24s-.59,7.28-.79,10.77a132.34,132.34,0,0,0,0,16c.31,4.34,1.1,6.71,2.37,7.13q3.48,1.11,10.14-8.86,6.5-10,13.3-23,4.42-8.71,8.55-17.26,4-8.56,6.65-14.58a9,9,0,0,1,3.33-.63,14.75,14.75,0,0,1,3.17.31L845,402.67q-4.28,10.14-9.65,20.43a204,204,0,0,1-11.1,19q-5.85,8.88-11.88,13.47a21.91,21.91,0,0,1-6.33,3.64,11.22,11.22,0,0,1-3.17.47,9.52,9.52,0,0,1-3-.47,18.06,18.06,0,0,1-8.72-5.86,28.21,28.21,0,0,1-5.07-9,54.77,54.77,0,0,1-2.53-20.43,143,143,0,0,1,1.58-16q-.47.17-2.85,4.76a60.73,60.73,0,0,1-6.33,9.34,41.73,41.73,0,0,1-4.75,4.91,26.45,26.45,0,0,1-5.54,3.8,16.25,16.25,0,0,1-7.76,1.58,14.83,14.83,0,0,1-8.56-3.16,16.52,16.52,0,0,1-5.07-5.71,25.44,25.44,0,0,1-2.37-7.75,29.06,29.06,0,0,1-.48-5.39A53.31,53.31,0,0,1,743,397.92a78.76,78.76,0,0,1,7.12-18.53,61.72,61.72,0,0,1,11.4-15.53q6.66-6.64,13.79-7.75a24.39,24.39,0,0,1,4.27-.32,45.13,45.13,0,0,1,5.23.32,36.39,36.39,0,0,1,9.5,2.21,12.83,12.83,0,0,1,3.8,2.22C798.52,359.06,798.84,357.9,799.06,357.05Zm-7.29,8.4a12.68,12.68,0,0,0-5.71,1.42,24.72,24.72,0,0,0-8.55,7.29,64.21,64.21,0,0,0-6.81,11.24,55.52,55.52,0,0,0-5.22,17.9q-1.11,8.71,3.16,10.93,2.85,1.42,7.14-4.59a104.06,104.06,0,0,0,8.55-14.89A237.34,237.34,0,0,0,794,372.26c.85-2.22,1.53-4.17,2.07-5.86A10.06,10.06,0,0,0,791.77,365.45Z"/><path class="cls-1" d="M864.77,359.27q-.79,6.33-1.42,13.15c-.31,4.54-.53,9-.63,13.3a162.6,162.6,0,0,0,.32,20.91q.78,8.72,3.14,8.71c2.29.11,4.71-2.59,7.22-8.08a98.5,98.5,0,0,0,6.28-19.48q1.25-6.33,2-12.83a103,103,0,0,0,.79-12.51,10.93,10.93,0,0,1,1.11-3.8,6.39,6.39,0,0,1,2.38-2.38q4.13-2.37,9.82.79A11,11,0,0,1,902,366.4c-.54.21-.91,1.06-1.11,2.53s-.43,3.38-.64,5.7c-.22,4.55-.26,10.35-.16,17.42s-.1,14.84-.32,23a14.72,14.72,0,0,1-.16,2.37c1.7-1.89,3.43-3.85,5.24-5.86q5.53-6.33,10.45-13a92,92,0,0,0,8.23-13.3,21.43,21.43,0,0,1,3.17-.64,7.64,7.64,0,0,1,3.33.48,102.11,102.11,0,0,1-8.87,15.2q-5.24,7.44-10.93,14.41-5.55,6.49-10.92,12.52v4.11q-.48,8.24-1.28,16.16a126.6,126.6,0,0,1-5.22,25.5q-3.64,11.08-10.46,14.41a19.16,19.16,0,0,1-8,2.06h-.78a10.05,10.05,0,0,1-6.28-2.69q-4.72-4.27-4.4-14.1t6.59-21.06q3.93-7.12,13.2-16.63.15-8.4,0-15.84V408.05a34.22,34.22,0,0,1-3.33,7.92,37,37,0,0,1-7.44,9.19,20.61,20.61,0,0,1-5.23,3.32,13.12,13.12,0,0,1-5.7,1.27,17.24,17.24,0,0,1-10.45-3,20.27,20.27,0,0,1-6.33-8.39,37.11,37.11,0,0,1-3.33-12.2,122.79,122.79,0,0,1-.8-13.94v-.47c0-3.17.06-6.28.16-9.35s.42-6.12.64-8.86q.63-7.92.95-13.63.32-5.53-.95-6.65,2.07-4,8.93-4.12H850a17,17,0,0,1,11.16,3.65,15.75,15.75,0,0,1,2.55,2.85A8,8,0,0,1,864.77,359.27Zm10.14,97.09q-4.92,9.81-2.22,14.57t4.92,4c1.26-.53,2.27-2.75,3-6.66A131.92,131.92,0,0,0,882,454.3q.32-4.28.47-9A52.06,52.06,0,0,0,874.91,456.36Z"/><path class="cls-2" d="M558.46,190.69c-9.35.56-17.38,6.72-22.21,14.47-5.7,9.14-7.19,20.37-7.63,30.93-.19,4.64.22,10,4.25,13,.77.57,1.52-.73.75-1.3-3.38-2.52-3.64-7.31-3.52-11.17a92.12,92.12,0,0,1,1.61-15c1.82-9.23,5.78-18.22,13.36-24.13a24.29,24.29,0,0,1,13.39-5.3c1-.06,1-1.56,0-1.5Z"/><path class="cls-2" d="M620.71,179.5c5.08,6.28,5.3,14.91,5.43,22.62a.75.75,0,0,0,1.5,0c-.14-8.17-.5-17-5.87-23.68-.61-.75-1.66.31-1.06,1.06Z"/><path class="cls-2" d="M633.58,218.59a220.69,220.69,0,0,0-4.93,36.11c-.41,6.07-.69,12.15-1,18.24-.26,5.71-.5,11.44-.19,17.16a56.11,56.11,0,0,0,3.9,18.68c.37.88,1.82.49,1.45-.4-4.42-10.56-4.24-22.19-3.75-33.42.52-12,1-24,2.45-35.92A181.46,181.46,0,0,1,635,219c.23-.94-1.22-1.34-1.44-.4Z"/><path class="cls-2" d="M717.64,214.71a492.11,492.11,0,0,0-3.54,59.07q0,8.33.29,16.65c0,1,1.53,1,1.5,0a492.87,492.87,0,0,1,1.53-59.16q.72-8.29,1.72-16.56c.11-1-1.39-1-1.5,0Z"/><path class="cls-2" d="M422.83,123.66a124,124,0,0,1,9.87,62.2c-.09,1,1.41.95,1.5,0a125.28,125.28,0,0,0-10.08-63c-.39-.88-1.68-.12-1.29.75Z"/><path class="cls-2" d="M431.52,203.29A121,121,0,0,1,428,241.76c-.92,3.55-2,7.06-3.24,10.52-.33.91,1.12,1.31,1.44.4a122.3,122.3,0,0,0,7.09-38.2c.08-3.73,0-7.47-.26-11.19-.07-1-1.57-1-1.5,0Z"/><path class="cls-2" d="M804.81,184c-.75,15.59-6.3,31.35-2,46.87A32,32,0,0,0,808,241.51c.57.76,1.87,0,1.29-.76-9.29-12.4-6.57-28.82-4.46-43,.67-4.55,1.29-9.11,1.51-13.7.05-1-1.45-1-1.5,0Z"/><path class="cls-2" d="M709.64,180.46a162.19,162.19,0,0,0,2.12,18.79c.17.95,1.61.55,1.45-.39a157.89,157.89,0,0,1-2.07-18.4c0-1-1.55-1-1.5,0Z"/><path class="cls-2" d="M301.54,320.09l-2.72,43.29c-.06,1,1.44,1,1.5,0L303,320.09c.06-1-1.44-1-1.5,0Z"/><path class="cls-2" d="M298.7,380.2a401,401,0,0,0-1.27,41.46.75.75,0,0,0,1.5,0,401,401,0,0,1,1.27-41.46c.08-1-1.42-1-1.5,0Z"/><path class="cls-2" d="M385.4,362.91a149.39,149.39,0,0,1,1,29.29,143.72,143.72,0,0,1-1.71,14.92c-.77,4.63-2.31,9.45-1.68,14.18.51,3.85,3,7.78,7,8.64.94.2,1.34-1.24.4-1.45-3.77-.8-5.74-4.69-6-8.26a27.46,27.46,0,0,1,.68-7c.43-2.26.87-4.52,1.24-6.79a150.46,150.46,0,0,0,1.83-27.64,148.16,148.16,0,0,0-1.28-15.89c-.13-.94-1.63-1-1.5,0Z"/><path class="cls-2" d="M385.82,321.07a6.42,6.42,0,0,1,3.73,8.3.78.78,0,0,0,.27,1,.76.76,0,0,0,1-.27,8,8,0,0,0-4.63-10.51c-.92-.3-1.31,1.15-.4,1.45Z"/><path class="cls-2" d="M468.43,366.85c-4.92,18-8.38,37.36-3.9,55.84,1,4.07,2.6,8.22,6.17,10.68.79.55,1.54-.75.75-1.29-3.1-2.15-4.48-5.86-5.37-9.38a71.57,71.57,0,0,1-2-13.35,109.75,109.75,0,0,1,2.19-27.05c1-5.06,2.22-10.07,3.58-15.05a.75.75,0,0,0-1.45-.4Z"/><path class="cls-2" d="M523.89,335.52q-4.56,24.76-7.35,49.82c-.91,8.24-1.95,16.56-2,24.86a60.39,60.39,0,0,0,1,11.93,14.88,14.88,0,0,0,1.81,4.92,35.52,35.52,0,0,0,2.4,4c1.62,2,4.25,2.52,6.71,2.13,1.95-.3,4.28-1.14,5.51-2.77.58-.77-.72-1.52-1.29-.76-.93,1.23-3,1.81-4.43,2.05-2.06.36-4.35-.06-5.57-1.92-.84-1.28-1.59-2.71-2.34-4.05a15.65,15.65,0,0,1-1.55-5.09,62.87,62.87,0,0,1-.74-11.55c.14-7.76,1.07-15.53,1.92-23.24q1.31-11.86,3-23.67,1.92-13.19,4.33-26.3c.18-.94-1.27-1.35-1.44-.4Z"/><path class="cls-2" d="M572.7,320.4a164.48,164.48,0,0,1,2.12,44c-.36,4.21-.9,8.39-1.59,12.56-.15.94,1.29,1.35,1.45.4A166.09,166.09,0,0,0,576,332.57q-.68-6.31-1.84-12.56c-.17-.95-1.62-.55-1.45.39Z"/><path class="cls-2" d="M682.27,369.49A65.83,65.83,0,0,0,668.51,387a40.32,40.32,0,0,0-3.71,10.27c-.77,3.74-1.12,7.8,0,11.52s3.75,6.92,7.56,7.79c.94.21,1.34-1.23.4-1.45a9.26,9.26,0,0,1-6.51-6.74c-1-3.55-.65-7.45.11-11a45.68,45.68,0,0,1,9.06-18.25,78.25,78.25,0,0,1,8-8.62c.71-.67-.35-1.73-1.06-1.06Z"/><path class="cls-2" d="M790.82,365.92A37.2,37.2,0,0,0,772.2,380.6c-5,7.45-7.58,16.47-8.24,25.37-.17,2.3-.08,4.86,1.36,6.78a5.1,5.1,0,0,0,5.33,2.09.75.75,0,0,0-.4-1.44c-1.86.49-3.6-.9-4.29-2.55-.82-1.94-.59-4.16-.38-6.19a57.19,57.19,0,0,1,2.51-12.07,41.9,41.9,0,0,1,12.32-19,32.83,32.83,0,0,1,10.8-6.21c.91-.31.52-1.76-.39-1.45Z"/><path class="cls-2" d="M862,360.34c.59,8.58-.12,17.17-.34,25.75a115.72,115.72,0,0,0,.27,12.77A50.11,50.11,0,0,0,864.19,411a5.58,5.58,0,0,0,3.09,3.74,3.32,3.32,0,0,0,4-1.23.75.75,0,0,0-1.3-.76c-.82,1.35-2.69.57-3.44-.41a12.36,12.36,0,0,1-1.69-4.69,63.8,63.8,0,0,1-1.56-11.34c-.42-7.63.15-15.26.39-22.89.13-4.34.16-8.69-.14-13-.06-1-1.56-1-1.5,0Z"/><path class="cls-3" d="M778.69,1325.27c-75.73-1.94-360.49,5.83-415,3.89s-84.82-1.94-83.31-124.43S254.62,965.59,288,934.48s446.81-13.61,546.78-1.94,90.74,89.35,95.28,134.07-9.85,182.75-20.45,226.5-130.87,32.16-130.87,32.16Z"/><path class="cls-4" d="M504.47,949.74c-152.38,4.55-238.24,33-246.83-121.57-3.62-65.12-2.51-61.1-1.49-116.55,1.9-102.74-30.69-191.67,75.44-200.06S872,530.11,909.88,549s43.69,107,37.06,182.47S941.67,919.74,919.57,990c-9.69,30.76-285.5-44.13-415.1-40.25Z"/><path class="cls-1" d="M308,1344.1v18.82a18.76,18.76,0,0,0,18.77,18.76H548.48V1393h23.29c-11.86,13.71-19.54,35.54-19.54,60.12,0,29.75,11.24,55.46,27.54,67.64h-20v5.65a5.63,5.63,0,0,0,5.63,5.63h10c-13.88,13.25-23.13,36.9-23.13,63.88,0,20.49,5.34,39,14,52.61h-14v5.65a5.62,5.62,0,0,0,2.21,4.44c-77.37,7.66-180.7,30.8-180.7,46.28h454.7c0-15-108.56-37.1-182.14-45.48a5.61,5.61,0,0,0,3.64-5.24v-5.65H636c8.64-13.56,14-32.12,14-52.61,0-27-9.25-50.63-23.12-63.88h10a5.63,5.63,0,0,0,5.63-5.63v-5.65h-20c16.3-12.18,27.54-37.89,27.54-67.64,0-24.58-7.68-46.41-19.54-60.12h23.3v-11.28H875.44a18.76,18.76,0,0,0,18.76-18.76V1344.1Z"/><path class="cls-5" d="M654.72,665.3c-11.65,11.55-22,25.46-31.13,40.47-5.83-16.6-13-32.36-22-46.09-28.68-43.87-94.52-6.27-88,39.48,6.63,46.6,69.22,124.1,71.29,126.41.06.1,16,15.5,24.12,15.93,8.1,1.4,21.88-4.8,27.88-11,.05,0,79.38-64.05,95.59-108.15C748.45,679,692,628.34,654.72,665.3Z"/><path class="cls-5" d="M754.33,930.67a156.08,156.08,0,0,0-24.26,29.55,155.26,155.26,0,0,0-17.54-34c-22.8-32.38-74.38-5.13-69,28.5C649,989,698.68,1046.27,700.32,1048c0,.08,12.69,11.47,19.06,11.83,6.38,1.08,17.19-3.4,21.88-7.94,0,0,62.08-46.59,74.59-78.89C828.14,941.24,783.46,903.74,754.33,930.67Z"/><path class="cls-5" d="M535.78,1063c-8.64,8.57-16.27,18.88-23.07,30-4.33-12.31-9.63-24-16.29-34.17-21.26-32.52-70.06-4.65-65.23,29.27,4.91,34.54,51.31,92,52.85,93.71,0,.08,11.88,11.49,17.88,11.81,6,1,16.22-3.56,20.67-8.17,0,0,58.84-47.49,70.86-80.18C605.27,1073.13,563.42,1035.6,535.78,1063Z"/></svg>